# $Id: 6x12.bdf,v 1.32 2008-06-26 12:50:43+01 mgk25 Rel $
# Send bug reports to Markus Kuhn <http://www.cl.cam.ac.uk/~mgk25/>

name: orp Book 11
family: orp
foundry: Misc
copyright: Public domain terminal emulator font.  Share and enjoy.
point-size: 11
weight: book
setwidth: semicondensed
dpi: 75 75
spacing: character-cell
x-height: 5
cap-height: 7
ascent: 9
offset: 0 -2
encoding: unicode
default-char: u+0000
converter: monobit v0.12
source-name: orp-book.bdf
source-format: BDF v2.1
bdf.FONTNAME-REGISTRY: ""
bdf.-GBDFED-INFO: "Edited with gbdfed 1.5."

u+0000:
char0:
    ......
    ......
    ......
    @.@.@.
    ......
    @...@.
    ......
    @...@.
    ......
    @.@.@.
    ......
    ......

u+0020:
space:
    ......
    ......
    ......
    ......
    ......
    ......
    ......
    ......
    ......
    ......
    ......
    ......

u+0021:
exclam:
    ......
    ......
    ......
    ..@...
    ..@...
    ..@...
    ..@...
    ..@...
    ......
    ..@...
    ......
    ......

u+0022:
quotedbl:
    ......
    ......
    .@.@..
    .@.@..
    .@.@..
    ......
    ......
    ......
    ......
    ......
    ......
    ......

u+0023:
numbersign:
    ......
    ......
    ......
    ......
    .@.@..
    @@@@@.
    .@.@..
    @@@@@.
    .@.@..
    ......
    ......
    ......

u+0024:
dollar:
    ......
    ......
    ......
    ..@...
    .@@@@.
    @.@...
    .@@@..
    ..@.@.
    @@@@..
    ..@...
    ......
    ......

u+0025:
percent:
    ......
    ......
    ......
    ......
    @@..@.
    @@.@..
    ..@...
    .@.@@.
    @..@@.
    ......
    ......
    ......

u+0026:
ampersand:
    ......
    ......
    ......
    .@....
    @.@...
    @.@...
    .@....
    @.@.@.
    @..@..
    .@@.@.
    ......
    ......

u+0027:
quotesingle:
    ......
    ......
    ..@...
    ..@...
    ..@...
    ......
    ......
    ......
    ......
    ......
    ......
    ......

u+0028:
parenleft:
    ......
    ......
    ...@..
    ..@...
    .@....
    .@....
    .@....
    .@....
    .@....
    ..@...
    ...@..
    ......

u+0029:
parenright:
    ......
    ......
    .@....
    ..@...
    ...@..
    ...@..
    ...@..
    ...@..
    ...@..
    ..@...
    .@....
    ......

u+002a:
asterisk:
    ......
    ......
    ......
    ..@...
    @.@.@.
    .@@@..
    .@@@..
    @.@.@.
    ..@...
    ......
    ......
    ......

u+002b:
plus:
    ......
    ......
    ......
    ......
    ..@...
    ..@...
    @@@@@.
    ..@...
    ..@...
    ......
    ......
    ......

u+002c:
comma:
    ......
    ......
    ......
    ......
    ......
    ......
    ......
    ......
    .@@...
    .@@...
    @@....
    ......

u+002d:
hyphen:
    ......
    ......
    ......
    ......
    ......
    ......
    @@@@@.
    ......
    ......
    ......
    ......
    ......

u+002e:
period:
    ......
    ......
    ......
    ......
    ......
    ......
    ......
    ......
    .@@...
    .@@...
    ......
    ......

u+002f:
slash:
    ......
    ......
    ......
    ....@.
    ....@.
    ...@..
    ..@...
    .@....
    @.....
    @.....
    ......
    ......

u+0030:
zero:
    ......
    ......
    ......
    .@@@..
    @...@.
    @...@.
    @.@.@.
    @...@.
    @...@.
    .@@@..
    ......
    ......

u+0031:
one:
    ......
    ......
    ......
    ..@...
    .@@...
    @.@...
    ..@...
    ..@...
    ..@...
    @@@@@.
    ......
    ......

u+0032:
two:
    ......
    ......
    ......
    .@@@..
    @...@.
    @...@.
    ...@..
    ..@...
    .@..@.
    @@@@@.
    ......
    ......

u+0033:
three:
    ......
    ......
    ......
    @@@@@.
    @...@.
    ...@..
    ..@@..
    @...@.
    @...@.
    .@@@..
    ......
    ......

u+0034:
four:
    ......
    ......
    ......
    ...@..
    ..@@..
    .@.@..
    @..@..
    @@@@@.
    ...@..
    ..@@@.
    ......
    ......

u+0035:
five:
    ......
    ......
    ......
    @@@@@.
    @.....
    @@@@..
    ....@.
    ....@.
    @...@.
    .@@@..
    ......
    ......

u+0036:
six:
    ......
    ......
    ......
    .@@@..
    @.....
    @@@@..
    @...@.
    @.@.@.
    @...@.
    .@@@..
    ......
    ......

u+0037:
seven:
    ......
    ......
    ......
    @@@@@.
    @...@.
    ...@..
    ...@..
    ..@...
    ..@...
    .@@@..
    ......
    ......

u+0038:
eight:
    ......
    ......
    ......
    .@@@..
    @...@.
    @...@.
    .@@@..
    @...@.
    @...@.
    .@@@..
    ......
    ......

u+0039:
nine:
    ......
    ......
    ......
    .@@@..
    @...@.
    @.@.@.
    @...@.
    .@@@@.
    ....@.
    .@@@..
    ......
    ......

u+003a:
colon:
    ......
    ......
    ......
    ......
    ......
    .@@...
    .@@...
    ......
    .@@...
    .@@...
    ......
    ......

u+003b:
semicolon:
    ......
    ......
    ......
    ......
    ......
    .@@...
    .@@...
    ......
    .@@...
    .@@...
    @@....
    ......

u+003c:
less:
    ......
    ......
    ......
    ......
    ...@..
    ..@...
    .@....
    ..@...
    ...@..
    ......
    ......
    ......

u+003d:
equal:
    ......
    ......
    ......
    ......
    ......
    @@@@@.
    ......
    @@@@@.
    ......
    ......
    ......
    ......

u+003e:
greater:
    ......
    ......
    ......
    ......
    .@....
    ..@...
    ...@..
    ..@...
    .@....
    ......
    ......
    ......

u+003f:
question:
    ......
    ......
    ......
    .@@@..
    @...@.
    ....@.
    ...@..
    ..@...
    ......
    ..@...
    ......
    ......

u+0040:
at:
    ......
    ......
    ......
    .@@@..
    @...@.
    @.@@@.
    @.@.@.
    @.@@@.
    @.....
    .@@@..
    ......
    ......

u+0041:
A:
    ......
    ......
    ......
    ..@@..
    ..@@..
    .@..@.
    .@..@.
    .@@@@.
    .@..@.
    @@..@@
    ......
    ......

u+0042:
B:
    ......
    ......
    ......
    @@@@..
    .@..@.
    .@..@.
    .@@@..
    .@..@.
    .@..@.
    @@@@..
    ......
    ......

u+0043:
C:
    ......
    ......
    ......
    .@@@..
    @..@..
    @.....
    @.....
    @.....
    @...@.
    .@@@..
    ......
    ......

u+0044:
D:
    ......
    ......
    ......
    @@@@..
    .@..@.
    .@..@.
    .@..@.
    .@..@.
    .@..@.
    @@@@..
    ......
    ......

u+0045:
E:
    ......
    ......
    ......
    @@@@@.
    .@..@.
    .@....
    .@@@..
    .@....
    .@...@
    @@@@@.
    ......
    ......

u+0046:
F:
    ......
    ......
    ......
    @@@@@.
    .@..@.
    .@....
    .@@@..
    .@....
    .@....
    @@....
    ......
    ......

u+0047:
G:
    ......
    ......
    ......
    .@@.@.
    @..@@.
    @.....
    @..@@@
    @...@.
    @...@.
    .@@@@.
    ......
    ......

u+0048:
H:
    ......
    ......
    ......
    @@..@@
    .@..@.
    .@..@.
    .@@@@.
    .@..@.
    .@..@.
    @@..@@
    ......
    ......

u+0049:
I:
    ......
    ......
    ......
    .@@@..
    ..@...
    ..@...
    ..@...
    ..@...
    ..@...
    .@@@..
    ......
    ......

u+004a:
J:
    ......
    ......
    ......
    ..@@@.
    ...@..
    ...@..
    ...@..
    @@.@..
    @..@..
    .@@...
    ......
    ......

u+004b:
K:
    ......
    ......
    ......
    @@.@@.
    .@.@..
    .@@...
    .@....
    .@@...
    .@.@..
    @@.@@.
    ......
    ......

u+004c:
L:
    ......
    ......
    ......
    @@@...
    .@....
    .@....
    .@....
    .@....
    .@..@.
    @@@@@.
    ......
    ......

u+004d:
M:
    ......
    ......
    ......
    @...@.
    @@.@@.
    @.@.@.
    @.@.@.
    @...@.
    @...@.
    @@.@@.
    ......
    ......

u+004e:
N:
    ......
    ......
    ......
    @..@@.
    @@..@.
    @.@.@.
    @..@@.
    @...@.
    @...@.
    @@.@@.
    ......
    ......

u+004f:
O:
    ......
    ......
    ......
    .@@@..
    @...@.
    @...@.
    @...@.
    @...@.
    @...@.
    .@@@..
    ......
    ......

u+0050:
P:
    ......
    ......
    ......
    @@@@..
    .@..@.
    .@..@.
    .@@@..
    .@....
    .@....
    @@@...
    ......
    ......

u+0051:
Q:
    ......
    ......
    ......
    .@@@..
    @...@.
    @...@.
    @...@.
    @...@.
    @.@.@.
    .@@@..
    ....@@
    ......

u+0052:
R:
    ......
    ......
    ......
    @@@@..
    .@..@.
    .@..@.
    .@@@..
    .@..@.
    .@..@.
    @@@.@@
    ......
    ......

u+0053:
S:
    ......
    ......
    ......
    .@@.@.
    @..@@.
    @.....
    .@@@..
    ....@.
    @...@.
    @@@@..
    ......
    ......

u+0054:
T:
    ......
    ......
    ......
    @@@@@.
    @.@.@.
    ..@...
    ..@...
    ..@...
    ..@...
    .@@@..
    ......
    ......

u+0055:
U:
    ......
    ......
    ......
    @@..@@
    .@..@.
    .@..@.
    .@..@.
    .@..@.
    .@..@.
    ..@@..
    ......
    ......

u+0056:
V:
    ......
    ......
    ......
    @@.@@.
    @...@.
    @...@.
    @...@.
    .@.@..
    .@.@..
    ..@...
    ......
    ......

u+0057:
W:
    ......
    ......
    ......
    @@.@@.
    @...@.
    @...@.
    @.@.@.
    @.@.@.
    @.@.@.
    @@.@@.
    ......
    ......

u+0058:
X:
    ......
    ......
    ......
    @@.@@.
    .@.@..
    .@.@..
    ..@...
    .@.@..
    .@.@..
    @@.@@.
    ......
    ......

u+0059:
Y:
    ......
    ......
    ......
    @@.@@.
    .@.@..
    .@.@..
    .@@@..
    ..@...
    ..@...
    ..@...
    ......
    ......

u+005a:
Z:
    ......
    ......
    ......
    @@@@@.
    @...@.
    ...@..
    ..@...
    .@....
    @...@.
    @@@@@.
    ......
    ......

u+005b:
bracketleft:
    ......
    ......
    .@@@..
    .@....
    .@....
    .@....
    .@....
    .@....
    .@....
    .@....
    .@@@..
    ......

u+005c:
backslash:
    ......
    ......
    ......
    @.....
    @.....
    .@....
    ..@...
    ...@..
    ....@.
    ....@.
    ......
    ......

u+005d:
bracketright:
    ......
    ......
    .@@@..
    ...@..
    ...@..
    ...@..
    ...@..
    ...@..
    ...@..
    ...@..
    .@@@..
    ......

u+005e:
asciicircum:
    ......
    ......
    ..@...
    .@.@..
    @...@.
    ......
    ......
    ......
    ......
    ......
    ......
    ......

u+005f:
underscore:
    ......
    ......
    ......
    ......
    ......
    ......
    ......
    ......
    ......
    ......
    @@@@@.
    ......

u+0060:
grave:
    ......
    ......
    .@....
    ..@...
    ...@..
    ......
    ......
    ......
    ......
    ......
    ......
    ......

u+0061:
a:
    ......
    ......
    ......
    ......
    ......
    .@@...
    @..@..
    .@@@..
    @..@..
    .@@@@.
    ......
    ......

u+0062:
b:
    ......
    ......
    ......
    @@....
    .@....
    .@@@..
    .@..@.
    .@..@.
    .@..@.
    @.@@..
    ......
    ......

u+0063:
c:
    ......
    ......
    ......
    ......
    ......
    .@@@..
    @..@..
    @.....
    @...@.
    .@@@..
    ......
    ......

u+0064:
d:
    ......
    ......
    ......
    ..@@..
    ...@..
    .@@@..
    @..@..
    @..@..
    @..@..
    .@@.@.
    ......
    ......

u+0065:
e:
    ......
    ......
    ......
    ......
    ......
    .@@...
    @..@..
    @@@@..
    @...@.
    .@@@..
    ......
    ......

u+0066:
f:
    ......
    ......
    ...@@.
    ..@.@.
    ..@...
    .@@@..
    ..@...
    ..@...
    ..@...
    .@@@..
    ......
    ......

u+0067:
g:
    ......
    ......
    ......
    ......
    ......
    .@@.@.
    @..@..
    @..@..
    @..@..
    .@@@..
    @..@..
    @@@@..

u+0068:
h:
    ......
    ......
    ......
    @@....
    .@....
    .@@@..
    .@..@.
    .@..@.
    .@..@.
    @@@.@@
    ......
    ......

u+0069:
i:
    ......
    ......
    ......
    ..@...
    ......
    .@@...
    ..@...
    ..@...
    ..@...
    .@@@..
    ......
    ......

u+006a:
j:
    ......
    ......
    ......
    ...@..
    ......
    ..@@..
    ...@..
    ...@..
    ...@..
    ...@..
    @..@..
    .@@...

u+006b:
k:
    ......
    ......
    ......
    @@....
    .@....
    .@.@@.
    .@.@..
    .@@...
    .@.@..
    @@.@@.
    ......
    ......

u+006c:
l:
    ......
    ......
    ......
    .@@...
    ..@...
    ..@...
    ..@...
    ..@...
    ..@...
    .@@@..
    ......
    ......

u+006d:
m:
    ......
    ......
    ......
    ......
    ......
    @@.@..
    @.@.@.
    @.@.@.
    @.@.@.
    @.@.@@
    ......
    ......

u+006e:
n:
    ......
    ......
    ......
    ......
    ......
    @.@@..
    .@..@.
    .@..@.
    .@..@.
    .@..@@
    ......
    ......

u+006f:
o:
    ......
    ......
    ......
    ......
    ......
    .@@@..
    @...@.
    @...@.
    @...@.
    .@@@..
    ......
    ......

u+0070:
p:
    ......
    ......
    ......
    ......
    ......
    @@@@..
    .@..@.
    .@..@.
    .@..@.
    .@@@..
    .@....
    @@@...

u+0071:
q:
    ......
    ......
    ......
    ......
    ......
    .@@@@.
    @..@..
    @..@..
    @.@@..
    .@.@..
    ...@..
    ...@@.

u+0072:
r:
    ......
    ......
    ......
    ......
    ......
    @@.@..
    .@@.@.
    .@....
    .@....
    @@@...
    ......
    ......

u+0073:
s:
    ......
    ......
    ......
    ......
    ......
    .@@@..
    @.....
    .@@@..
    ....@.
    @@@@..
    ......
    ......

u+0074:
t:
    ......
    ......
    ......
    ..@...
    ..@...
    .@@@..
    ..@...
    ..@...
    ..@.@.
    ...@..
    ......
    ......

u+0075:
u:
    ......
    ......
    ......
    ......
    ......
    @..@..
    @..@..
    @..@..
    @..@..
    .@@.@.
    ......
    ......

u+0076:
v:
    ......
    ......
    ......
    ......
    ......
    @@.@@.
    @...@.
    .@.@..
    .@.@..
    ..@...
    ......
    ......

u+0077:
w:
    ......
    ......
    ......
    ......
    ......
    @.@.@@
    @.@.@.
    @.@.@.
    @.@.@.
    .@.@..
    ......
    ......

u+0078:
x:
    ......
    ......
    ......
    ......
    ......
    @@.@@.
    .@.@..
    ..@...
    .@.@..
    @@.@@.
    ......
    ......

u+0079:
y:
    ......
    ......
    ......
    ......
    ......
    @@.@@.
    @...@.
    .@.@..
    .@.@..
    ..@...
    ..@...
    @@....

u+007a:
z:
    ......
    ......
    ......
    ......
    ......
    @@@@@.
    @..@..
    ..@...
    .@..@.
    @@@@@.
    ......
    ......

u+007b:
braceleft:
    ......
    ......
    ...@..
    ..@...
    ..@...
    ..@...
    @@....
    ..@...
    ..@...
    ..@...
    ...@..
    ......

u+007c:
bar:
    ......
    ......
    ..@...
    ..@...
    ..@...
    ..@...
    ..@...
    ..@...
    ..@...
    ..@...
    ..@...
    ......

u+007d:
braceright:
    ......
    ......
    .@....
    ..@...
    ..@...
    ..@...
    ...@@.
    ..@...
    ..@...
    ..@...
    .@....
    ......

u+007e:
asciitilde:
    ......
    ......
    ......
    ......
    ......
    .@..@.
    @.@.@.
    @..@..
    ......
    ......
    ......
    ......

u+00a0:
space:
    ......
    ......
    ......
    ......
    ......
    ......
    ......
    ......
    ......
    ......
    ......
    ......

u+00a1:
exclamdown:
    ......
    ......
    ......
    ..@...
    ......
    ..@...
    ..@...
    ..@...
    ..@...
    ..@...
    ......
    ......

u+00a2:
cent:
    ......
    ......
    ......
    ......
    ..@...
    .@@@..
    @.@.@.
    @.@...
    @.@.@.
    .@@@..
    ..@...
    ......

u+00a3:
sterling:
    ......
    ......
    ......
    ..@@..
    .@..@.
    .@....
    @@@...
    .@....
    .@..@.
    @.@@..
    ......
    ......

u+00a4:
currency:
    ......
    ......
    ......
    ......
    ......
    @.@.@.
    .@.@..
    @...@.
    .@.@..
    @.@.@.
    ......
    ......

u+00a5:
yen:
    ......
    ......
    ......
    @...@.
    .@.@..
    @@@@@.
    ..@...
    @@@@@.
    ..@...
    ..@...
    ......
    ......

u+00a6:
brokenbar:
    ......
    ......
    ......
    ..@...
    ..@...
    ..@...
    ......
    ..@...
    ..@...
    ..@...
    ......
    ......

u+00a7:
section:
    ......
    ......
    ..@@@.
    .@....
    ..@@..
    .@..@.
    .@..@.
    ..@@..
    ....@.
    .@@@..
    ......
    ......

u+00a8:
dieresis:
    ......
    ......
    .@.@..
    ......
    ......
    ......
    ......
    ......
    ......
    ......
    ......
    ......

u+00a9:
copyright:
    ......
    ......
    ......
    .@@@@.
    @....@
    @..@.@
    @.@..@
    @..@.@
    @....@
    .@@@@.
    ......
    ......

u+00aa:
ordfeminine:
    ......
    ..@@..
    .@.@..
    ..@@..
    ......
    .@@@..
    ......
    ......
    ......
    ......
    ......
    ......

u+00ab:
guillemotleft:
    ......
    ......
    ......
    ......
    ......
    ..@.@.
    .@.@..
    @.@...
    .@.@..
    ..@.@.
    ......
    ......

u+00ac:
logicalnot:
    ......
    ......
    ......
    ......
    ......
    ......
    @@@@@.
    ....@.
    ....@.
    ......
    ......
    ......

u+00ad:
hyphen:
    ......
    ......
    ......
    ......
    ......
    ......
    .@@@..
    ......
    ......
    ......
    ......
    ......

u+00ae:
registered:
    ......
    ......
    ......
    .@@@@.
    @....@
    @.@@.@
    @.@..@
    @.@..@
    @....@
    .@@@@.
    ......
    ......

u+00af:
macron:
    ......
    ......
    @@@@@.
    ......
    ......
    ......
    ......
    ......
    ......
    ......
    ......
    ......

u+00b0:
degree:
    ......
    ..@@..
    .@..@.
    .@..@.
    ..@@..
    ......
    ......
    ......
    ......
    ......
    ......
    ......

u+00b1:
plusminus:
    ......
    ......
    ......
    ..@...
    ..@...
    @@@@@.
    ..@...
    ..@...
    ......
    @@@@@.
    ......
    ......

u+00b2:
twosuperior:
    ..@...
    .@.@..
    ...@..
    ..@...
    .@@@..
    ......
    ......
    ......
    ......
    ......
    ......
    ......

u+00b3:
threesuperior:
    .@@...
    ...@..
    ..@...
    ...@..
    .@@...
    ......
    ......
    ......
    ......
    ......
    ......
    ......

u+00b4:
acute:
    ......
    ......
    ...@..
    ..@...
    .@....
    ......
    ......
    ......
    ......
    ......
    ......
    ......

u+00b5:
mu:
    ......
    ......
    ......
    ......
    ......
    @...@.
    @...@.
    @...@.
    @..@@.
    @@@.@.
    @.....
    @.....

u+00b6:
paragraph:
    ......
    ......
    .@@@@.
    @@@.@.
    @@@.@.
    @@@.@.
    .@@.@.
    ..@.@.
    ..@.@.
    ..@.@.
    ......
    ......

u+00b7:
periodcentered:
    ......
    ......
    ......
    ......
    ......
    ..@@..
    ..@@..
    ......
    ......
    ......
    ......
    ......

u+00b8:
cedilla:
    ......
    ......
    ......
    ......
    ......
    ......
    ......
    ......
    ......
    ......
    ...@..
    .@@...

u+00b9:
onesuperior:
    ..@...
    .@@...
    ..@...
    ..@...
    .@@@..
    ......
    ......
    ......
    ......
    ......
    ......
    ......

u+00ba:
ordmasculine:
    ..@...
    .@.@..
    ..@...
    ......
    .@@@..
    ......
    ......
    ......
    ......
    ......
    ......
    ......

u+00bb:
guillemotright:
    ......
    ......
    ......
    ......
    ......
    @.@...
    .@.@..
    ..@.@.
    .@.@..
    @.@...
    ......
    ......

u+00bc:
onequarter:
    .@....
    @@....
    .@....
    .@....
    .@.@..
    ..@@..
    .@.@..
    .@@@@.
    ...@..
    ...@..
    ......
    ......

u+00bd:
onehalf:
    .@....
    @@....
    .@....
    .@....
    .@.@..
    ..@.@.
    ....@.
    ...@..
    ..@...
    ..@@@.
    ......
    ......

u+00be:
threequarters:
    @@....
    ..@...
    .@....
    ..@...
    @@.@..
    ..@@..
    .@.@..
    .@@@@.
    ...@..
    ...@..
    ......
    ......

u+00bf:
questiondown:
    ......
    ......
    ......
    ..@...
    ......
    ..@...
    ..@...
    .@....
    @...@.
    .@@@..
    ......
    ......

u+00c0:
Agrave:
    .@....
    ..@...
    ......
    .@@@..
    @...@.
    @...@.
    @@@@@.
    @...@.
    @...@.
    @...@.
    ......
    ......

u+00c1:
Aacute:
    ...@..
    ..@...
    ......
    .@@@..
    @...@.
    @...@.
    @@@@@.
    @...@.
    @...@.
    @...@.
    ......
    ......

u+00c2:
Acircumflex:
    ..@...
    .@.@..
    ......
    .@@@..
    @...@.
    @...@.
    @@@@@.
    @...@.
    @...@.
    @...@.
    ......
    ......

u+00c3:
Atilde:
    .@@.@.
    @.@@..
    ......
    .@@@..
    @...@.
    @...@.
    @@@@@.
    @...@.
    @...@.
    @...@.
    ......
    ......

u+00c4:
Adieresis:
    ......
    .@.@..
    ......
    .@@@..
    @...@.
    @...@.
    @@@@@.
    @...@.
    @...@.
    @...@.
    ......
    ......

u+00c5:
Aring:
    ..@...
    .@.@..
    ..@...
    .@@@..
    @...@.
    @...@.
    @@@@@.
    @...@.
    @...@.
    @...@.
    ......
    ......

u+00c6:
AE:
    ......
    ......
    ......
    .@@@@.
    @.@...
    @.@...
    @@@@..
    @.@...
    @.@...
    @.@@@.
    ......
    ......

u+00c7:
Ccedilla:
    ......
    ......
    ......
    .@@@..
    @...@.
    @.....
    @.....
    @.....
    @...@.
    .@@@..
    ...@..
    .@@...

u+00c8:
Egrave:
    .@....
    ..@...
    ......
    @@@@@.
    @.....
    @.....
    @@@@..
    @.....
    @.....
    @@@@@.
    ......
    ......

u+00c9:
Eacute:
    ...@..
    ..@...
    ......
    @@@@@.
    @.....
    @.....
    @@@@..
    @.....
    @.....
    @@@@@.
    ......
    ......

u+00ca:
Ecircumflex:
    ..@...
    .@.@..
    ......
    @@@@@.
    @.....
    @.....
    @@@@..
    @.....
    @.....
    @@@@@.
    ......
    ......

u+00cb:
Edieresis:
    ......
    .@.@..
    ......
    @@@@@.
    @.....
    @.....
    @@@@..
    @.....
    @.....
    @@@@@.
    ......
    ......

u+00cc:
Igrave:
    .@....
    ..@...
    ......
    .@@@..
    ..@...
    ..@...
    ..@...
    ..@...
    ..@...
    .@@@..
    ......
    ......

u+00cd:
Iacute:
    ...@..
    ..@...
    ......
    .@@@..
    ..@...
    ..@...
    ..@...
    ..@...
    ..@...
    .@@@..
    ......
    ......

u+00ce:
Icircumflex:
    ..@...
    .@.@..
    ......
    .@@@..
    ..@...
    ..@...
    ..@...
    ..@...
    ..@...
    .@@@..
    ......
    ......

u+00cf:
Idieresis:
    ......
    .@.@..
    ......
    .@@@..
    ..@...
    ..@...
    ..@...
    ..@...
    ..@...
    .@@@..
    ......
    ......

u+00d0:
Eth:
    ......
    ......
    ......
    .@@@..
    .@..@.
    .@..@.
    @@@.@.
    .@..@.
    .@..@.
    .@@@..
    ......
    ......

u+00d1:
Ntilde:
    .@@.@.
    @.@@..
    ......
    @...@.
    @...@.
    @@..@.
    @.@.@.
    @..@@.
    @...@.
    @...@.
    ......
    ......

u+00d2:
Ograve:
    .@....
    ..@...
    ......
    .@@@..
    @...@.
    @...@.
    @...@.
    @...@.
    @...@.
    .@@@..
    ......
    ......

u+00d3:
Oacute:
    ...@..
    ..@...
    ......
    .@@@..
    @...@.
    @...@.
    @...@.
    @...@.
    @...@.
    .@@@..
    ......
    ......

u+00d4:
Ocircumflex:
    ..@...
    .@.@..
    ......
    .@@@..
    @...@.
    @...@.
    @...@.
    @...@.
    @...@.
    .@@@..
    ......
    ......

u+00d5:
Otilde:
    .@@.@.
    @.@@..
    ......
    .@@@..
    @...@.
    @...@.
    @...@.
    @...@.
    @...@.
    .@@@..
    ......
    ......

u+00d6:
Odieresis:
    ......
    .@.@..
    ......
    .@@@..
    @...@.
    @...@.
    @...@.
    @...@.
    @...@.
    .@@@..
    ......
    ......

u+00d7:
multiply:
    ......
    ......
    ......
    ......
    @...@.
    .@.@..
    ..@...
    .@.@..
    @...@.
    ......
    ......
    ......

u+00d8:
Oslash:
    ......
    ......
    ....@.
    .@@@..
    @..@@.
    @.@.@.
    @.@.@.
    @.@.@.
    @@..@.
    .@@@..
    @.....
    ......

u+00d9:
Ugrave:
    .@....
    ..@...
    ......
    @...@.
    @...@.
    @...@.
    @...@.
    @...@.
    @...@.
    .@@@..
    ......
    ......

u+00da:
Uacute:
    ...@..
    ..@...
    ......
    @...@.
    @...@.
    @...@.
    @...@.
    @...@.
    @...@.
    .@@@..
    ......
    ......

u+00db:
Ucircumflex:
    ..@...
    .@.@..
    ......
    @...@.
    @...@.
    @...@.
    @...@.
    @...@.
    @...@.
    .@@@..
    ......
    ......

u+00dc:
Udieresis:
    ......
    .@.@..
    ......
    @...@.
    @...@.
    @...@.
    @...@.
    @...@.
    @...@.
    .@@@..
    ......
    ......

u+00dd:
Yacute:
    ...@..
    ..@...
    ......
    @...@.
    @...@.
    .@.@..
    ..@...
    ..@...
    ..@...
    ..@...
    ......
    ......

u+00de:
Thorn:
    ......
    ......
    ......
    .@....
    .@@@..
    .@..@.
    .@..@.
    .@..@.
    .@@@..
    .@....
    ......
    ......

u+00df:
germandbls:
    ......
    ......
    ......
    .@@@..
    @...@.
    @..@..
    @.@...
    @..@..
    @...@.
    @.@@..
    ......
    ......

u+00e0:
agrave:
    ......
    ......
    .@....
    ..@...
    ......
    .@@@..
    ....@.
    .@@@@.
    @...@.
    .@@@@.
    ......
    ......

u+00e1:
aacute:
    ......
    ......
    ...@..
    ..@...
    ......
    .@@@..
    ....@.
    .@@@@.
    @...@.
    .@@@@.
    ......
    ......

u+00e2:
acircumflex:
    ......
    ......
    ..@...
    .@.@..
    ......
    .@@@..
    ....@.
    .@@@@.
    @...@.
    .@@@@.
    ......
    ......

u+00e3:
atilde:
    ......
    ......
    .@@.@.
    @.@@..
    ......
    .@@@..
    ....@.
    .@@@@.
    @...@.
    .@@@@.
    ......
    ......

u+00e4:
adieresis:
    ......
    ......
    ......
    .@.@..
    ......
    .@@@..
    ....@.
    .@@@@.
    @...@.
    .@@@@.
    ......
    ......

u+00e5:
aring:
    ......
    ......
    ..@...
    .@.@..
    ..@...
    .@@@..
    ....@.
    .@@@@.
    @...@.
    .@@@@.
    ......
    ......

u+00e6:
ae:
    ......
    ......
    ......
    ......
    ......
    .@@@..
    ..@.@.
    .@@@..
    @.@...
    .@@@@.
    ......
    ......

u+00e7:
ccedilla:
    ......
    ......
    ......
    ......
    ......
    .@@@..
    @...@.
    @.....
    @...@.
    .@@@..
    ...@..
    .@@...

u+00e8:
egrave:
    ......
    ......
    .@....
    ..@...
    ......
    .@@@..
    @...@.
    @@@@..
    @.....
    .@@@..
    ......
    ......

u+00e9:
eacute:
    ......
    ......
    ...@..
    ..@...
    ......
    .@@@..
    @...@.
    @@@@..
    @.....
    .@@@..
    ......
    ......

u+00ea:
ecircumflex:
    ......
    ......
    ..@...
    .@.@..
    ......
    .@@@..
    @...@.
    @@@@..
    @.....
    .@@@..
    ......
    ......

u+00eb:
edieresis:
    ......
    ......
    ......
    .@.@..
    ......
    .@@@..
    @...@.
    @@@@..
    @.....
    .@@@..
    ......
    ......

u+00ec:
igrave:
    ......
    ......
    .@....
    ..@...
    ......
    .@@...
    ..@...
    ..@...
    ..@...
    .@@@..
    ......
    ......

u+00ed:
iacute:
    ......
    ......
    ...@..
    ..@...
    ......
    .@@...
    ..@...
    ..@...
    ..@...
    .@@@..
    ......
    ......

u+00ee:
icircumflex:
    ......
    ......
    ..@...
    .@.@..
    ......
    .@@...
    ..@...
    ..@...
    ..@...
    .@@@..
    ......
    ......

u+00ef:
idieresis:
    ......
    ......
    ......
    .@.@..
    ......
    .@@...
    ..@...
    ..@...
    ..@...
    .@@@..
    ......
    ......

u+00f0:
eth:
    ......
    .@.@..
    ..@...
    .@.@..
    ....@.
    .@@@@.
    @...@.
    @...@.
    @...@.
    .@@@..
    ......
    ......

u+00f1:
ntilde:
    ......
    ......
    .@@.@.
    @.@@..
    ......
    @.@@..
    @@..@.
    @...@.
    @...@.
    @...@.
    ......
    ......

u+00f2:
ograve:
    ......
    ......
    .@....
    ..@...
    ......
    .@@@..
    @...@.
    @...@.
    @...@.
    .@@@..
    ......
    ......

u+00f3:
oacute:
    ......
    ......
    ...@..
    ..@...
    ......
    .@@@..
    @...@.
    @...@.
    @...@.
    .@@@..
    ......
    ......

u+00f4:
ocircumflex:
    ......
    ......
    ..@...
    .@.@..
    ......
    .@@@..
    @...@.
    @...@.
    @...@.
    .@@@..
    ......
    ......

u+00f5:
otilde:
    ......
    ......
    .@@.@.
    @.@@..
    ......
    .@@@..
    @...@.
    @...@.
    @...@.
    .@@@..
    ......
    ......

u+00f6:
odieresis:
    ......
    ......
    ......
    .@.@..
    ......
    .@@@..
    @...@.
    @...@.
    @...@.
    .@@@..
    ......
    ......

u+00f7:
divide:
    ......
    ......
    ......
    ......
    ..@...
    ......
    @@@@@.
    ......
    ..@...
    ......
    ......
    ......

u+00f8:
oslash:
    ......
    ......
    ......
    ......
    ......
    .@@@@.
    @..@@.
    @.@.@.
    @@..@.
    @@@@..
    ......
    ......

u+00f9:
ugrave:
    ......
    ......
    .@....
    ..@...
    ......
    @...@.
    @...@.
    @...@.
    @...@.
    .@@@..
    ......
    ......

u+00fa:
uacute:
    ......
    ......
    ...@..
    ..@...
    ......
    @...@.
    @...@.
    @...@.
    @...@.
    .@@@..
    ......
    ......

u+00fb:
ucircumflex:
    ......
    ......
    ..@...
    .@.@..
    ......
    @...@.
    @...@.
    @...@.
    @...@.
    .@@@..
    ......
    ......

u+00fc:
udieresis:
    ......
    ......
    ......
    .@.@..
    ......
    @...@.
    @...@.
    @...@.
    @...@.
    .@@@..
    ......
    ......

u+00fd:
yacute:
    ......
    ......
    ...@..
    ..@...
    ......
    @...@.
    @...@.
    @...@.
    .@.@..
    ..@...
    .@....
    @.....

u+00fe:
thorn:
    ......
    ......
    ......
    @.....
    @.....
    @@@@..
    @...@.
    @...@.
    @...@.
    @@@@..
    @.....
    @.....

u+00ff:
ydieresis:
    ......
    ......
    ......
    .@.@..
    ......
    @...@.
    @...@.
    @...@.
    .@.@..
    ..@...
    .@....
    @.....

u+0100:
Amacron:
    ......
    .@@@..
    ......
    .@@@..
    @...@.
    @...@.
    @@@@@.
    @...@.
    @...@.
    @...@.
    ......
    ......

u+0101:
amacron:
    ......
    ......
    ......
    .@@@..
    ......
    .@@@..
    ....@.
    .@@@@.
    @...@.
    .@@@@.
    ......
    ......

u+0102:
Abreve:
    @...@.
    .@@@..
    ......
    .@@@..
    @...@.
    @...@.
    @@@@@.
    @...@.
    @...@.
    @...@.
    ......
    ......

u+0103:
abreve:
    ......
    ......
    @...@.
    .@@@..
    ......
    .@@@..
    ....@.
    .@@@@.
    @...@.
    .@@@@.
    ......
    ......

u+0104:
Aogonek:
    ......
    ......
    ......
    .@@@..
    @...@.
    @...@.
    @@@@@.
    @...@.
    @...@.
    @...@.
    ...@..
    ....@.

u+0105:
aogonek:
    ......
    ......
    ......
    ......
    ......
    .@@@..
    ....@.
    .@@@@.
    @...@.
    .@@@@.
    ..@...
    ..@@..

u+0106:
Cacute:
    ...@..
    ..@...
    ......
    .@@@..
    @...@.
    @.....
    @.....
    @.....
    @...@.
    .@@@..
    ......
    ......

u+0107:
cacute:
    ......
    ......
    ...@..
    ..@...
    ......
    .@@@..
    @...@.
    @.....
    @...@.
    .@@@..
    ......
    ......

u+0108:
Ccircumflex:
    ..@...
    .@.@..
    ......
    .@@@..
    @...@.
    @.....
    @.....
    @.....
    @...@.
    .@@@..
    ......
    ......

u+0109:
ccircumflex:
    ......
    ......
    ..@...
    .@.@..
    ......
    .@@@..
    @...@.
    @.....
    @.....
    .@@@@.
    ......
    ......

u+010a:
Cdotaccent:
    ......
    ..@...
    ......
    .@@@..
    @...@.
    @.....
    @.....
    @.....
    @...@.
    .@@@..
    ......
    ......

u+010b:
cdotaccent:
    ......
    ......
    ......
    ..@...
    ......
    .@@@..
    @...@.
    @.....
    @...@.
    .@@@..
    ......
    ......

u+010c:
Ccaron:
    .@.@..
    ..@...
    ......
    .@@@..
    @...@.
    @.....
    @.....
    @.....
    @...@.
    .@@@..
    ......
    ......

u+010d:
ccaron:
    ......
    ......
    .@.@..
    ..@...
    ......
    .@@@..
    @...@.
    @.....
    @...@.
    .@@@..
    ......
    ......

u+010e:
Dcaron:
    .@.@..
    ..@...
    ......
    @@@@..
    .@..@.
    .@..@.
    .@..@.
    .@..@.
    .@..@.
    @@@@..
    ......
    ......

u+010f:
dcaron:
    ...@.@
    ....@.
    ......
    ....@.
    ....@.
    .@@@@.
    @...@.
    @...@.
    @...@.
    .@@@@.
    ......
    ......

u+0110:
Dcroat:
    ......
    ......
    ......
    @@@@..
    .@..@.
    .@..@.
    @@@.@.
    .@..@.
    .@..@.
    @@@@..
    ......
    ......

u+0111:
dcroat:
    ......
    ......
    ....@.
    ...@@@
    ....@.
    .@@@@.
    @...@.
    @...@.
    @...@.
    .@@@@.
    ......
    ......

u+0112:
Emacron:
    ......
    .@@@..
    ......
    @@@@@.
    @.....
    @.....
    @@@@..
    @.....
    @.....
    @@@@@.
    ......
    ......

u+0113:
emacron:
    ......
    ......
    ......
    .@@@..
    ......
    .@@@..
    @...@.
    @@@@..
    @.....
    .@@@..
    ......
    ......

u+0114:
Ebreve:
    @...@.
    .@@@..
    ......
    @@@@@.
    @.....
    @.....
    @@@@..
    @.....
    @.....
    @@@@@.
    ......
    ......

u+0115:
ebreve:
    ......
    ......
    @...@.
    .@@@..
    ......
    .@@@..
    @...@.
    @@@@..
    @.....
    .@@@..
    ......
    ......

u+0116:
Edotaccent:
    ......
    ..@...
    ......
    @@@@@.
    @.....
    @.....
    @@@@..
    @.....
    @.....
    @@@@@.
    ......
    ......

u+0117:
edotaccent:
    ......
    ......
    ......
    ..@...
    ......
    .@@@..
    @...@.
    @@@@..
    @.....
    .@@@..
    ......
    ......

u+0118:
Eogonek:
    ......
    ......
    ......
    @@@@@.
    @.....
    @.....
    @@@@..
    @.....
    @.....
    @@@@@.
    ..@...
    ..@@..

u+0119:
eogonek:
    ......
    ......
    ......
    ......
    ......
    .@@@..
    @...@.
    @@@@..
    @.....
    .@@@..
    ..@...
    ..@@..

u+011a:
Ecaron:
    .@.@..
    ..@...
    ......
    @@@@@.
    @.....
    @.....
    @@@@..
    @.....
    @.....
    @@@@@.
    ......
    ......

u+011b:
ecaron:
    ......
    ......
    .@.@..
    ..@...
    ......
    .@@@..
    @...@.
    @@@@..
    @.....
    .@@@..
    ......
    ......

u+011c:
Gcircumflex:
    ..@...
    .@.@..
    ......
    .@@@..
    @...@.
    @.....
    @..@@.
    @...@.
    @...@.
    .@@@..
    ......
    ......

u+011d:
gcircumflex:
    ......
    ......
    ..@...
    .@.@..
    ......
    .@@@..
    @...@.
    @...@.
    @...@.
    .@@@@.
    ....@.
    .@@@..

u+011e:
Gbreve:
    @...@.
    .@@@..
    ......
    .@@@..
    @...@.
    @.....
    @.....
    @..@@.
    @...@.
    .@@@..
    ......
    ......

u+011f:
gbreve:
    ......
    ......
    @...@.
    .@@@..
    ......
    .@@@..
    @...@.
    @...@.
    @...@.
    .@@@@.
    ....@.
    .@@@..

u+0120:
Gdotaccent:
    ......
    ..@...
    ......
    .@@@..
    @...@.
    @.....
    @.....
    @..@@.
    @...@.
    .@@@..
    ......
    ......

u+0121:
gdotaccent:
    ......
    ......
    ......
    ..@...
    ......
    .@@@..
    @...@.
    @...@.
    @...@.
    .@@@@.
    ....@.
    .@@@..

u+0122:
Gcommaaccent:
    ......
    ......
    ......
    .@@@..
    @...@.
    @.....
    @.....
    @..@@.
    @...@.
    .@@@..
    ...@..
    .@@...

u+0123:
gcommaaccent:
    ......
    ..@...
    .@....
    .@@...
    ......
    .@@@..
    @...@.
    @...@.
    @...@.
    .@@@@.
    ....@.
    .@@@..

u+0124:
Hcircumflex:
    ..@...
    .@.@..
    ......
    @...@.
    @...@.
    @...@.
    @@@@@.
    @...@.
    @...@.
    @...@.
    ......
    ......

u+0125:
hcircumflex:
    ..@...
    .@.@..
    ......
    @.....
    @.....
    @@@@..
    @...@.
    @...@.
    @...@.
    @...@.
    ......
    ......

u+0126:
Hbar:
    ......
    ......
    ......
    .@..@.
    @@@@@@
    .@..@.
    .@@@@.
    .@..@.
    .@..@.
    .@..@.
    ......
    ......

u+0127:
hbar:
    ......
    ......
    ......
    .@....
    @@@@..
    .@....
    .@@@..
    .@..@.
    .@..@.
    .@..@.
    ......
    ......

u+0128:
Itilde:
    ..@.@.
    .@.@..
    ......
    .@@@..
    ..@...
    ..@...
    ..@...
    ..@...
    ..@...
    .@@@..
    ......
    ......

u+0129:
itilde:
    ......
    ......
    .@.@..
    @.@...
    ......
    .@@...
    ..@...
    ..@...
    ..@...
    .@@@..
    ......
    ......

u+012a:
Imacron:
    ......
    .@@@..
    ......
    .@@@..
    ..@...
    ..@...
    ..@...
    ..@...
    ..@...
    .@@@..
    ......
    ......

u+012b:
imacron:
    ......
    ......
    ......
    .@@@..
    ......
    .@@...
    ..@...
    ..@...
    ..@...
    .@@@..
    ......
    ......

u+012c:
Ibreve:
    @...@.
    .@@@..
    ......
    .@@@..
    ..@...
    ..@...
    ..@...
    ..@...
    ..@...
    .@@@..
    ......
    ......

u+012d:
ibreve:
    ......
    ......
    @...@.
    .@@@..
    ......
    .@@...
    ..@...
    ..@...
    ..@...
    .@@@..
    ......
    ......

u+012e:
Iogonek:
    ......
    ......
    ......
    .@@@..
    ..@...
    ..@...
    ..@...
    ..@...
    ..@...
    .@@@..
    ..@...
    ..@@..

u+012f:
iogonek:
    ......
    ......
    ......
    ..@...
    ......
    .@@...
    ..@...
    ..@...
    ..@...
    .@@@..
    ..@...
    ..@@..

u+0130:
Idotaccent:
    ......
    ..@...
    ......
    .@@@..
    ..@...
    ..@...
    ..@...
    ..@...
    ..@...
    .@@@..
    ......
    ......

u+0131:
dotlessi:
    ......
    ......
    ......
    ......
    ......
    .@@...
    ..@...
    ..@...
    ..@...
    .@@@..
    ......
    ......

u+0132:
IJ:
    ......
    ......
    ......
    @..@@.
    @...@.
    @...@.
    @...@.
    @...@.
    @.@.@.
    @..@..
    ......
    ......

u+0133:
ij:
    ......
    ......
    ......
    @...@.
    ......
    @..@@.
    @...@.
    @...@.
    @...@.
    @...@.
    @...@.
    ..@@..

u+0134:
Jcircumflex:
    ...@..
    ..@.@.
    ......
    ...@..
    ...@..
    ...@..
    ...@..
    ...@..
    ...@..
    @@@...
    ......
    ......

u+0135:
jcircumflex:
    ......
    ......
    ...@..
    ..@.@.
    ......
    ..@@..
    ...@..
    ...@..
    ...@..
    ...@..
    ...@..
    .@@...

u+0136:
Kcommaaccent:
    ......
    ......
    ......
    @...@.
    @..@..
    @.@...
    @@....
    @.@...
    @..@..
    @...@.
    ...@..
    .@@...

u+0137:
kcommaaccent:
    ......
    ......
    ......
    @.....
    @.....
    @...@.
    @..@..
    @@@...
    @..@..
    @...@.
    ...@..
    .@@...

u+0138:
kgreenlandic:
    ......
    ......
    ......
    ......
    ......
    .@..@.
    .@.@..
    .@@...
    .@.@..
    .@..@.
    ......
    ......

u+0139:
Lacute:
    ...@..
    ..@...
    ......
    @.....
    @.....
    @.....
    @.....
    @.....
    @.....
    @@@@@.
    ......
    ......

u+013a:
lacute:
    ...@..
    ..@...
    ......
    .@@...
    ..@...
    ..@...
    ..@...
    ..@...
    ..@...
    .@@@..
    ......
    ......

u+013b:
Lcommaaccent:
    ......
    ......
    ......
    @.....
    @.....
    @.....
    @.....
    @.....
    @.....
    @@@@@.
    ...@..
    .@@...

u+013c:
lcommaaccent:
    ......
    ......
    ......
    .@@...
    ..@...
    ..@...
    ..@...
    ..@...
    ..@...
    .@@@..
    ...@..
    .@@...

u+013d:
Lcaron:
    .@.@..
    ..@...
    ......
    @.....
    @.....
    @.....
    @.....
    @.....
    @.....
    @@@@@.
    ......
    ......

u+013e:
lcaron:
    .@.@..
    ..@...
    ......
    .@@...
    ..@...
    ..@...
    ..@...
    ..@...
    ..@...
    .@@@..
    ......
    ......

u+013f:
Ldot:
    ......
    ......
    ......
    @.....
    @.....
    @.....
    @..@..
    @.....
    @.....
    @@@@@.
    ......
    ......

u+0140:
ldot:
    ......
    ......
    ......
    .@@...
    ..@...
    ..@...
    ..@.@.
    ..@...
    ..@...
    .@@@..
    ......
    ......

u+0141:
Lslash:
    ......
    ......
    ......
    .@....
    .@....
    .@@...
    @@....
    .@....
    .@....
    .@@@@.
    ......
    ......

u+0142:
lslash:
    ......
    ......
    ......
    .@@...
    ..@...
    ..@@..
    .@@...
    ..@...
    ..@...
    .@@@..
    ......
    ......

u+0143:
Nacute:
    ...@..
    ..@...
    ......
    @...@.
    @...@.
    @@..@.
    @.@.@.
    @..@@.
    @...@.
    @...@.
    ......
    ......

u+0144:
nacute:
    ......
    ......
    ...@..
    ..@...
    ......
    @.@@..
    @@..@.
    @...@.
    @...@.
    @...@.
    ......
    ......

u+0145:
Ncommaaccent:
    ......
    ......
    ......
    @...@.
    @...@.
    @@..@.
    @.@.@.
    @..@@.
    @...@.
    @...@.
    ..@...
    .@....

u+0146:
ncommaaccent:
    ......
    ......
    ......
    ......
    ......
    @.@@..
    @@..@.
    @...@.
    @...@.
    @...@.
    ..@...
    .@....

u+0147:
Ncaron:
    .@.@..
    ..@...
    ......
    @...@.
    @...@.
    @@..@.
    @.@.@.
    @..@@.
    @...@.
    @...@.
    ......
    ......

u+0148:
ncaron:
    ......
    ......
    .@.@..
    ..@...
    ......
    @.@@..
    @@..@.
    @...@.
    @...@.
    @...@.
    ......
    ......

u+0149:
napostrophe:
    ......
    ......
    @@....
    .@....
    @.....
    .@.@..
    .@@.@.
    .@..@.
    .@..@.
    .@..@.
    ......
    ......

u+014a:
Eng:
    ......
    ......
    ......
    @...@.
    @...@.
    @@..@.
    @.@.@.
    @..@@.
    @...@.
    @...@.
    ....@.
    ..@@..

u+014b:
eng:
    ......
    ......
    ......
    ......
    ......
    @.@@..
    @@..@.
    @...@.
    @...@.
    @...@.
    ....@.
    ..@@..

u+014c:
Omacron:
    ......
    .@@@..
    ......
    .@@@..
    @...@.
    @...@.
    @...@.
    @...@.
    @...@.
    .@@@..
    ......
    ......

u+014d:
omacron:
    ......
    ......
    ......
    .@@@..
    ......
    .@@@..
    @...@.
    @...@.
    @...@.
    .@@@..
    ......
    ......

u+014e:
Obreve:
    @...@.
    .@@@..
    ......
    .@@@..
    @...@.
    @...@.
    @...@.
    @...@.
    @...@.
    .@@@..
    ......
    ......

u+014f:
obreve:
    ......
    ......
    @...@.
    .@@@..
    ......
    .@@@..
    @...@.
    @...@.
    @...@.
    .@@@..
    ......
    ......

u+0150:
Ohungarumlaut:
    .@..@.
    @..@..
    ......
    .@@@..
    @...@.
    @...@.
    @...@.
    @...@.
    @...@.
    .@@@..
    ......
    ......

u+0151:
ohungarumlaut:
    ......
    ......
    .@..@.
    @..@..
    ......
    .@@@..
    @...@.
    @...@.
    @...@.
    .@@@..
    ......
    ......

u+0152:
OE:
    ......
    ......
    ......
    .@@@@.
    @.@...
    @.@...
    @.@@..
    @.@...
    @.@...
    .@@@@.
    ......
    ......

u+0153:
oe:
    ......
    ......
    ......
    ......
    ......
    .@@@..
    @.@.@.
    @.@@..
    @.@...
    .@@@@.
    ......
    ......

u+0154:
Racute:
    ...@..
    ..@...
    ......
    @@@@..
    @...@.
    @...@.
    @@@@..
    @.@...
    @..@..
    @...@.
    ......
    ......

u+0155:
racute:
    ......
    ......
    ...@..
    ..@...
    ......
    @.@@..
    @@..@.
    @.....
    @.....
    @.....
    ......
    ......

u+0156:
Rcommaaccent:
    ......
    ......
    ......
    @@@@..
    @...@.
    @...@.
    @@@@..
    @.@...
    @..@..
    @...@.
    ..@...
    .@....

u+0157:
rcommaaccent:
    ......
    ......
    ......
    ......
    ......
    @.@@..
    @@..@.
    @.....
    @.....
    @.....
    ..@...
    .@....

u+0158:
Rcaron:
    .@.@..
    ..@...
    ......
    @@@@..
    @...@.
    @...@.
    @@@@..
    @.@...
    @..@..
    @...@.
    ......
    ......

u+0159:
rcaron:
    ......
    ......
    .@.@..
    ..@...
    ......
    @.@@..
    @@..@.
    @.....
    @.....
    @.....
    ......
    ......

u+015a:
Sacute:
    ...@..
    ..@...
    ......
    .@@@..
    @...@.
    @.....
    .@@@..
    ....@.
    @...@.
    .@@@..
    ......
    ......

u+015b:
sacute:
    ......
    ......
    ...@..
    ..@...
    ......
    .@@@@.
    @.....
    .@@@..
    ....@.
    @@@@..
    ......
    ......

u+015c:
Scircumflex:
    ..@...
    .@.@..
    ......
    .@@@..
    @...@.
    @.....
    .@@@..
    ....@.
    @...@.
    .@@@..
    ......
    ......

u+015d:
scircumflex:
    ......
    ......
    ..@...
    .@.@..
    ......
    .@@@@.
    @.....
    .@@@..
    ....@.
    @@@@..
    ......
    ......

u+015e:
Scedilla:
    ......
    ......
    ......
    .@@@..
    @...@.
    @.....
    .@@@..
    ....@.
    @...@.
    .@@@..
    ...@..
    .@@...

u+015f:
scedilla:
    ......
    ......
    ......
    ......
    ......
    .@@@@.
    @.....
    .@@@..
    ....@.
    @@@@..
    ...@..
    .@@...

u+0160:
Scaron:
    .@.@..
    ..@...
    ......
    .@@@..
    @...@.
    @.....
    .@@@..
    ....@.
    @...@.
    .@@@..
    ......
    ......

u+0161:
scaron:
    ......
    ......
    .@.@..
    ..@...
    ......
    .@@@@.
    @.....
    .@@@..
    ....@.
    @@@@..
    ......
    ......

u+0162:
Tcommaaccent:
    ......
    ......
    ......
    @@@@@.
    ..@...
    ..@...
    ..@...
    ..@...
    ..@...
    ..@...
    ...@..
    .@@...

u+0163:
tcommaaccent:
    ......
    ......
    ......
    ..@...
    ..@...
    @@@@@.
    ..@...
    ..@...
    ..@...
    ...@@.
    ....@.
    ..@@..

u+0164:
Tcaron:
    .@.@..
    ..@...
    ......
    @@@@@.
    ..@...
    ..@...
    ..@...
    ..@...
    ..@...
    ..@...
    ......
    ......

u+0165:
tcaron:
    .@.@..
    ..@...
    ......
    ..@...
    ..@...
    @@@@@.
    ..@...
    ..@...
    ..@...
    ...@@.
    ......
    ......

u+0166:
Tbar:
    ......
    ......
    ......
    @@@@@.
    ..@...
    @@@@@.
    ..@...
    ..@...
    ..@...
    ..@...
    ......
    ......

u+0167:
tbar:
    ......
    ......
    ......
    ..@...
    @@@@@.
    ..@...
    @@@@@.
    ..@...
    ..@...
    ...@@.
    ......
    ......

u+0168:
Utilde:
    .@@.@.
    @.@@..
    ......
    @...@.
    @...@.
    @...@.
    @...@.
    @...@.
    @...@.
    .@@@..
    ......
    ......

u+0169:
utilde:
    ......
    ......
    .@@.@.
    @.@@..
    ......
    @...@.
    @...@.
    @...@.
    @...@.
    .@@@..
    ......
    ......

u+016a:
Umacron:
    ......
    .@@@..
    ......
    @...@.
    @...@.
    @...@.
    @...@.
    @...@.
    @...@.
    .@@@..
    ......
    ......

u+016b:
umacron:
    ......
    ......
    ......
    .@@@..
    ......
    @...@.
    @...@.
    @...@.
    @...@.
    .@@@..
    ......
    ......

u+016c:
Ubreve:
    @...@.
    .@@@..
    ......
    @...@.
    @...@.
    @...@.
    @...@.
    @...@.
    @...@.
    .@@@..
    ......
    ......

u+016d:
ubreve:
    ......
    ......
    @...@.
    .@@@..
    ......
    @...@.
    @...@.
    @...@.
    @..@@.
    .@@.@.
    ......
    ......

u+016e:
Uring:
    ..@...
    .@.@..
    ..@...
    @...@.
    @...@.
    @...@.
    @...@.
    @...@.
    @...@.
    .@@@..
    ......
    ......

u+016f:
uring:
    ......
    ......
    ..@...
    .@.@..
    ..@...
    @...@.
    @...@.
    @...@.
    @...@.
    .@@@..
    ......
    ......

u+0170:
Uhungarumlaut:
    .@..@.
    @..@..
    ......
    @...@.
    @...@.
    @...@.
    @...@.
    @...@.
    @...@.
    .@@@..
    ......
    ......

u+0171:
uhungarumlaut:
    ......
    ......
    .@..@.
    @..@..
    ......
    @...@.
    @...@.
    @...@.
    @...@.
    .@@@..
    ......
    ......

u+0172:
Uogonek:
    ......
    ......
    ......
    @...@.
    @...@.
    @...@.
    @...@.
    @...@.
    @...@.
    .@@@..
    ..@...
    ..@@..

u+0173:
uogonek:
    ......
    ......
    ......
    ......
    ......
    @...@.
    @...@.
    @...@.
    @...@.
    .@@@..
    ..@...
    ..@@..

u+0174:
Wcircumflex:
    ..@...
    .@.@..
    ......
    @...@.
    @...@.
    @...@.
    @...@.
    @.@.@.
    @.@.@.
    .@.@..
    ......
    ......

u+0175:
wcircumflex:
    ......
    ......
    ..@...
    .@.@..
    ......
    @...@.
    @...@.
    @.@.@.
    @.@.@.
    .@.@..
    ......
    ......

u+0176:
Ycircumflex:
    ..@...
    .@.@..
    ......
    @...@.
    @...@.
    .@.@..
    ..@...
    ..@...
    ..@...
    ..@...
    ......
    ......

u+0177:
ycircumflex:
    ......
    ......
    ..@...
    .@.@..
    ......
    @...@.
    @...@.
    @...@.
    .@.@..
    ..@...
    .@....
    @.....

u+0178:
Ydieresis:
    ......
    .@.@..
    ......
    @...@.
    @...@.
    .@.@..
    ..@...
    ..@...
    ..@...
    ..@...
    ......
    ......

u+0179:
Zacute:
    ...@..
    ..@...
    ......
    @@@@@.
    ....@.
    ...@..
    ..@...
    .@....
    @.....
    @@@@@.
    ......
    ......

u+017a:
zacute:
    ......
    ......
    ...@..
    ..@...
    ......
    @@@@@.
    ...@..
    ..@...
    .@....
    @@@@@.
    ......
    ......

u+017b:
Zdotaccent:
    ......
    ..@...
    ......
    @@@@@.
    ....@.
    ...@..
    ..@...
    .@....
    @.....
    @@@@@.
    ......
    ......

u+017c:
zdotaccent:
    ......
    ......
    ......
    ..@...
    ......
    @@@@@.
    ...@..
    ..@...
    .@....
    @@@@@.
    ......
    ......

u+017d:
Zcaron:
    .@.@..
    ..@...
    ......
    @@@@@.
    ....@.
    ...@..
    ..@...
    .@....
    @.....
    @@@@@.
    ......
    ......

u+017e:
zcaron:
    ......
    ......
    .@.@..
    ..@...
    ......
    @@@@@.
    ...@..
    ..@...
    .@....
    @@@@@.
    ......
    ......

u+017f:
longs:
    ......
    ......
    ......
    ..@@..
    .@....
    .@....
    @@....
    .@....
    .@....
    .@....
    ......
    ......

u+0180:
uni0180:
    ......
    ......
    ......
    .@....
    @@@@..
    .@....
    .@@@..
    .@..@.
    .@..@.
    .@@@..
    ......
    ......

u+0181:
uni0181:
    ......
    ......
    ......
    .@@@..
    @.@.@.
    ..@.@.
    ..@@..
    ..@.@.
    ..@.@.
    ..@@..
    ......
    ......

u+0182:
uni0182:
    ......
    ......
    ......
    @@@@..
    .@....
    .@....
    .@@@..
    .@..@.
    .@..@.
    @@@@..
    ......
    ......

u+0183:
uni0183:
    ......
    ......
    ......
    @@@@..
    @.....
    @@@@..
    @...@.
    @...@.
    @...@.
    @@@@..
    ......
    ......

u+0184:
uni0184:
    ......
    ......
    ......
    .@....
    @@....
    @@....
    .@@@..
    .@..@.
    .@..@.
    .@@@..
    ......
    ......

u+0185:
uni0185:
    ......
    ......
    ......
    .@....
    @@....
    .@@@..
    .@..@.
    .@..@.
    .@..@.
    .@@@..
    ......
    ......

u+0186:
uni0186:
    ......
    ......
    ......
    .@@@..
    @...@.
    ....@.
    ....@.
    ....@.
    @...@.
    .@@@..
    ......
    ......

u+0187:
uni0187:
    ......
    ......
    ....@@
    .@@@..
    @...@.
    @.....
    @.....
    @.....
    @...@.
    .@@@..
    ......
    ......

u+0188:
uni0188:
    ......
    ......
    ......
    ......
    ...@@.
    .@@...
    @..@..
    @.....
    @..@..
    .@@...
    ......
    ......

u+0189:
uni0189:
    ......
    ......
    ......
    @@@@..
    .@..@.
    .@..@.
    @@@.@.
    .@..@.
    .@..@.
    @@@@..
    ......
    ......

u+018a:
uni018A:
    ......
    ......
    ......
    .@@@..
    @.@.@.
    ..@.@.
    ..@.@.
    ..@.@.
    ..@.@.
    ..@@..
    ......
    ......

u+018b:
uni018B:
    ......
    ......
    ......
    .@@@@.
    ....@.
    ....@.
    .@@@@.
    @...@.
    @...@.
    .@@@@.
    ......
    ......

u+018c:
uni018C:
    ......
    ......
    ......
    .@@@@.
    ....@.
    .@@@@.
    @...@.
    @...@.
    @...@.
    .@@@@.
    ......
    ......

u+018d:
uni018D:
    ......
    ......
    ......
    ......
    ......
    .@@@..
    @...@.
    @...@.
    .@@@..
    ....@.
    @...@.
    .@@@..

u+018e:
uni018E:
    ......
    ......
    ......
    @@@@@.
    ....@.
    ....@.
    .@@@@.
    ....@.
    ....@.
    @@@@@.
    ......
    ......

u+018f:
uni018F:
    ......
    ......
    ......
    .@@@..
    @...@.
    ....@.
    @@@@@.
    @...@.
    @...@.
    .@@@..
    ......
    ......

u+0190:
uni0190:
    ......
    ......
    ......
    .@@@..
    @...@.
    @.....
    .@@@..
    @.....
    @...@.
    .@@@..
    ......
    ......

u+0191:
uni0191:
    ......
    ......
    ......
    .@@@@.
    .@....
    .@....
    .@@@..
    .@....
    .@....
    .@....
    @.....
    ......

u+0192:
florin:
    ......
    ......
    ......
    ...@..
    ..@.@.
    ..@...
    .@@@..
    ..@...
    ..@...
    @.@...
    .@....
    ......

u+0193:
uni0193:
    ......
    ......
    ....@@
    .@@@..
    @...@.
    @.....
    @.....
    @..@@.
    @...@.
    .@@@..
    ......
    ......

u+0194:
uni0194:
    ......
    ......
    ......
    @...@.
    @...@.
    .@.@..
    .@.@..
    ..@...
    .@.@..
    ..@...
    ......
    ......

u+0195:
uni0195:
    ......
    ......
    ......
    @.....
    @.....
    @@..@.
    @.@.@.
    @.@.@.
    @.@.@.
    @..@..
    ......
    ......

u+0196:
uni0196:
    ......
    ......
    ......
    .@@...
    ..@...
    ..@...
    ..@...
    ..@...
    ..@...
    ...@..
    ......
    ......

u+0197:
uni0197:
    ......
    ......
    ......
    .@@@..
    ..@...
    ..@...
    .@@@..
    ..@...
    ..@...
    .@@@..
    ......
    ......

u+0198:
uni0198:
    ......
    ......
    ......
    @..@@.
    @.@...
    @@....
    @@....
    @.@...
    @..@..
    @...@.
    ......
    ......

u+0199:
uni0199:
    ......
    ......
    .@....
    @.@...
    @.....
    @...@.
    @..@..
    @@@...
    @..@..
    @...@.
    ......
    ......

u+019a:
uni019A:
    ......
    ......
    ......
    .@@...
    ..@...
    ..@...
    .@@@..
    ..@...
    ..@...
    .@@@..
    ......
    ......

u+019b:
uni019B:
    ......
    ......
    ......
    .@.@..
    ..@...
    .@@...
    ..@...
    .@.@..
    .@.@..
    .@.@..
    ......
    ......

u+019c:
uni019C:
    ......
    ......
    ......
    @.@.@.
    @.@.@.
    @.@.@.
    @.@.@.
    @.@.@.
    @.@.@.
    .@.@@.
    ......
    ......

u+019d:
uni019D:
    ......
    ......
    ......
    .@..@.
    .@..@.
    .@..@.
    .@@.@.
    .@.@@.
    .@..@.
    .@..@.
    @.....
    ......

u+019e:
uni019E:
    ......
    ......
    ......
    ......
    ......
    @.@@..
    @@..@.
    @...@.
    @...@.
    @...@.
    ....@.
    ....@.

u+019f:
uni019F:
    ......
    ......
    ......
    .@@@..
    @...@.
    @...@.
    @@@@@.
    @...@.
    @...@.
    .@@@..
    ......
    ......

u+01a0:
Ohorn:
    ......
    ......
    ....@.
    .@@.@.
    @..@..
    @..@..
    @..@..
    @..@..
    @..@..
    .@@...
    ......
    ......

u+01a1:
ohorn:
    ......
    ......
    ......
    ....@.
    ....@.
    .@@@..
    @...@.
    @...@.
    @...@.
    .@@@..
    ......
    ......

u+01a2:
uni01A2:
    ......
    ......
    ......
    .@....
    @.@@..
    @.@.@.
    @.@.@.
    @.@.@.
    @.@.@.
    .@..@.
    ......
    ......

u+01a3:
uni01A3:
    ......
    ......
    ......
    ......
    ......
    .@.@..
    @.@.@.
    @.@.@.
    @.@.@.
    .@..@.
    ......
    ......

u+01a4:
uni01A4:
    ......
    ......
    ......
    @@@@..
    .@..@.
    .@..@.
    .@@@..
    .@....
    .@....
    .@....
    ......
    ......

u+01a5:
uni01A5:
    ......
    ......
    ......
    .@....
    @.....
    @@@@..
    @...@.
    @...@.
    @...@.
    @@@@..
    @.....
    @.....

u+01a6:
uni01A6:
    ......
    ......
    ......
    @.....
    @@@@..
    @...@.
    @...@.
    @@@@..
    @.@...
    @..@..
    ....@.
    ......

u+01a7:
uni01A7:
    ......
    ......
    ......
    .@@@..
    @...@.
    ....@.
    .@@@..
    @.....
    @...@.
    .@@@..
    ......
    ......

u+01a8:
uni01A8:
    ......
    ......
    ......
    ......
    ......
    @@@@..
    ....@.
    .@@@..
    @.....
    .@@@@.
    ......
    ......

u+01a9:
uni01A9:
    ......
    ......
    ......
    @@@@@.
    .@....
    ..@...
    ...@..
    ..@...
    .@....
    @@@@@.
    ......
    ......

u+01aa:
uni01AA:
    ......
    ......
    ......
    .@....
    @.@...
    .@@@..
    ..@...
    ..@...
    ..@...
    ..@.@.
    ...@..
    ......

u+01ab:
uni01AB:
    ......
    ......
    ......
    ..@...
    ..@...
    @@@@@.
    ..@...
    ..@...
    ..@...
    ...@@.
    ....@.
    ..@@..

u+01ac:
uni01AC:
    ......
    ......
    ......
    .@@@@.
    @.@...
    @.@...
    ..@...
    ..@...
    ..@...
    ..@...
    ......
    ......

u+01ad:
uni01AD:
    ......
    ......
    ...@@.
    ..@...
    ..@...
    @@@@@.
    ..@...
    ..@...
    ..@...
    ...@@.
    ......
    ......

u+01ae:
uni01AE:
    ......
    ......
    ......
    @@@@@.
    ..@...
    ..@...
    ..@...
    ..@...
    ..@...
    ..@...
    ...@@.
    ......

u+01af:
Uhorn:
    ......
    ......
    ....@.
    @..@@.
    @..@..
    @..@..
    @..@..
    @..@..
    @..@..
    .@@...
    ......
    ......

u+01b0:
uhorn:
    ......
    ......
    ......
    ......
    ....@.
    @..@@.
    @..@..
    @..@..
    @.@@..
    .@.@..
    ......
    ......

u+01b1:
uni01B1:
    ......
    ......
    ......
    .@.@..
    @...@.
    @...@.
    @...@.
    @...@.
    @...@.
    .@@@..
    ......
    ......

u+01b2:
uni01B2:
    ......
    ......
    ......
    @..@..
    @..@..
    @...@.
    @...@.
    @...@.
    @...@.
    .@@@..
    ......
    ......

u+01b3:
uni01B3:
    ......
    ......
    ......
    @...@.
    .@..@.
    .@.@..
    ..@...
    ..@...
    ..@...
    ..@...
    ......
    ......

u+01b4:
uni01B4:
    ......
    ......
    ......
    ......
    ...@..
    @.@.@.
    @.@...
    @.@...
    @.@...
    .@@...
    .@....
    @.....

u+01b5:
uni01B5:
    ......
    ......
    ......
    @@@@@.
    ....@.
    ...@..
    @@@@@.
    .@....
    @.....
    @@@@@.
    ......
    ......

u+01b6:
uni01B6:
    ......
    ......
    ......
    ......
    ......
    @@@@@.
    ...@..
    @@@@@.
    .@....
    @@@@@.
    ......
    ......

u+01b7:
uni01B7:
    ......
    ......
    ......
    @@@@@.
    ...@..
    ..@...
    .@@@..
    ....@.
    @...@.
    .@@@..
    ......
    ......

u+01b8:
uni01B8:
    ......
    ......
    ......
    @@@@@.
    .@....
    ..@...
    .@@@..
    @.....
    @...@.
    .@@@..
    ......
    ......

u+01b9:
uni01B9:
    ......
    ......
    ......
    ......
    ......
    @@@@@.
    .@....
    ..@...
    .@@@..
    @.....
    @...@.
    .@@@..

u+01ba:
uni01BA:
    ......
    ......
    ......
    ......
    ......
    @@@@@.
    ...@..
    ..@@..
    ....@.
    .@@@..
    @...@.
    .@@@..

u+01bb:
uni01BB:
    ......
    ......
    ......
    .@@@..
    @...@.
    ...@..
    .@@@@.
    ..@...
    .@....
    @@@@@.
    ......
    ......

u+01bc:
uni01BC:
    ......
    ......
    ......
    @@@@@.
    @...@.
    @@@...
    ...@..
    ....@.
    ....@.
    @@@@..
    ......
    ......

u+01bd:
uni01BD:
    ......
    ......
    ......
    ......
    ......
    .@@@@.
    .@....
    .@@@..
    ....@.
    .@@@..
    ......
    ......

u+01be:
uni01BE:
    ......
    ......
    ......
    ..@...
    .@@@..
    ..@...
    ..@@..
    ....@.
    @...@.
    .@@@..
    ......
    ......

u+01bf:
uni01BF:
    ......
    ......
    ......
    ......
    ......
    @.@@..
    @@..@.
    @..@..
    @.@...
    @@....
    @.....
    @.....

u+01c0:
uni01C0:
    ......
    ......
    ......
    ..@...
    ..@...
    ..@...
    ..@...
    ..@...
    ..@...
    ..@...
    ......
    ......

u+01c1:
uni01C1:
    ......
    ......
    ......
    .@.@..
    .@.@..
    .@.@..
    .@.@..
    .@.@..
    .@.@..
    .@.@..
    ......
    ......

u+01c2:
uni01C2:
    ......
    ......
    ......
    ..@...
    ..@...
    .@@@..
    ..@...
    .@@@..
    ..@...
    ..@...
    ......
    ......

u+01c3:
uni01C3:
    ......
    ......
    ......
    .@@@..
    .@@@..
    .@@@..
    ..@...
    ..@...
    ......
    ..@...
    ......
    ......

u+01c4:
uni01C4:
    ..@.@.
    ...@..
    ......
    @@.@@.
    @.@.@.
    @.@.@.
    @.@@..
    @.@@..
    @.@@..
    @@.@@.
    ......
    ......

u+01c5:
uni01C5:
    ......
    ..@.@.
    ...@..
    @@....
    @.@...
    @.@@@.
    @.@.@.
    @.@@..
    @.@@..
    @@.@@.
    ......
    ......

u+01c6:
uni01C6:
    ..@.@.
    ...@..
    ......
    ..@...
    ..@...
    .@@@@.
    @.@.@.
    @.@@..
    @.@@..
    .@@@@.
    ......
    ......

u+01c7:
uni01C7:
    ......
    ......
    ......
    @...@.
    @...@.
    @...@.
    @...@.
    @...@.
    @.@.@.
    @@.@..
    ......
    ......

u+01c8:
uni01C8:
    ......
    ......
    ......
    @...@.
    @.....
    @..@@.
    @...@.
    @...@.
    @...@.
    @@@.@.
    ....@.
    ..@@..

u+01c9:
uni01C9:
    ......
    ......
    ......
    @@..@.
    .@....
    .@.@@.
    .@..@.
    .@..@.
    .@..@.
    @@@.@.
    ....@.
    ..@@..

u+01ca:
uni01CA:
    ......
    ......
    ......
    @@..@.
    @.@.@.
    @.@.@.
    @.@.@.
    @.@.@.
    @.@.@.
    @.@@..
    ......
    ......

u+01cb:
uni01CB:
    ......
    ......
    ......
    @@..@.
    @.@...
    @.@@@.
    @.@.@.
    @.@.@.
    @.@.@.
    @.@.@.
    ....@.
    ..@@..

u+01cc:
uni01CC:
    ......
    ......
    ......
    ....@.
    ......
    @@.@@.
    @.@.@.
    @.@.@.
    @.@.@.
    @.@.@.
    ....@.
    ..@@..

u+01cd:
uni01CD:
    .@.@..
    ..@...
    ......
    .@@@..
    @...@.
    @...@.
    @@@@@.
    @...@.
    @...@.
    @...@.
    ......
    ......

u+01ce:
uni01CE:
    ......
    ......
    .@.@..
    ..@...
    ......
    .@@@..
    ....@.
    .@@@@.
    @...@.
    .@@@@.
    ......
    ......

u+01cf:
uni01CF:
    .@.@..
    ..@...
    ......
    .@@@..
    ..@...
    ..@...
    ..@...
    ..@...
    ..@...
    .@@@..
    ......
    ......

u+01d0:
uni01D0:
    ......
    ......
    .@.@..
    ..@...
    ......
    .@@...
    ..@...
    ..@...
    ..@...
    .@@@..
    ......
    ......

u+01d1:
uni01D1:
    .@.@..
    ..@...
    ......
    .@@@..
    @...@.
    @...@.
    @...@.
    @...@.
    @...@.
    .@@@..
    ......
    ......

u+01d2:
uni01D2:
    ......
    ......
    .@.@..
    ..@...
    ......
    .@@@..
    @...@.
    @...@.
    @...@.
    .@@@..
    ......
    ......

u+01d3:
uni01D3:
    .@.@..
    ..@...
    ......
    @...@.
    @...@.
    @...@.
    @...@.
    @...@.
    @...@.
    .@@@..
    ......
    ......

u+01d4:
uni01D4:
    ......
    ......
    .@.@..
    ..@...
    ......
    @...@.
    @...@.
    @...@.
    @...@.
    .@@@..
    ......
    ......

u+01d5:
uni01D5:
    .@@@..
    ......
    .@.@..
    ......
    @...@.
    @...@.
    @...@.
    @...@.
    @...@.
    .@@@..
    ......
    ......

u+01d6:
uni01D6:
    ......
    .@@@..
    ......
    .@.@..
    ......
    @...@.
    @...@.
    @...@.
    @...@.
    .@@@..
    ......
    ......

u+01d7:
uni01D7:
    ...@..
    ..@...
    .@.@..
    ......
    @...@.
    @...@.
    @...@.
    @...@.
    @...@.
    .@@@..
    ......
    ......

u+01d8:
uni01D8:
    ...@..
    ..@...
    ......
    .@.@..
    ......
    @...@.
    @...@.
    @...@.
    @...@.
    .@@@..
    ......
    ......

u+01d9:
uni01D9:
    .@.@..
    ..@...
    .@.@..
    ......
    @...@.
    @...@.
    @...@.
    @...@.
    @...@.
    .@@@..
    ......
    ......

u+01da:
uni01DA:
    .@.@..
    ..@...
    ......
    .@.@..
    ......
    @...@.
    @...@.
    @...@.
    @...@.
    .@@@..
    ......
    ......

u+01db:
uni01DB:
    .@....
    ..@...
    .@.@..
    ......
    @...@.
    @...@.
    @...@.
    @...@.
    @...@.
    .@@@..
    ......
    ......

u+01dc:
uni01DC:
    .@....
    ..@...
    ......
    .@.@..
    ......
    @...@.
    @...@.
    @...@.
    @...@.
    .@@@..
    ......
    ......

u+01dd:
uni01DD:
    ......
    ......
    ......
    ......
    ......
    .@@@..
    ....@.
    .@@@@.
    @...@.
    .@@@..
    ......
    ......

u+01de:
uni01DE:
    .@@@..
    ......
    .@.@..
    ......
    .@@@..
    @...@.
    @...@.
    @@@@@.
    @...@.
    @...@.
    ......
    ......

u+01df:
uni01DF:
    ......
    .@@@..
    ......
    .@.@..
    ......
    .@@@..
    ....@.
    .@@@@.
    @...@.
    .@@@@.
    ......
    ......

u+01e0:
uni01E0:
    .@@@..
    ......
    ..@...
    ......
    .@@@..
    @...@.
    @...@.
    @@@@@.
    @...@.
    @...@.
    ......
    ......

u+01e1:
uni01E1:
    ......
    .@@@..
    ......
    ..@...
    ......
    .@@@..
    ....@.
    .@@@@.
    @...@.
    .@@@@.
    ......
    ......

u+01e2:
uni01E2:
    ......
    .@@@@.
    ......
    .@@@@.
    @.@...
    @.@...
    @@@@..
    @.@...
    @.@...
    @.@@@.
    ......
    ......

u+01e3:
uni01E3:
    ......
    ......
    ......
    .@@@..
    ......
    .@@@..
    ..@.@.
    .@@@..
    @.@...
    .@@@@.
    ......
    ......

u+01e4:
uni01E4:
    ......
    ......
    ......
    .@@@..
    @...@.
    @.....
    @..@@.
    @..@@.
    @...@.
    .@@@..
    ......
    ......

u+01e5:
uni01E5:
    ......
    ......
    ......
    ......
    ......
    .@@@..
    @...@.
    @...@.
    @...@.
    .@@@@.
    @@@@@.
    .@@@..

u+01e6:
Gcaron:
    .@.@..
    ..@...
    ......
    .@@@..
    @...@.
    @.....
    @.....
    @..@@.
    @...@.
    .@@@..
    ......
    ......

u+01e7:
gcaron:
    ......
    ......
    .@.@..
    ..@...
    ......
    .@@@..
    @...@.
    @...@.
    @...@.
    .@@@@.
    ....@.
    .@@@..

u+01e8:
uni01E8:
    .@.@..
    ..@...
    ......
    @...@.
    @..@..
    @.@...
    @@....
    @.@...
    @..@..
    @...@.
    ......
    ......

u+01e9:
uni01E9:
    ......
    .@.@..
    ..@...
    @.....
    @.....
    @...@.
    @..@..
    @@@...
    @..@..
    @...@.
    ......
    ......

u+01ea:
uni01EA:
    ......
    ......
    ......
    .@@@..
    @...@.
    @...@.
    @...@.
    @...@.
    @...@.
    .@@@..
    .@....
    ..@@..

u+01eb:
uni01EB:
    ......
    ......
    ......
    ......
    ......
    .@@@..
    @...@.
    @...@.
    @...@.
    .@@@..
    .@....
    ..@@..

u+01ec:
uni01EC:
    ......
    .@@@..
    ......
    .@@@..
    @...@.
    @...@.
    @...@.
    @...@.
    @...@.
    .@@@..
    .@....
    ..@@..

u+01ed:
uni01ED:
    ......
    ......
    ......
    .@@@..
    ......
    .@@@..
    @...@.
    @...@.
    @...@.
    .@@@..
    .@....
    ..@@..

u+01ee:
uni01EE:
    .@.@..
    ..@...
    ......
    @@@@@.
    ...@..
    ..@...
    .@@@..
    ....@.
    @...@.
    .@@@..
    ......
    ......

u+01ef:
uni01EF:
    ......
    ......
    .@.@..
    ..@...
    ......
    @@@@@.
    ...@..
    ..@...
    .@@@..
    ....@.
    @...@.
    .@@@..

u+01f0:
uni01F0:
    ......
    ......
    ..@.@.
    ...@..
    ......
    ..@@..
    ...@..
    ...@..
    ...@..
    ...@..
    @..@..
    .@@...

u+01f1:
uni01F1:
    ......
    ......
    ......
    @@.@@.
    @.@.@.
    @.@.@.
    @.@@..
    @.@@..
    @.@@..
    @@.@@.
    ......
    ......

u+01f2:
uni01F2:
    ......
    ......
    ......
    @@....
    @.@...
    @.@@@.
    @.@.@.
    @.@@..
    @.@@..
    @@.@@.
    ......
    ......

u+01f3:
uni01F3:
    ......
    ......
    ......
    ..@...
    ..@...
    .@@@@.
    @.@.@.
    @.@@..
    @.@@..
    .@@@@.
    ......
    ......

u+01f4:
uni01F4:
    ...@..
    ..@...
    ......
    .@@@..
    @...@.
    @.....
    @.....
    @..@@.
    @...@.
    .@@@..
    ......
    ......

u+01f5:
uni01F5:
    ......
    ......
    ...@..
    ..@...
    ......
    .@@@..
    @...@.
    @...@.
    @...@.
    .@@@@.
    ....@.
    .@@@..

u+01f6:
uni01F6:
    ......
    ......
    ......
    @.@...
    @.@...
    @@@.@.
    @.@.@.
    @.@.@.
    @.@.@.
    @..@..
    ......
    ......

u+01f7:
uni01F7:
    ......
    ......
    ......
    @.@@..
    @@..@.
    @...@.
    @..@..
    @.@...
    @@....
    @.....
    ......
    ......

u+01f8:
uni01F8:
    .@....
    ..@...
    ......
    @...@.
    @...@.
    @@..@.
    @.@.@.
    @..@@.
    @...@.
    @...@.
    ......
    ......

u+01f9:
uni01F9:
    ......
    ......
    .@....
    ..@...
    ......
    @.@@..
    @@..@.
    @...@.
    @...@.
    @...@.
    ......
    ......

u+01fa:
Aringacute:
    ...@..
    ..@...
    ..@...
    .@.@..
    ..@...
    .@@@..
    @...@.
    @@@@@.
    @...@.
    @...@.
    ......
    ......

u+01fb:
aringacute:
    ...@..
    ..@...
    ..@...
    .@.@..
    ..@...
    .@@@..
    ....@.
    .@@@@.
    @...@.
    .@@@@.
    ......
    ......

u+01fc:
AEacute:
    ...@..
    ..@...
    ......
    .@@@@.
    @.@...
    @.@...
    @@@@..
    @.@...
    @.@...
    @.@@@.
    ......
    ......

u+01fd:
aeacute:
    ......
    ......
    ...@..
    ..@...
    ......
    .@@@..
    ..@.@.
    .@@@..
    @.@...
    .@@@@.
    ......
    ......

u+01fe:
Oslashacute:
    ...@..
    ..@...
    ....@.
    .@@@..
    @..@@.
    @.@.@.
    @.@.@.
    @.@.@.
    @@..@.
    .@@@..
    @.....
    ......

u+01ff:
oslashacute:
    ......
    ......
    ...@..
    ..@...
    ......
    .@@@@.
    @..@@.
    @.@.@.
    @@..@.
    @@@@..
    ......
    ......

u+0200:
uni0200:
    @..@..
    .@..@.
    ......
    .@@@..
    @...@.
    @...@.
    @@@@@.
    @...@.
    @...@.
    @...@.
    ......
    ......

u+0201:
uni0201:
    ......
    ......
    @..@..
    .@..@.
    ......
    .@@@..
    ....@.
    .@@@@.
    @...@.
    .@@@@.
    ......
    ......

u+0202:
uni0202:
    .@@@..
    @...@.
    ......
    .@@@..
    @...@.
    @...@.
    @@@@@.
    @...@.
    @...@.
    @...@.
    ......
    ......

u+0203:
uni0203:
    ......
    ......
    .@@@..
    @...@.
    ......
    .@@@..
    ....@.
    .@@@@.
    @...@.
    .@@@@.
    ......
    ......

u+0204:
uni0204:
    @..@..
    .@..@.
    ......
    @@@@@.
    @.....
    @.....
    @@@@..
    @.....
    @.....
    @@@@@.
    ......
    ......

u+0205:
uni0205:
    ......
    ......
    @..@..
    .@..@.
    ......
    .@@@..
    @...@.
    @@@@..
    @.....
    .@@@..
    ......
    ......

u+0206:
uni0206:
    @..@..
    .@..@.
    ......
    @@@@@.
    @.....
    @.....
    @@@@..
    @.....
    @.....
    @@@@@.
    ......
    ......

u+0207:
uni0207:
    ......
    ......
    .@@@..
    @...@.
    ......
    .@@@..
    @...@.
    @@@@..
    @.....
    .@@@..
    ......
    ......

u+0208:
uni0208:
    @..@..
    .@..@.
    ......
    .@@@..
    ..@...
    ..@...
    ..@...
    ..@...
    ..@...
    .@@@..
    ......
    ......

u+0209:
uni0209:
    ......
    ......
    @..@..
    .@..@.
    ......
    .@@...
    ..@...
    ..@...
    ..@...
    .@@@..
    ......
    ......

u+020a:
uni020A:
    .@@@..
    @...@.
    ......
    .@@@..
    ..@...
    ..@...
    ..@...
    ..@...
    ..@...
    .@@@..
    ......
    ......

u+020b:
uni020B:
    ......
    ......
    .@@@..
    @...@.
    ......
    .@@...
    ..@...
    ..@...
    ..@...
    .@@@..
    ......
    ......

u+020c:
uni020C:
    @..@..
    .@..@.
    ......
    .@@@..
    @...@.
    @...@.
    @...@.
    @...@.
    @...@.
    .@@@..
    ......
    ......

u+020d:
uni020D:
    ......
    ......
    @..@..
    .@..@.
    ......
    .@@@..
    @...@.
    @...@.
    @...@.
    .@@@..
    ......
    ......

u+020e:
uni020E:
    .@@@..
    @...@.
    ......
    .@@@..
    @...@.
    @...@.
    @...@.
    @...@.
    @...@.
    .@@@..
    ......
    ......

u+020f:
uni020F:
    ......
    ......
    .@@@..
    @...@.
    ......
    .@@@..
    @...@.
    @...@.
    @...@.
    .@@@..
    ......
    ......

u+0210:
uni0210:
    @..@..
    .@..@.
    ......
    @@@@..
    @...@.
    @...@.
    @@@@..
    @.@...
    @..@..
    @...@.
    ......
    ......

u+0211:
uni0211:
    ......
    ......
    @..@..
    .@..@.
    ......
    @.@@..
    @@..@.
    @.....
    @.....
    @.....
    ......
    ......

u+0212:
uni0212:
    .@@@..
    @...@.
    ......
    @@@@..
    @...@.
    @...@.
    @@@@..
    @.@...
    @..@..
    @...@.
    ......
    ......

u+0213:
uni0213:
    ......
    ......
    .@@@..
    @...@.
    ......
    @.@@..
    @@..@.
    @.....
    @.....
    @.....
    ......
    ......

u+0214:
uni0214:
    @..@..
    .@..@.
    ......
    @...@.
    @...@.
    @...@.
    @...@.
    @...@.
    @...@.
    .@@@..
    ......
    ......

u+0215:
uni0215:
    ......
    ......
    @..@..
    .@..@.
    ......
    @...@.
    @...@.
    @...@.
    @...@.
    .@@@..
    ......
    ......

u+0216:
uni0216:
    .@@@..
    @...@.
    ......
    @...@.
    @...@.
    @...@.
    @...@.
    @...@.
    @...@.
    .@@@..
    ......
    ......

u+0217:
uni0217:
    ......
    ......
    .@@@..
    @...@.
    ......
    @...@.
    @...@.
    @...@.
    @...@.
    .@@@..
    ......
    ......

u+0218:
Scommaaccent:
    ......
    ......
    ......
    .@@@..
    @...@.
    @.....
    .@@@..
    ....@.
    @...@.
    .@@@..
    ...@..
    ..@...

u+0219:
scommaaccent:
    ......
    ......
    ......
    ......
    ......
    .@@@@.
    @.....
    .@@@..
    ....@.
    @@@@..
    ...@..
    ..@...

u+021a:
Tcommaaccent:
    ......
    ......
    ......
    @@@@@.
    ..@...
    ..@...
    ..@...
    ..@...
    ..@...
    ..@...
    ...@..
    ..@...

u+021b:
tcommaaccent:
    ......
    ......
    ......
    ..@...
    ..@...
    @@@@@.
    ..@...
    ..@...
    ..@...
    ...@@.
    ...@..
    ..@...

u+021c:
uni021C:
    ......
    ......
    ......
    .@@@..
    @...@.
    ...@..
    ..@.@.
    ....@.
    ....@.
    @@@@..
    ......
    ......

u+021d:
uni021D:
    ......
    ......
    ......
    ......
    ......
    .@@@..
    @...@.
    ...@..
    ..@.@.
    ....@.
    ....@.
    @@@@..

u+021e:
uni021E:
    .@.@..
    ..@...
    ......
    @...@.
    @...@.
    @...@.
    @@@@@.
    @...@.
    @...@.
    @...@.
    ......
    ......

u+021f:
uni021F:
    ......
    .@.@..
    ..@...
    @.....
    @.....
    @@@@..
    @...@.
    @...@.
    @...@.
    @...@.
    ......
    ......

u+0220:
uni0220:
    ......
    ......
    ......
    @.@@..
    @@..@.
    @...@.
    @...@.
    @...@.
    @...@.
    @...@.
    ....@.
    ......

u+0221:
uni0221:
    ......
    ......
    ......
    ...@..
    ...@..
    .@@@..
    @..@..
    @..@@.
    @..@.@
    .@@@@.
    ..@...
    ......

u+0222:
uni0222:
    ......
    ......
    ......
    .@.@..
    @...@.
    @...@.
    .@@@..
    @...@.
    @...@.
    .@@@..
    ......
    ......

u+0223:
uni0223:
    ......
    ......
    ......
    ......
    .@.@..
    @...@.
    .@@@..
    @...@.
    @...@.
    .@@@..
    ......
    ......

u+0224:
uni0224:
    ......
    ......
    ......
    @@@@@.
    ....@.
    ...@..
    ..@...
    .@....
    @.....
    @@@@@.
    ....@.
    ..@@..

u+0225:
uni0225:
    ......
    ......
    ......
    ......
    ......
    @@@@@.
    ...@..
    ..@...
    .@....
    @@@@@.
    ....@.
    ..@@..

u+0226:
uni0226:
    ......
    ..@...
    ......
    .@@@..
    @...@.
    @...@.
    @@@@@.
    @...@.
    @...@.
    @...@.
    ......
    ......

u+0227:
uni0227:
    ......
    ......
    ......
    ..@...
    ......
    .@@@..
    ....@.
    .@@@@.
    @...@.
    .@@@@.
    ......
    ......

u+0228:
uni0228:
    ......
    ......
    ......
    @@@@@.
    @.....
    @.....
    @@@@..
    @.....
    @.....
    @@@@@.
    ....@.
    ..@@..

u+0229:
uni0229:
    ......
    ......
    ......
    ......
    ......
    .@@@..
    @...@.
    @@@@..
    @.....
    .@@@..
    ....@.
    ..@@..

u+022a:
uni022A:
    .@@@..
    ......
    .@.@..
    ......
    .@@@..
    @...@.
    @...@.
    @...@.
    @...@.
    .@@@..
    ......
    ......

u+022b:
uni022B:
    ......
    .@@@..
    ......
    .@.@..
    ......
    .@@@..
    @...@.
    @...@.
    @...@.
    .@@@..
    ......
    ......

u+022c:
uni022C:
    .@@@..
    .@@.@.
    @.@@..
    ......
    .@@@..
    @...@.
    @...@.
    @...@.
    @...@.
    .@@@..
    ......
    ......

u+022d:
uni022D:
    .@@@..
    ......
    .@@.@.
    @.@@..
    ......
    .@@@..
    @...@.
    @...@.
    @...@.
    .@@@..
    ......
    ......

u+022e:
uni022E:
    ......
    ..@...
    ......
    .@@@..
    @...@.
    @...@.
    @...@.
    @...@.
    @...@.
    .@@@..
    ......
    ......

u+022f:
uni022F:
    ......
    ......
    ......
    ..@...
    ......
    .@@@..
    @...@.
    @...@.
    @...@.
    .@@@..
    ......
    ......

u+0230:
uni0230:
    .@@@..
    ......
    ..@...
    ......
    .@@@..
    @...@.
    @...@.
    @...@.
    @...@.
    .@@@..
    ......
    ......

u+0231:
uni0231:
    ......
    .@@@..
    ......
    ..@...
    ......
    .@@@..
    @...@.
    @...@.
    @...@.
    .@@@..
    ......
    ......

u+0232:
uni0232:
    ......
    .@@@..
    ......
    @...@.
    @...@.
    .@.@..
    ..@...
    ..@...
    ..@...
    ..@...
    ......
    ......

u+0233:
uni0233:
    ......
    ......
    ......
    .@@@..
    ......
    @...@.
    @...@.
    @...@.
    .@.@..
    ..@...
    .@....
    @.....

u+0234:
uni0234:
    ......
    ......
    ......
    ..@...
    ..@...
    ..@...
    ..@...
    ..@@..
    ..@.@.
    ..@@..
    .@....
    ......

u+0235:
uni0235:
    ......
    ......
    ......
    ......
    ......
    @@@...
    @..@..
    @..@@.
    @..@.@
    @..@@.
    ..@...
    ......

u+0236:
uni0236:
    ......
    ......
    ......
    ..@...
    ..@...
    .@@@@.
    ..@...
    ..@@..
    ..@.@.
    .@.@..
    ......
    ......

u+0237:
uni0237:
    ......
    ......
    ......
    ...@..
    ...@..
    ...@..
    ...@..
    ...@..
    ...@..
    ...@..
    @..@..
    .@@...

u+0238:
uni0238:
    ......
    ......
    ......
    ..@...
    ..@...
    ..@...
    .@@@..
    @.@.@.
    @.@.@.
    .@@@..
    ......
    ......

u+0239:
uni0239:
    ......
    ......
    ......
    ......
    ......
    .@@@..
    @.@.@.
    @.@.@.
    .@@@..
    ..@...
    ..@...
    ..@...

u+023a:
uni023A:
    ......
    ......
    ......
    .@@@.@
    @...@.
    @..@@.
    @@@@@.
    @.@.@.
    @@..@.
    @...@.
    ......
    ......

u+023b:
uni023B:
    ......
    ......
    ......
    ..@@@@
    .@..@.
    @..@..
    @..@..
    @.@...
    .@....
    @.@@@.
    ......
    ......

u+023c:
uni023C:
    ......
    ......
    ......
    ......
    ......
    .@@@@.
    @..@@.
    @.@...
    @@..@.
    @@@@..
    ......
    ......

u+023d:
uni023D:
    ......
    ......
    ......
    .@....
    .@....
    .@....
    @@@...
    .@....
    .@....
    .@@@@.
    ......
    ......

u+023e:
uni023E:
    ......
    ......
    ......
    @@@@@@
    ..@.@.
    ..@@..
    ..@...
    ..@...
    .@@...
    @.@...
    ......
    ......

u+023f:
uni023F:
    ......
    ......
    ......
    ......
    ......
    .@@@@.
    @.....
    .@@@..
    ....@.
    @@@@..
    ..@...
    ...@..

u+0240:
uni0240:
    ......
    ......
    ......
    ......
    ......
    @@@@@.
    ...@..
    ..@...
    .@....
    @.....
    .@....
    ..@@@.

u+0241:
uni0241:
    ......
    ......
    ......
    .@@@..
    @...@.
    ....@.
    ..@@..
    ..@...
    ..@...
    ..@...
    ......
    ......

u+0242:
uni0242:
    ......
    ......
    ......
    ......
    ......
    .@@@..
    ....@.
    ....@.
    ..@@..
    ..@...
    ......
    ......

u+0243:
uni0243:
    ......
    ......
    ......
    .@@@..
    .@..@.
    .@@@..
    .@..@.
    @@@.@.
    .@..@.
    .@@@..
    ......
    ......

u+0244:
uni0244:
    ......
    ......
    ......
    .@..@.
    .@..@.
    .@..@.
    @@@@@@
    .@..@.
    .@..@.
    ..@@..
    ......
    ......

u+0245:
uni0245:
    ......
    ......
    ......
    ..@...
    .@.@..
    .@.@..
    .@.@..
    @...@.
    @...@.
    @...@.
    ......
    ......

u+0246:
uni0246:
    ......
    ......
    ......
    @@@@@@
    @...@.
    @..@..
    @@@@..
    @.@...
    @@....
    @@@@@.
    ......
    ......

u+0247:
uni0247:
    ......
    ......
    ......
    ......
    ...@..
    .@@@..
    @.@.@.
    @@@@..
    @@....
    @@@@..
    ......
    ......

u+0248:
uni0248:
    ......
    ......
    ......
    ...@..
    ...@..
    ...@..
    ...@..
    ...@..
    ..@@@.
    ...@..
    @..@..
    .@@...

u+0249:
uni0249:
    ......
    ......
    ......
    ...@..
    ......
    ...@..
    ...@..
    ...@..
    ..@@@.
    ...@..
    @..@..
    .@@...

u+024a:
uni024A:
    ......
    ......
    ......
    .@@.@.
    @..@@.
    @...@.
    @...@.
    @..@@.
    .@@.@.
    ....@.
    ....@.
    .....@

u+024b:
uni024B:
    ......
    ......
    ......
    ......
    ......
    .@@.@.
    @..@@.
    @...@.
    @..@@.
    .@@.@.
    ....@.
    .....@

u+024c:
uni024C:
    ......
    ......
    ......
    .@@@..
    .@..@.
    .@..@.
    @@@@..
    .@..@.
    .@..@.
    .@..@.
    ......
    ......

u+024d:
uni024D:
    ......
    ......
    ......
    ......
    ......
    .@.@..
    .@@...
    .@....
    @@@...
    .@....
    ......
    ......

u+024e:
uni024E:
    ......
    ......
    ......
    @...@.
    @@@@@.
    .@.@..
    ..@...
    ..@...
    ..@...
    ..@...
    ......
    ......

u+024f:
uni024F:
    ......
    ......
    ......
    ......
    ......
    @...@.
    @...@.
    @@@@@.
    .@.@..
    ..@...
    .@....
    @.....

u+0250:
uni0250:
    ......
    ......
    ......
    ......
    ......
    @@@@..
    @...@.
    @@@@..
    @.....
    .@@@..
    ......
    ......

u+0251:
uni0251:
    ......
    ......
    ......
    ......
    ......
    .@@.@.
    @..@@.
    @...@.
    @..@@.
    .@@.@.
    ......
    ......

u+0252:
uni0252:
    ......
    ......
    ......
    ......
    ......
    @.@@..
    @@..@.
    @...@.
    @@..@.
    @.@@..
    ......
    ......

u+0253:
uni0253:
    ......
    ......
    .@@...
    @..@..
    @.....
    @@@@..
    @...@.
    @...@.
    @...@.
    @@@@..
    ......
    ......

u+0254:
uni0254:
    ......
    ......
    ......
    ......
    ......
    .@@@..
    @...@.
    ....@.
    @...@.
    .@@@..
    ......
    ......

u+0255:
uni0255:
    ......
    ......
    ......
    ......
    ......
    .@@@@.
    @.....
    @..@..
    @.@.@.
    .@@@..
    ..@...
    ......

u+0256:
uni0256:
    ......
    ......
    ......
    ...@..
    ...@..
    .@@@..
    @..@..
    @..@..
    @..@..
    .@@@..
    ....@.
    ......

u+0257:
uni0257:
    ......
    ......
    ....@.
    ...@..
    ...@..
    .@@@..
    @..@..
    @..@..
    @..@..
    .@@@..
    ......
    ......

u+0258:
uni0258:
    ......
    ......
    ......
    ......
    ......
    .@@@..
    @...@.
    .@@@@.
    ....@.
    .@@@..
    ......
    ......

u+0259:
uni0259:
    ......
    ......
    ......
    ......
    ......
    .@@@..
    ....@.
    .@@@@.
    @...@.
    .@@@..
    ......
    ......

u+025a:
uni025A:
    ......
    ......
    ......
    ......
    ......
    .@@...
    ...@@.
    .@@@.@
    @..@..
    .@@...
    ......
    ......

u+025b:
uni025B:
    ......
    ......
    ......
    ......
    ......
    .@@@..
    @...@.
    .@@...
    @...@.
    .@@@..
    ......
    ......

u+025c:
uni025C:
    ......
    ......
    ......
    ......
    ......
    .@@@..
    @...@.
    ..@@..
    @...@.
    .@@@..
    ......
    ......

u+025d:
uni025D:
    ......
    ......
    ......
    ......
    ......
    .@@.@.
    @..@.@
    ..@...
    @..@..
    .@@...
    ......
    ......

u+025e:
uni025E:
    ......
    ......
    ......
    ......
    ......
    .@@@..
    @...@.
    @.@@..
    @...@.
    .@@@..
    ......
    ......

u+025f:
uni025F:
    ......
    ......
    ......
    ......
    ......
    ...@..
    ...@..
    ...@..
    ..@@@.
    ...@..
    @..@..
    .@@...

u+0260:
uni0260:
    ......
    ......
    ......
    ....@.
    ....@.
    .@@@..
    @..@..
    @..@..
    @..@..
    .@@@..
    ...@..
    .@@...

u+0261:
uni0261:
    ......
    ......
    ......
    ......
    ......
    .@@@..
    @...@.
    @...@.
    @...@.
    .@@@@.
    ....@.
    .@@@..

u+0262:
uni0262:
    ......
    ......
    ......
    ......
    ......
    .@@@@.
    @.....
    @..@@.
    @...@.
    .@@@..
    ......
    ......

u+0263:
uni0263:
    ......
    ......
    ......
    ......
    ......
    @...@.
    @...@.
    .@.@..
    .@.@..
    ..@...
    .@.@..
    ..@...

u+0264:
uni0264:
    ......
    ......
    ......
    ......
    ......
    .@.@..
    @.@.@.
    ..@...
    .@.@..
    ..@...
    ......
    ......

u+0265:
uni0265:
    ......
    ......
    ......
    ......
    ......
    @...@.
    @...@.
    @...@.
    @...@.
    .@@@@.
    ....@.
    ....@.

u+0266:
uni0266:
    ......
    ......
    .@@@..
    @...@.
    @.....
    @@@@..
    @...@.
    @...@.
    @...@.
    @...@.
    ......
    ......

u+0267:
uni0267:
    ......
    ......
    .@@@..
    @...@.
    @.....
    @@@@..
    @...@.
    @...@.
    @...@.
    @...@.
    ....@.
    ..@@..

u+0268:
uni0268:
    ......
    ......
    ......
    ..@...
    ......
    .@@...
    ..@...
    .@@@..
    ..@...
    .@@@..
    ......
    ......

u+0269:
uni0269:
    ......
    ......
    ......
    ......
    ......
    .@....
    .@....
    .@....
    .@.@..
    ..@...
    ......
    ......

u+026a:
uni026A:
    ......
    ......
    ......
    ......
    ......
    .@@@..
    ..@...
    ..@...
    ..@...
    .@@@..
    ......
    ......

u+026b:
uni026B:
    ......
    ......
    ......
    .@@...
    ..@...
    .@@.@.
    @.@@..
    ..@...
    ..@...
    .@@@..
    ......
    ......

u+026c:
uni026C:
    ......
    ......
    ......
    .@@...
    ..@...
    .@@...
    @.@...
    .@@@..
    ..@...
    .@@@..
    ......
    ......

u+026d:
uni026D:
    ......
    ......
    ......
    .@@...
    ..@...
    ..@...
    ..@...
    ..@...
    ..@...
    ..@...
    ..@.@.
    ...@..

u+026e:
uni026E:
    ......
    ......
    ......
    @@....
    .@....
    .@@@@.
    .@..@.
    .@.@..
    .@@@..
    @@@.@.
    .@..@.
    ..@@..

u+026f:
uni026F:
    ......
    ......
    ......
    ......
    ......
    @.@.@.
    @.@.@.
    @.@.@.
    @.@.@.
    .@.@@.
    ......
    ......

u+0270:
uni0270:
    ......
    ......
    ......
    ......
    ......
    @.@.@.
    @.@.@.
    @.@.@.
    @.@.@.
    .@.@@.
    ....@.
    ....@.

u+0271:
uni0271:
    ......
    ......
    ......
    ......
    ......
    @@.@..
    @.@.@.
    @.@.@.
    @.@.@.
    @.@.@.
    ....@.
    ..@@..

u+0272:
uni0272:
    ......
    ......
    ......
    ......
    ......
    .@@@..
    .@..@.
    .@..@.
    .@..@.
    .@..@.
    .@....
    @.....

u+0273:
uni0273:
    ......
    ......
    ......
    ......
    ......
    @@@...
    @..@..
    @..@..
    @..@..
    @..@..
    ...@..
    ....@.

u+0274:
uni0274:
    ......
    ......
    ......
    ......
    ......
    @...@.
    @@..@.
    @.@.@.
    @..@@.
    @...@.
    ......
    ......

u+0275:
uni0275:
    ......
    ......
    ......
    ......
    ......
    .@@@..
    @...@.
    @@@@@.
    @...@.
    .@@@..
    ......
    ......

u+0276:
uni0276:
    ......
    ......
    ......
    ......
    ......
    .@@@@.
    @.@...
    @.@@..
    @.@...
    .@@@@.
    ......
    ......

u+0277:
uni0277:
    ......
    ......
    ......
    ......
    ......
    .@@@..
    @...@.
    @.@.@.
    @.@.@.
    .@.@..
    ......
    ......

u+0278:
uni0278:
    ......
    ......
    ......
    ..@...
    ..@...
    .@@@..
    @.@.@.
    @.@.@.
    @.@.@.
    .@@@..
    ..@...
    ..@...

u+0279:
uni0279:
    ......
    ......
    ......
    ......
    ......
    ....@.
    ....@.
    ....@.
    @..@@.
    .@@.@.
    ......
    ......

u+027a:
uni027A:
    ......
    ......
    ......
    ....@.
    ....@.
    ....@.
    ....@.
    ....@.
    @..@@.
    .@@.@.
    ......
    ......

u+027b:
uni027B:
    ......
    ......
    ......
    ......
    ......
    ...@..
    ...@..
    ...@..
    @..@..
    .@@@..
    ...@..
    ....@.

u+027c:
uni027C:
    ......
    ......
    ......
    ......
    ......
    @.@@..
    @@..@.
    @.....
    @.....
    @.....
    @.....
    @.....

u+027d:
uni027D:
    ......
    ......
    ......
    ......
    ......
    @.@@..
    @@..@.
    @.....
    @.....
    @.....
    @.@...
    .@....

u+027e:
uni027E:
    ......
    ......
    ......
    ......
    ......
    ..@@..
    .@..@.
    @.....
    @.....
    @.....
    ......
    ......

u+027f:
uni027F:
    ......
    ......
    ......
    ......
    ......
    .@@...
    @..@..
    ....@.
    ....@.
    ....@.
    ......
    ......

u+0280:
uni0280:
    ......
    ......
    ......
    ......
    ......
    @@@@..
    @...@.
    @@@@..
    @...@.
    @...@.
    ......
    ......

u+0281:
uni0281:
    ......
    ......
    ......
    ......
    ......
    @...@.
    @...@.
    @@@@..
    @...@.
    @@@@..
    ......
    ......

u+0282:
uni0282:
    ......
    ......
    ......
    ......
    ......
    .@@@@.
    @.....
    .@@@..
    ....@.
    @@@@..
    @.....
    .@@...

u+0283:
uni0283:
    ......
    ......
    ......
    ...@..
    ..@.@.
    ..@...
    ..@...
    ..@...
    ..@...
    @.@...
    .@....
    ......

u+0284:
uni0284:
    ......
    ......
    ......
    ...@..
    ..@.@.
    ..@...
    ..@...
    .@@@..
    ..@...
    @.@...
    .@....
    ......

u+0285:
uni0285:
    ......
    ......
    ......
    ......
    .@....
    @.@...
    ..@...
    ..@...
    ..@.@.
    ...@..
    ......
    ......

u+0286:
uni0286:
    ......
    ......
    ......
    ...@..
    ..@.@.
    ..@...
    ..@...
    ..@...
    .@@@..
    @.@...
    .@....
    ......

u+0287:
uni0287:
    ......
    ......
    ......
    ......
    ......
    @@....
    ..@...
    ..@...
    ..@...
    @@@@@.
    ..@...
    ..@...

u+0288:
uni0288:
    ......
    ......
    ......
    ..@...
    ..@...
    @@@@@.
    ..@...
    ..@...
    ..@...
    ..@...
    ..@...
    ...@@.

u+0289:
uni0289:
    ......
    ......
    ......
    ......
    ......
    @...@.
    @@@@@.
    @...@.
    @..@@.
    .@@.@.
    ......
    ......

u+028a:
uni028A:
    ......
    ......
    ......
    ......
    ......
    @@.@@.
    .@.@..
    @...@.
    @...@.
    .@@@..
    ......
    ......

u+028b:
uni028B:
    ......
    ......
    ......
    ......
    ......
    @..@..
    @...@.
    @...@.
    @..@..
    .@@...
    ......
    ......

u+028c:
uni028C:
    ......
    ......
    ......
    ......
    ......
    ..@...
    .@.@..
    .@.@..
    @...@.
    @...@.
    ......
    ......

u+028d:
uni028D:
    ......
    ......
    ......
    ......
    ......
    .@.@..
    @.@.@.
    @.@.@.
    @...@.
    @...@.
    ......
    ......

u+028e:
uni028E:
    ......
    ......
    ......
    ....@.
    ...@..
    ..@...
    .@.@..
    @...@.
    @...@.
    @...@.
    ......
    ......

u+028f:
uni028F:
    ......
    ......
    ......
    ......
    ......
    @...@.
    .@.@..
    ..@...
    ..@...
    ..@...
    ......
    ......

u+0290:
uni0290:
    ......
    ......
    ......
    ......
    ......
    @@@@@.
    ...@..
    ..@...
    .@....
    @@@@@.
    ..@...
    ...@@.

u+0291:
uni0291:
    ......
    ......
    ......
    ......
    ......
    @@@@@.
    ...@..
    ..@...
    .@.@..
    @@@@@.
    ..@...
    .@....

u+0292:
uni0292:
    ......
    ......
    ......
    ......
    ......
    @@@@@.
    ...@..
    ..@...
    .@@@..
    ....@.
    @...@.
    .@@@..

u+0293:
uni0293:
    ......
    ......
    ......
    ......
    ......
    @@@@@.
    ...@..
    ..@@..
    ....@.
    .@@@@.
    @...@.
    .@@@.@

u+0294:
uni0294:
    ......
    ......
    ......
    .@@@..
    @...@.
    ....@.
    ..@@..
    ..@...
    ..@...
    ..@...
    ......
    ......

u+0295:
uni0295:
    ......
    ......
    ......
    .@@@..
    @...@.
    @.....
    .@@...
    ..@...
    ..@...
    ..@...
    ......
    ......

u+0296:
uni0296:
    ......
    ......
    ......
    ..@...
    ..@...
    ..@...
    ..@@..
    ....@.
    @...@.
    .@@@..
    ......
    ......

u+0297:
uni0297:
    ......
    ......
    ......
    .@@@..
    @...@.
    @.....
    @.....
    @.....
    @.....
    @.....
    @...@.
    .@@@..

u+0298:
uni0298:
    ......
    ......
    ......
    ......
    ......
    .@@@..
    @...@.
    @.@.@.
    @...@.
    .@@@..
    ......
    ......

u+0299:
uni0299:
    ......
    ......
    ......
    ......
    ......
    @@@@..
    @...@.
    @@@@..
    @...@.
    @@@@..
    ......
    ......

u+029a:
uni029A:
    ......
    ......
    ......
    ......
    ......
    .@@@..
    @...@.
    .@@.@.
    @...@.
    .@@@..
    ......
    ......

u+029b:
uni029B:
    ......
    ......
    ......
    ....@.
    ...@..
    .@@@@.
    @.....
    @..@@.
    @...@.
    .@@@..
    ......
    ......

u+029c:
uni029C:
    ......
    ......
    ......
    ......
    ......
    @...@.
    @...@.
    @@@@@.
    @...@.
    @...@.
    ......
    ......

u+029d:
uni029D:
    ......
    ......
    ......
    ...@..
    ......
    ..@@..
    ...@..
    ...@..
    ...@..
    .@@@@.
    @..@..
    .@@...

u+029e:
uni029E:
    ......
    ......
    ......
    ......
    ......
    @...@.
    .@..@.
    ..@@@.
    .@..@.
    @...@.
    ....@.
    ....@.

u+029f:
uni029F:
    ......
    ......
    ......
    ......
    ......
    @.....
    @.....
    @.....
    @.....
    @@@@@.
    ......
    ......

u+02a0:
uni02A0:
    ......
    ......
    ......
    ....@.
    ...@..
    .@@@..
    @..@..
    @..@..
    @..@..
    .@@@..
    ...@..
    ...@..

u+02a1:
uni02A1:
    ......
    ......
    ......
    .@@@..
    @...@.
    ....@.
    ..@@..
    ..@...
    .@@@..
    ..@...
    ......
    ......

u+02a2:
uni02A2:
    ......
    ......
    ......
    .@@@..
    @...@.
    @.....
    .@@...
    ..@...
    .@@@..
    ..@...
    ......
    ......

u+02a3:
uni02A3:
    ......
    ......
    ......
    ..@...
    ..@...
    .@@@@.
    @.@.@.
    @.@@..
    @.@@..
    .@@@@.
    ......
    ......

u+02a4:
uni02A4:
    ......
    ......
    ......
    ..@...
    ..@...
    .@@@@.
    @.@.@.
    @.@@..
    @.@@@.
    .@@.@.
    ....@.
    ..@@..

u+02a5:
uni02A5:
    ......
    ......
    ......
    ..@...
    ..@...
    .@@@@.
    @.@.@.
    @.@@..
    @.@@..
    .@@@@.
    ...@..
    ......

u+02a6:
uni02A6:
    ......
    ......
    ......
    .@....
    .@....
    @@@@@.
    .@.@..
    .@..@.
    .@..@.
    ..@@..
    ......
    ......

u+02a7:
uni02A7:
    ......
    ......
    ....@.
    .@.@.@
    .@.@..
    @@@@..
    .@.@..
    .@.@..
    .@.@..
    ..@@..
    .@.@..
    ..@...

u+02a8:
uni02A8:
    ......
    ......
    ......
    .@....
    .@....
    @@@.@.
    .@.@..
    .@.@..
    .@.@..
    ..@.@.
    ...@..
    ......

u+02a9:
uni02A9:
    ......
    ......
    ......
    .@@...
    @..@..
    @.....
    @@@@..
    @.@.@.
    @.@.@.
    @.@.@.
    ....@.
    ..@@..

u+02aa:
uni02AA:
    ......
    ......
    ......
    @@....
    .@....
    .@.@@.
    .@@...
    .@.@..
    .@..@.
    @@@@..
    ......
    ......

u+02ab:
uni02AB:
    ......
    ......
    ......
    @@....
    .@....
    .@@@@.
    .@..@.
    .@.@..
    .@@...
    @@@@@.
    ......
    ......

u+02ac:
uni02AC:
    ......
    ......
    ......
    @.@.@.
    @.@.@.
    .@.@..
    ......
    @.@.@.
    @.@.@.
    .@.@..
    ......
    ......

u+02ad:
uni02AD:
    ......
    ......
    ......
    ......
    @@@@@.
    @...@.
    ......
    @@@@@.
    @...@.
    ......
    ......
    ......

u+02ae:
uni02AE:
    ......
    ......
    @...@.
    .@..@.
    .@..@.
    .@..@.
    .@..@.
    .@..@.
    .@..@.
    ..@@@.
    ....@.
    ....@.

u+02af:
uni02AF:
    ......
    ......
    @...@.
    .@..@.
    .@..@.
    .@..@.
    .@..@.
    .@..@.
    .@..@.
    ..@@@.
    ....@.
    .....@

u+02b0:
uni02B0:
    ......
    .@....
    .@....
    .@@...
    .@.@..
    .@.@..
    ......
    ......
    ......
    ......
    ......
    ......

u+02b1:
uni02B1:
    ......
    ..@...
    .@....
    .@@...
    .@.@..
    .@.@..
    ......
    ......
    ......
    ......
    ......
    ......

u+02b2:
uni02B2:
    ......
    ...@..
    ......
    ...@..
    ...@..
    .@.@..
    ..@...
    ......
    ......
    ......
    ......
    ......

u+02b3:
uni02B3:
    ......
    ......
    .@@...
    .@.@..
    .@....
    .@....
    ......
    ......
    ......
    ......
    ......
    ......

u+02b4:
uni02B4:
    ......
    ......
    ...@..
    ...@..
    .@.@..
    ..@@..
    ......
    ......
    ......
    ......
    ......
    ......

u+02b5:
uni02B5:
    ......
    ......
    ...@..
    ...@..
    .@.@..
    ..@@..
    ....@.
    ......
    ......
    ......
    ......
    ......

u+02b6:
uni02B6:
    ......
    .@.@..
    .@.@..
    .@@...
    .@.@..
    .@@...
    ......
    ......
    ......
    ......
    ......
    ......

u+02b7:
uni02B7:
    ......
    ......
    @.@.@.
    @.@.@.
    .@.@..
    .@.@..
    ......
    ......
    ......
    ......
    ......
    ......

u+02b8:
uni02B8:
    ......
    ......
    .@.@..
    .@.@..
    ..@@..
    ...@..
    .@@...
    ......
    ......
    ......
    ......
    ......

u+02b9:
uni02B9:
    ......
    ...@..
    ...@..
    ..@...
    ..@...
    ......
    ......
    ......
    ......
    ......
    ......
    ......

u+02ba:
uni02BA:
    ......
    .@..@.
    .@..@.
    @..@..
    @..@..
    ......
    ......
    ......
    ......
    ......
    ......
    ......

u+02bb:
uni02BB:
    ......
    ......
    ...@..
    ..@...
    ..@@..
    ......
    ......
    ......
    ......
    ......
    ......
    ......

u+02bc:
afii57929:
    ......
    ......
    ..@@..
    ...@..
    ..@...
    ......
    ......
    ......
    ......
    ......
    ......
    ......

u+02bd:
afii64937:
    ......
    ......
    ..@@..
    ..@...
    ...@..
    ......
    ......
    ......
    ......
    ......
    ......
    ......

u+02be:
uni02BE:
    ......
    ......
    ..@...
    ...@..
    ...@..
    ..@...
    ......
    ......
    ......
    ......
    ......
    ......

u+02bf:
uni02BF:
    ......
    ......
    ..@...
    .@....
    .@....
    ..@...
    ......
    ......
    ......
    ......
    ......
    ......

u+02c0:
uni02C0:
    ......
    ..@...
    .@.@..
    ...@..
    ..@...
    ..@...
    ......
    ......
    ......
    ......
    ......
    ......

u+02c1:
uni02C1:
    ......
    ..@...
    .@.@..
    .@....
    ..@...
    ..@...
    ......
    ......
    ......
    ......
    ......
    ......

u+02c2:
uni02C2:
    ......
    ...@..
    ..@...
    .@....
    ..@...
    ...@..
    ......
    ......
    ......
    ......
    ......
    ......

u+02c3:
uni02C3:
    ......
    .@....
    ..@...
    ...@..
    ..@...
    .@....
    ......
    ......
    ......
    ......
    ......
    ......

u+02c4:
uni02C4:
    ......
    ......
    ..@...
    .@.@..
    .@.@..
    ......
    ......
    ......
    ......
    ......
    ......
    ......

u+02c5:
uni02C5:
    ......
    ......
    .@.@..
    .@.@..
    ..@...
    ......
    ......
    ......
    ......
    ......
    ......
    ......

u+02c6:
circumflex:
    ......
    ......
    ..@...
    .@.@..
    ......
    ......
    ......
    ......
    ......
    ......
    ......
    ......

u+02c7:
caron:
    ......
    .@.@..
    ..@...
    ......
    ......
    ......
    ......
    ......
    ......
    ......
    ......
    ......

u+02c8:
uni02C8:
    ......
    ......
    ..@...
    ..@...
    ......
    ......
    ......
    ......
    ......
    ......
    ......
    ......

u+02c9:
macron:
    ......
    ......
    .@@@@.
    ......
    ......
    ......
    ......
    ......
    ......
    ......
    ......
    ......

u+02ca:
uni02CA:
    ......
    ......
    ..@...
    ...@..
    ......
    ......
    ......
    ......
    ......
    ......
    ......
    ......

u+02cb:
uni02CB:
    ......
    ......
    ...@..
    ..@...
    ......
    ......
    ......
    ......
    ......
    ......
    ......
    ......

u+02cc:
uni02CC:
    ......
    ......
    ......
    ......
    ......
    ......
    ......
    ......
    ......
    ..@...
    ..@...
    ......

u+02cd:
uni02CD:
    ......
    ......
    ......
    ......
    ......
    ......
    ......
    ......
    ......
    .@@@@.
    ......
    ......

u+02ce:
uni02CE:
    ......
    ......
    ......
    ......
    ......
    ......
    ......
    ......
    ......
    ..@...
    ...@..
    ......

u+02cf:
uni02CF:
    ......
    ......
    ......
    ......
    ......
    ......
    ......
    ......
    ......
    ...@..
    ..@...
    ......

u+02d0:
uni02D0:
    ......
    ......
    ......
    ......
    ......
    .@@@..
    ..@...
    ......
    ..@...
    .@@@..
    ......
    ......

u+02d1:
uni02D1:
    ......
    ......
    ......
    ......
    ......
    .@@@..
    ..@...
    ......
    ......
    ......
    ......
    ......

u+02d2:
uni02D2:
    ......
    ......
    ......
    ......
    ......
    ......
    ..@@..
    ....@.
    ....@.
    ..@@..
    ......
    ......

u+02d3:
uni02D3:
    ......
    ......
    ......
    ......
    ......
    ......
    ..@@..
    .@....
    .@....
    ..@@..
    ......
    ......

u+02d4:
uni02D4:
    ......
    ......
    ......
    ......
    ..@...
    ..@...
    @@@@@.
    ......
    ......
    ......
    ......
    ......

u+02d5:
uni02D5:
    ......
    ......
    ......
    ......
    ......
    ......
    @@@@@.
    ..@...
    ..@...
    ......
    ......
    ......

u+02d6:
uni02D6:
    ......
    ......
    ......
    ......
    ..@...
    ..@...
    @@@@@.
    ..@...
    ..@...
    ......
    ......
    ......

u+02d7:
uni02D7:
    ......
    ......
    ......
    ......
    ......
    ......
    @...@.
    @@@@@.
    @...@.
    ......
    ......
    ......

u+02d8:
breve:
    ......
    @...@.
    .@@@..
    ......
    ......
    ......
    ......
    ......
    ......
    ......
    ......
    ......

u+02d9:
dotaccent:
    ......
    ......
    ..@...
    ......
    ......
    ......
    ......
    ......
    ......
    ......
    ......
    ......

u+02da:
ring:
    ......
    ..@...
    .@.@..
    ..@...
    ......
    ......
    ......
    ......
    ......
    ......
    ......
    ......

u+02db:
ogonek:
    ......
    ......
    ......
    ......
    ......
    ......
    ......
    ......
    ......
    ......
    ..@...
    ..@@..

u+02dc:
tilde:
    ......
    ......
    .@@.@.
    @.@@..
    ......
    ......
    ......
    ......
    ......
    ......
    ......
    ......

u+02dd:
hungarumlaut:
    ......
    .@..@.
    @..@..
    ......
    ......
    ......
    ......
    ......
    ......
    ......
    ......
    ......

u+02de:
uni02DE:
    ......
    ......
    ......
    ......
    ......
    ..@...
    .@@.@.
    @.@.@.
    ...@..
    ......
    ......
    ......

u+02df:
uni02DF:
    ......
    .@.@..
    ..@...
    .@.@..
    ......
    ......
    ......
    ......
    ......
    ......
    ......
    ......

u+02e0:
uni02E0:
    ......
    ......
    .@.@..
    .@.@..
    ..@...
    .@.@..
    ..@...
    ......
    ......
    ......
    ......
    ......

u+02e1:
uni02E1:
    ......
    .@@...
    ..@...
    ..@...
    ..@...
    .@@@..
    ......
    ......
    ......
    ......
    ......
    ......

u+02e2:
uni02E2:
    ......
    ......
    ..@@..
    .@@...
    ...@..
    .@@...
    ......
    ......
    ......
    ......
    ......
    ......

u+02e3:
uni02E3:
    ......
    ......
    .@.@..
    ..@...
    .@.@..
    ......
    ......
    ......
    ......
    ......
    ......
    ......

u+02e4:
uni02E4:
    ......
    ..@@..
    .@....
    .@@...
    ..@...
    ..@...
    ......
    ......
    ......
    ......
    ......
    ......

u+02e5:
uni02E5:
    ......
    ......
    ......
    .@@@..
    ...@..
    ...@..
    ...@..
    ...@..
    ...@..
    ...@..
    ......
    ......

u+02e6:
uni02E6:
    ......
    ......
    ......
    ...@..
    .@@@..
    ...@..
    ...@..
    ...@..
    ...@..
    ...@..
    ......
    ......

u+02e7:
uni02E7:
    ......
    ......
    ......
    ...@..
    ...@..
    ...@..
    .@@@..
    ...@..
    ...@..
    ...@..
    ......
    ......

u+02e8:
uni02E8:
    ......
    ......
    ......
    ...@..
    ...@..
    ...@..
    ...@..
    ...@..
    .@@@..
    ...@..
    ......
    ......

u+02e9:
uni02E9:
    ......
    ......
    ......
    ...@..
    ...@..
    ...@..
    ...@..
    ...@..
    ...@..
    .@@@..
    ......
    ......

u+02ea:
uni02EA:
    ......
    ......
    ......
    ......
    ......
    ......
    ......
    ......
    ......
    .@@@..
    ...@..
    ...@..

u+02eb:
uni02EB:
    ......
    ......
    ......
    ......
    ......
    ......
    ......
    .@....
    .@....
    .@@@..
    .@....
    .@....

u+02ec:
uni02EC:
    ......
    ......
    ......
    ......
    ......
    ......
    ......
    ......
    ......
    ......
    .@.@..
    ..@...

u+02ed:
uni02ED:
    ......
    ......
    ......
    ......
    .@@@..
    ......
    .@@@..
    ......
    ......
    ......
    ......
    ......

u+02ee:
uni02EE:
    ......
    ......
    ......
    @@.@@.
    .@..@.
    @..@..
    ......
    ......
    ......
    ......
    ......
    ......

u+02ef:
uni02EF:
    ......
    ......
    ......
    ......
    ......
    ......
    ......
    ......
    @...@.
    .@.@..
    .@.@..
    ..@...

u+02f0:
uni02F0:
    ......
    ......
    ......
    ......
    ......
    ......
    ......
    ......
    ..@...
    .@.@..
    .@.@..
    @...@.

u+02f1:
uni02F1:
    ......
    ......
    ......
    ......
    ......
    ......
    ......
    ...@..
    .@@...
    @.....
    .@@...
    ...@..

u+02f2:
uni02F2:
    ......
    ......
    ......
    ......
    ......
    ......
    ......
    @.....
    .@@...
    ...@..
    .@@...
    @.....

u+02f3:
uni02F3:
    ......
    ......
    ......
    ......
    ......
    ......
    ......
    ......
    ......
    ......
    ..@@..
    .@..@.

u+02f4:
uni02F4:
    ......
    ......
    ......
    ......
    ......
    ..@...
    ...@..
    ......
    ......
    ......
    ......
    ......

u+02f5:
uni02F5:
    ......
    ......
    ......
    ......
    ......
    .@.@..
    ..@.@.
    ......
    ......
    ......
    ......
    ......

u+02f6:
uni02F6:
    ......
    ......
    ......
    ......
    ......
    ..@.@.
    .@.@..
    ......
    ......
    ......
    ......
    ......

u+02f7:
uni02F7:
    ......
    ......
    ......
    ......
    ......
    ......
    ......
    ......
    ......
    ......
    .@@.@.
    @.@@..

u+02f8:
uni02F8:
    ......
    ......
    ......
    ......
    ..@@..
    ..@@..
    ......
    ......
    ..@@..
    ..@@..
    ......
    ......

u+02f9:
uni02F9:
    ......
    ......
    ......
    ......
    ..@@..
    ..@...
    ..@...
    ......
    ......
    ......
    ......
    ......

u+02fa:
uni02FA:
    ......
    ......
    ......
    ..@@..
    ...@..
    ...@..
    ......
    ......
    ......
    ......
    ......
    ......

u+02fb:
uni02FB:
    ......
    ......
    ......
    ......
    ......
    ......
    ......
    ..@...
    ..@...
    ..@@..
    ......
    ......

u+02fc:
uni02FC:
    ......
    ......
    ......
    ......
    ......
    ......
    ......
    ...@..
    ...@..
    ..@@..
    ......
    ......

u+02fd:
uni02FD:
    ......
    ......
    ......
    ......
    ......
    ......
    ......
    ......
    @...@.
    @@@@@.
    ......
    ......

u+02fe:
uni02FE:
    ......
    ......
    ......
    ......
    ......
    ......
    ......
    ......
    @.....
    @@@@..
    ......
    ......

u+02ff:
uni02FF:
    ......
    ......
    ......
    ......
    ......
    ......
    ......
    ......
    .@....
    @@@@@.
    .@....
    ......

u+0300:
gravecomb:
    .@....
    ..@...
    ......
    ......
    ......
    ......
    ......
    ......
    ......
    ......
    ......
    ......

u+0301:
acutecomb:
    ...@..
    ..@...
    ......
    ......
    ......
    ......
    ......
    ......
    ......
    ......
    ......
    ......

u+0302:
uni0302:
    ..@...
    .@.@..
    ......
    ......
    ......
    ......
    ......
    ......
    ......
    ......
    ......
    ......

u+0303:
tildecomb:
    .@@.@.
    @.@@..
    ......
    ......
    ......
    ......
    ......
    ......
    ......
    ......
    ......
    ......

u+0304:
uni0304:
    ......
    .@@@..
    ......
    ......
    ......
    ......
    ......
    ......
    ......
    ......
    ......
    ......

u+0305:
uni0305:
    ......
    @@@@@.
    ......
    ......
    ......
    ......
    ......
    ......
    ......
    ......
    ......
    ......

u+0306:
uni0306:
    @...@.
    .@@@..
    ......
    ......
    ......
    ......
    ......
    ......
    ......
    ......
    ......
    ......

u+0307:
uni0307:
    ......
    ..@...
    ......
    ......
    ......
    ......
    ......
    ......
    ......
    ......
    ......
    ......

u+0308:
uni0308:
    ......
    .@.@..
    ......
    ......
    ......
    ......
    ......
    ......
    ......
    ......
    ......
    ......

u+0309:
hookabovecomb:
    .@@...
    ...@..
    ..@...
    ......
    ......
    ......
    ......
    ......
    ......
    ......
    ......
    ......

u+030a:
uni030A:
    ..@...
    .@.@..
    ..@...
    ......
    ......
    ......
    ......
    ......
    ......
    ......
    ......
    ......

u+030b:
uni030B:
    .@..@.
    @..@..
    ......
    ......
    ......
    ......
    ......
    ......
    ......
    ......
    ......
    ......

u+030c:
uni030C:
    .@.@..
    ..@...
    ......
    ......
    ......
    ......
    ......
    ......
    ......
    ......
    ......
    ......

u+030d:
uni030D:
    ..@...
    ..@...
    ......
    ......
    ......
    ......
    ......
    ......
    ......
    ......
    ......
    ......

u+030e:
uni030E:
    .@.@..
    .@.@..
    ......
    ......
    ......
    ......
    ......
    ......
    ......
    ......
    ......
    ......

u+030f:
uni030F:
    @..@..
    .@..@.
    ......
    ......
    ......
    ......
    ......
    ......
    ......
    ......
    ......
    ......

u+0310:
uni0310:
    ..@...
    @...@.
    .@@@..
    ......
    ......
    ......
    ......
    ......
    ......
    ......
    ......
    ......

u+0311:
uni0311:
    .@@@..
    @...@.
    ......
    ......
    ......
    ......
    ......
    ......
    ......
    ......
    ......
    ......

u+0312:
uni0312:
    ...@..
    ..@...
    .@@...
    ......
    ......
    ......
    ......
    ......
    ......
    ......
    ......
    ......

u+0313:
uni0313:
    ..@@..
    ..@...
    .@....
    ......
    ......
    ......
    ......
    ......
    ......
    ......
    ......
    ......

u+0314:
uni0314:
    .@@...
    ..@...
    ...@..
    ......
    ......
    ......
    ......
    ......
    ......
    ......
    ......
    ......

u+0315:
uni0315:
    ....@@
    ....@.
    ...@..
    ......
    ......
    ......
    ......
    ......
    ......
    ......
    ......
    ......

u+0316:
uni0316:
    ......
    ......
    ......
    ......
    ......
    ......
    ......
    ......
    ......
    ......
    ..@...
    ...@..

u+0317:
uni0317:
    ......
    ......
    ......
    ......
    ......
    ......
    ......
    ......
    ......
    ......
    ...@..
    ..@...

u+0318:
uni0318:
    ......
    ......
    ......
    ......
    ......
    ......
    ......
    ......
    ......
    ...@..
    ..@@..
    ...@..

u+0319:
uni0319:
    ......
    ......
    ......
    ......
    ......
    ......
    ......
    ......
    ......
    ..@...
    ..@@..
    ..@...

u+031a:
uni031A:
    ...@@@
    .....@
    .....@
    ......
    ......
    ......
    ......
    ......
    ......
    ......
    ......
    ......

u+031b:
uni031B:
    .....@
    .....@
    ....@.
    ......
    ......
    ......
    ......
    ......
    ......
    ......
    ......
    ......

u+031c:
uni031C:
    ......
    ......
    ......
    ......
    ......
    ......
    ......
    ......
    ......
    ...@..
    ..@...
    ...@..

u+031d:
uni031D:
    ......
    ......
    ......
    ......
    ......
    ......
    ......
    ......
    ......
    ......
    ..@...
    .@@@..

u+031e:
uni031E:
    ......
    ......
    ......
    ......
    ......
    ......
    ......
    ......
    ......
    ......
    .@@@..
    ..@...

u+031f:
uni031F:
    ......
    ......
    ......
    ......
    ......
    ......
    ......
    ......
    ......
    ..@...
    .@@@..
    ..@...

u+0320:
uni0320:
    ......
    ......
    ......
    ......
    ......
    ......
    ......
    ......
    ......
    ......
    ......
    .@@@..

u+0321:
uni0321:
    ......
    ......
    ......
    ......
    ......
    ......
    ......
    ......
    ......
    ....@.
    ..@.@.
    ...@..

u+0322:
uni0322:
    ......
    ......
    ......
    ......
    ......
    ......
    ......
    ......
    ......
    ....@.
    ....@.
    .....@

u+0323:
dotbelowcomb:
    ......
    ......
    ......
    ......
    ......
    ......
    ......
    ......
    ......
    ......
    ......
    ..@...

u+0324:
uni0324:
    ......
    ......
    ......
    ......
    ......
    ......
    ......
    ......
    ......
    ......
    ......
    .@.@..

u+0325:
uni0325:
    ......
    ......
    ......
    ......
    ......
    ......
    ......
    ......
    ......
    ..@...
    .@.@..
    ..@...

u+0326:
uni0326:
    ......
    ......
    ......
    ......
    ......
    ......
    ......
    ......
    ......
    ......
    ...@..
    ..@...

u+0327:
uni0327:
    ......
    ......
    ......
    ......
    ......
    ......
    ......
    ......
    ......
    ......
    ...@..
    ..@...

u+0328:
uni0328:
    ......
    ......
    ......
    ......
    ......
    ......
    ......
    ......
    ......
    ......
    ..@...
    ...@..

u+0329:
uni0329:
    ......
    ......
    ......
    ......
    ......
    ......
    ......
    ......
    ......
    ......
    ..@...
    ..@...

u+032a:
uni032A:
    ......
    ......
    ......
    ......
    ......
    ......
    ......
    ......
    ......
    ......
    .@@@@.
    .@..@.

u+032b:
uni032B:
    ......
    ......
    ......
    ......
    ......
    ......
    ......
    ......
    ......
    ......
    @.@.@.
    .@.@..

u+032c:
uni032C:
    ......
    ......
    ......
    ......
    ......
    ......
    ......
    ......
    ......
    ......
    .@..@.
    ..@@..

u+032d:
uni032D:
    ......
    ......
    ......
    ......
    ......
    ......
    ......
    ......
    ......
    ......
    ..@@..
    .@..@.

u+032e:
uni032E:
    ......
    ......
    ......
    ......
    ......
    ......
    ......
    ......
    ......
    ......
    @...@.
    .@@@..

u+032f:
uni032F:
    ......
    ......
    ......
    ......
    ......
    ......
    ......
    ......
    ......
    ......
    .@@@..
    @...@.

u+0330:
uni0330:
    ......
    ......
    ......
    ......
    ......
    ......
    ......
    ......
    ......
    ......
    ..@.@.
    .@.@..

u+0331:
uni0331:
    ......
    ......
    ......
    ......
    ......
    ......
    ......
    ......
    ......
    ......
    ......
    @@@@@.

u+0332:
uni0332:
    ......
    ......
    ......
    ......
    ......
    ......
    ......
    ......
    ......
    ......
    ......
    @@@@@@

u+0333:
uni0333:
    ......
    ......
    ......
    ......
    ......
    ......
    ......
    ......
    ......
    @@@@@@
    ......
    @@@@@@

u+0334:
uni0334:
    ......
    ......
    ......
    ......
    ......
    ......
    ..@.@.
    .@.@..
    ......
    ......
    ......
    ......

u+0335:
uni0335:
    ......
    ......
    ......
    ......
    ......
    ......
    .@@@..
    ......
    ......
    ......
    ......
    ......

u+0336:
uni0336:
    ......
    ......
    ......
    ......
    ......
    ......
    @@@@@.
    ......
    ......
    ......
    ......
    ......

u+0337:
uni0337:
    ......
    ......
    ......
    ......
    ......
    ...@..
    ..@...
    .@....
    ......
    ......
    ......
    ......

u+0338:
uni0338:
    ......
    ....@.
    ....@.
    ...@..
    ...@..
    ..@...
    .@....
    .@....
    @.....
    @.....
    ......
    ......

u+0339:
uni0339:
    ......
    ......
    ......
    ......
    ......
    ......
    ......
    ......
    ......
    ..@...
    ...@..
    ..@...

u+033a:
uni033A:
    ......
    ......
    ......
    ......
    ......
    ......
    ......
    ......
    ......
    ......
    .@..@.
    .@@@@.

u+033b:
uni033B:
    ......
    ......
    ......
    ......
    ......
    ......
    ......
    ......
    ......
    .@@@..
    .@.@..
    .@@@..

u+033c:
uni033C:
    ......
    ......
    ......
    ......
    ......
    ......
    ......
    ......
    ......
    ......
    .@.@..
    @.@.@.

u+033d:
uni033D:
    .@.@..
    ..@...
    .@.@..
    ......
    ......
    ......
    ......
    ......
    ......
    ......
    ......
    ......

u+033e:
uni033E:
    ...@..
    ..@...
    ...@..
    ..@...
    ......
    ......
    ......
    ......
    ......
    ......
    ......
    ......

u+033f:
uni033F:
    @@@@@@
    ......
    @@@@@@
    ......
    ......
    ......
    ......
    ......
    ......
    ......
    ......
    ......

u+0340:
uni0340:
    .@....
    ..@...
    ......
    ......
    ......
    ......
    ......
    ......
    ......
    ......
    ......
    ......

u+0341:
uni0341:
    ...@..
    ..@...
    ......
    ......
    ......
    ......
    ......
    ......
    ......
    ......
    ......
    ......

u+0342:
uni0342:
    .@@.@.
    @.@@..
    ......
    ......
    ......
    ......
    ......
    ......
    ......
    ......
    ......
    ......

u+0343:
uni0343:
    ..@@..
    ...@..
    ..@...
    ......
    ......
    ......
    ......
    ......
    ......
    ......
    ......
    ......

u+0344:
uni0344:
    ...@..
    ..@...
    @@.@@.
    ......
    ......
    ......
    ......
    ......
    ......
    ......
    ......
    ......

u+0345:
uni0345:
    ......
    ......
    ......
    ......
    ......
    ......
    ......
    ......
    ......
    ......
    ......
    ..@...

u+0346:
uni0346:
    .@@@..
    .@.@..
    ......
    ......
    ......
    ......
    ......
    ......
    ......
    ......
    ......
    ......

u+0347:
uni0347:
    ......
    ......
    ......
    ......
    ......
    ......
    ......
    ......
    ......
    @@@@@.
    ......
    @@@@@.

u+0348:
uni0348:
    ......
    ......
    ......
    ......
    ......
    ......
    ......
    ......
    ......
    ......
    .@.@..
    .@.@..

u+0349:
uni0349:
    ......
    ......
    ......
    ......
    ......
    ......
    ......
    ......
    ......
    ......
    ..@@..
    ...@..

u+034a:
uni034A:
    ......
    ..@...
    .@@.@.
    @.@@..
    ..@...
    ......
    ......
    ......
    ......
    ......
    ......
    ......

u+034b:
uni034B:
    ...@..
    ......
    .@@.@.
    @.@@..
    ......
    .@....
    ......
    ......
    ......
    ......
    ......
    ......

u+034c:
uni034C:
    .@@.@.
    @.@@..
    .@@.@.
    @.@@..
    ......
    ......
    ......
    ......
    ......
    ......
    ......
    ......

u+034d:
uni034D:
    ......
    ......
    ......
    ......
    ......
    ......
    ......
    ......
    ......
    .@.@..
    @@@@@.
    .@.@..

u+034e:
uni034E:
    ......
    ......
    ......
    ......
    ......
    ......
    ......
    ......
    ......
    ......
    ..@...
    .@@@..

u+034f:
uni034F:
    ......
    ......
    ......
    ......
    ......
    ......
    ......
    ......
    ......
    ......
    ......
    ......

u+0350:
uni0350:
    @@@...
    ..@@@.
    @@@...
    ......
    ......
    ......
    ......
    ......
    ......
    ......
    ......
    ......

u+0351:
uni0351:
    ..@...
    .@....
    ..@...
    ......
    ......
    ......
    ......
    ......
    ......
    ......
    ......
    ......

u+0352:
uni0352:
    .@@@..
    @...@.
    ..@...
    ......
    ......
    ......
    ......
    ......
    ......
    ......
    ......
    ......

u+0353:
uni0353:
    ......
    ......
    ......
    ......
    ......
    ......
    ......
    ......
    ......
    .@.@..
    ..@...
    .@.@..

u+0354:
uni0354:
    ......
    ......
    ......
    ......
    ......
    ......
    ......
    ......
    ......
    ..@@@.
    @@@...
    ..@@@.

u+0355:
uni0355:
    ......
    ......
    ......
    ......
    ......
    ......
    ......
    ......
    ......
    @@@...
    ..@@@.
    @@@...

u+0356:
uni0356:
    ......
    ......
    ......
    ......
    ......
    ......
    ......
    ......
    ....@.
    @@..@.
    ..@@.@
    @@.@.@

u+0357:
uni0357:
    ..@...
    ...@..
    ..@...
    ......
    ......
    ......
    ......
    ......
    ......
    ......
    ......
    ......

u+0358:
uni0358:
    ...@@.
    ...@@.
    ......
    ......
    ......
    ......
    ......
    ......
    ......
    ......
    ......
    ......

u+0359:
uni0359:
    ......
    ......
    ......
    ......
    ......
    ......
    ......
    ......
    ......
    .@@@..
    ..@...
    .@@@..

u+035a:
uni035A:
    ......
    ......
    ......
    ......
    ......
    ......
    ......
    ......
    ......
    .@.@..
    @.@.@.
    .@.@..

u+035b:
uni035B:
    .@....
    .@@@..
    ...@..
    ......
    ......
    ......
    ......
    ......
    ......
    ......
    ......
    ......

u+035c:
uni035C:
    ......
    ......
    ......
    ......
    ......
    ......
    ......
    ......
    ......
    ......
    .@...@
    ..@@@.

u+035d:
uni035D:
    ..@@@.
    .@...@
    ......
    ......
    ......
    ......
    ......
    ......
    ......
    ......
    ......
    ......

u+035e:
uni035E:
    .@@@@@
    ......
    ......
    ......
    ......
    ......
    ......
    ......
    ......
    ......
    ......
    ......

u+035f:
uni035F:
    ......
    ......
    ......
    ......
    ......
    ......
    ......
    ......
    ......
    ......
    ......
    .@@@@@

u+0360:
uni0360:
    ..@@..
    .@..@@
    ......
    ......
    ......
    ......
    ......
    ......
    ......
    ......
    ......
    ......

u+0361:
uni0361:
    ..@@@.
    .@...@
    ......
    ......
    ......
    ......
    ......
    ......
    ......
    ......
    ......
    ......

u+0362:
uni0362:
    ......
    ......
    ......
    ......
    ......
    ......
    ......
    ......
    ......
    ....@.
    .@@@@@
    ....@.

u+0363:
uni0363:
    ..@...
    .@.@..
    .@.@..
    ..@@..
    ......
    ......
    ......
    ......
    ......
    ......
    ......
    ......

u+0364:
uni0364:
    ..@...
    .@@@..
    .@....
    ..@@..
    ......
    ......
    ......
    ......
    ......
    ......
    ......
    ......

u+0365:
uni0365:
    ..@...
    ......
    ..@...
    ..@...
    ......
    ......
    ......
    ......
    ......
    ......
    ......
    ......

u+0366:
uni0366:
    ..@@..
    .@..@.
    .@..@.
    ..@@..
    ......
    ......
    ......
    ......
    ......
    ......
    ......
    ......

u+0367:
uni0367:
    .@.@..
    .@.@..
    ..@@..
    ......
    ......
    ......
    ......
    ......
    ......
    ......
    ......
    ......

u+0368:
uni0368:
    ..@@..
    .@....
    ..@@..
    ......
    ......
    ......
    ......
    ......
    ......
    ......
    ......
    ......

u+0369:
uni0369:
    ...@..
    ..@@..
    .@.@..
    ..@@..
    ......
    ......
    ......
    ......
    ......
    ......
    ......
    ......

u+036a:
uni036A:
    .@....
    .@@...
    .@.@..
    ......
    ......
    ......
    ......
    ......
    ......
    ......
    ......
    ......

u+036b:
uni036B:
    @@.@..
    @.@.@.
    @.@.@.
    ......
    ......
    ......
    ......
    ......
    ......
    ......
    ......
    ......

u+036c:
uni036C:
    .@.@..
    .@@...
    .@....
    .@....
    ......
    ......
    ......
    ......
    ......
    ......
    ......
    ......

u+036d:
uni036D:
    ..@...
    .@@@..
    ..@...
    ..@@..
    ......
    ......
    ......
    ......
    ......
    ......
    ......
    ......

u+036e:
uni036E:
    .@.@..
    .@.@..
    ..@...
    ..@...
    ......
    ......
    ......
    ......
    ......
    ......
    ......
    ......

u+036f:
uni036F:
    .@.@..
    ..@...
    .@.@..
    ......
    ......
    ......
    ......
    ......
    ......
    ......
    ......
    ......

u+0370:
uni0370:
    ......
    ......
    ......
    @.....
    @.....
    @.....
    @@@@..
    @.....
    @.....
    @.....
    ......
    ......

u+0371:
uni0371:
    ......
    ......
    ......
    ......
    .@@...
    @.@...
    ..@@@.
    ..@...
    ..@...
    ..@...
    ......
    ......

u+0372:
uni0372:
    ......
    ......
    ......
    @@@@@.
    @.@.@.
    @.@.@.
    ..@...
    ..@...
    ..@...
    .@@@..
    ......
    ......

u+0373:
uni0373:
    ......
    ......
    ......
    @@@@@.
    @.@.@.
    ..@...
    ..@...
    ..@...
    ..@...
    ..@...
    ......
    ......

u+0374:
uni0374:
    ......
    ...@..
    ..@...
    ......
    ......
    ......
    ......
    ......
    ......
    ......
    ......
    ......

u+0375:
uni0375:
    ......
    ......
    ......
    ......
    ......
    ......
    ......
    ......
    ......
    ......
    ...@..
    ..@...

u+0376:
uni0376:
    ......
    ......
    ......
    @...@.
    @..@@.
    @..@@.
    @.@.@.
    @@..@.
    @@..@.
    @...@.
    ......
    ......

u+0377:
uni0377:
    ......
    ......
    ......
    ......
    ......
    @..@..
    @.@@..
    @@.@..
    @..@..
    @..@..
    ....@.
    ......

u+037a:
uni037A:
    ......
    ......
    ......
    ......
    ......
    ......
    ......
    ......
    ......
    ......
    ..@...
    ..@@..

u+037b:
uni037B:
    ......
    ......
    ......
    ......
    ......
    .@@@..
    @...@.
    ....@.
    @...@.
    .@@@..
    ......
    ......

u+037c:
uni037C:
    ......
    ......
    ......
    ......
    ......
    .@@@..
    @...@.
    @.@...
    @...@.
    .@@@..
    ......
    ......

u+037d:
uni037D:
    ......
    ......
    ......
    ......
    ......
    .@@@..
    @...@.
    ..@.@.
    @...@.
    .@@@..
    ......
    ......

u+037e:
uni037E:
    ......
    ......
    ......
    ......
    ..@...
    .@@@..
    ..@...
    ......
    ..@@..
    ..@...
    .@....
    ......

u+0384:
tonos:
    ......
    ...@..
    ..@...
    ......
    ......
    ......
    ......
    ......
    ......
    ......
    ......
    ......

u+0385:
dieresistonos:
    ...@..
    ..@...
    ......
    .@.@..
    ......
    ......
    ......
    ......
    ......
    ......
    ......
    ......

u+0386:
Alphatonos:
    .@....
    @.....
    ......
    .@@@..
    @...@.
    @...@.
    @@@@@.
    @...@.
    @...@.
    @...@.
    ......
    ......

u+0387:
anoteleia:
    ......
    ......
    ......
    ......
    ......
    ..@@..
    ..@@..
    ......
    ......
    ......
    ......
    ......

u+0388:
Epsilontonos:
    .@....
    @.....
    ......
    @@@@@.
    @.....
    @.....
    @@@@..
    @.....
    @.....
    @@@@@.
    ......
    ......

u+0389:
Etatonos:
    .@....
    @.....
    ......
    @...@.
    @...@.
    @...@.
    @@@@@.
    @...@.
    @...@.
    @...@.
    ......
    ......

u+038a:
Iotatonos:
    .@....
    @.....
    ......
    .@@@..
    ..@...
    ..@...
    ..@...
    ..@...
    ..@...
    .@@@..
    ......
    ......

u+038c:
Omicrontonos:
    .@....
    @.....
    ......
    .@@@..
    @...@.
    @...@.
    @...@.
    @...@.
    @...@.
    .@@@..
    ......
    ......

u+038e:
Upsilontonos:
    .@....
    @.....
    ......
    @...@.
    @...@.
    .@.@..
    ..@...
    ..@...
    ..@...
    ..@...
    ......
    ......

u+038f:
Omegatonos:
    .@....
    @.....
    ......
    .@@@..
    @...@.
    @...@.
    @...@.
    @...@.
    .@.@..
    @@.@@.
    ......
    ......

u+0390:
iotadieresistonos:
    ...@..
    ..@...
    ......
    .@.@..
    ......
    ..@...
    ..@...
    ..@...
    ..@.@.
    ...@..
    ......
    ......

u+0391:
Alpha:
    ......
    ......
    ......
    .@@@..
    @...@.
    @...@.
    @@@@@.
    @...@.
    @...@.
    @...@.
    ......
    ......

u+0392:
Beta:
    ......
    ......
    ......
    @@@@..
    @...@.
    @...@.
    @@@@..
    @...@.
    @...@.
    @@@@..
    ......
    ......

u+0393:
Gamma:
    ......
    ......
    ......
    @@@@@.
    @.....
    @.....
    @.....
    @.....
    @.....
    @.....
    ......
    ......

u+0394:
Delta:
    ......
    ......
    ......
    ..@...
    ..@...
    .@.@..
    .@.@..
    @...@.
    @...@.
    @@@@@.
    ......
    ......

u+0395:
Epsilon:
    ......
    ......
    ......
    @@@@@.
    @.....
    @.....
    @@@@..
    @.....
    @.....
    @@@@@.
    ......
    ......

u+0396:
Zeta:
    ......
    ......
    ......
    @@@@@.
    ....@.
    ...@..
    ..@...
    .@....
    @.....
    @@@@@.
    ......
    ......

u+0397:
Eta:
    ......
    ......
    ......
    @...@.
    @...@.
    @...@.
    @@@@@.
    @...@.
    @...@.
    @...@.
    ......
    ......

u+0398:
Theta:
    ......
    ......
    ......
    .@@@..
    @...@.
    @...@.
    @@@@@.
    @...@.
    @...@.
    .@@@..
    ......
    ......

u+0399:
Iota:
    ......
    ......
    ......
    .@@@..
    ..@...
    ..@...
    ..@...
    ..@...
    ..@...
    .@@@..
    ......
    ......

u+039a:
Kappa:
    ......
    ......
    ......
    @...@.
    @..@..
    @.@...
    @@....
    @.@...
    @..@..
    @...@.
    ......
    ......

u+039b:
Lambda:
    ......
    ......
    ......
    ..@...
    ..@...
    .@.@..
    .@.@..
    @...@.
    @...@.
    @...@.
    ......
    ......

u+039c:
Mu:
    ......
    ......
    ......
    @...@.
    @@.@@.
    @.@.@.
    @...@.
    @...@.
    @...@.
    @...@.
    ......
    ......

u+039d:
Nu:
    ......
    ......
    ......
    @...@.
    @...@.
    @@..@.
    @.@.@.
    @..@@.
    @...@.
    @...@.
    ......
    ......

u+039e:
Xi:
    ......
    ......
    ......
    @@@@@.
    ......
    ......
    .@@@..
    ......
    ......
    @@@@@.
    ......
    ......

u+039f:
Omicron:
    ......
    ......
    ......
    .@@@..
    @...@.
    @...@.
    @...@.
    @...@.
    @...@.
    .@@@..
    ......
    ......

u+03a0:
Pi:
    ......
    ......
    ......
    @@@@@.
    @...@.
    @...@.
    @...@.
    @...@.
    @...@.
    @...@.
    ......
    ......

u+03a1:
Rho:
    ......
    ......
    ......
    @@@@..
    @...@.
    @...@.
    @@@@..
    @.....
    @.....
    @.....
    ......
    ......

u+03a3:
Sigma:
    ......
    ......
    ......
    @@@@@.
    .@....
    ..@...
    ...@..
    ..@...
    .@....
    @@@@@.
    ......
    ......

u+03a4:
Tau:
    ......
    ......
    ......
    @@@@@.
    ..@...
    ..@...
    ..@...
    ..@...
    ..@...
    ..@...
    ......
    ......

u+03a5:
Upsilon:
    ......
    ......
    ......
    @...@.
    @...@.
    .@.@..
    ..@...
    ..@...
    ..@...
    ..@...
    ......
    ......

u+03a6:
Phi:
    ......
    ......
    ......
    ..@...
    .@@@..
    @.@.@.
    @.@.@.
    @.@.@.
    .@@@..
    ..@...
    ......
    ......

u+03a7:
Chi:
    ......
    ......
    ......
    @...@.
    @...@.
    .@.@..
    ..@...
    .@.@..
    @...@.
    @...@.
    ......
    ......

u+03a8:
Psi:
    ......
    ......
    ......
    @.@.@.
    @.@.@.
    @.@.@.
    @.@.@.
    .@@@..
    ..@...
    ..@...
    ......
    ......

u+03a9:
Omega:
    ......
    ......
    ......
    .@@@..
    @...@.
    @...@.
    @...@.
    @...@.
    .@.@..
    @@.@@.
    ......
    ......

u+03aa:
Iotadieresis:
    ......
    .@.@..
    ......
    .@@@..
    ..@...
    ..@...
    ..@...
    ..@...
    ..@...
    .@@@..
    ......
    ......

u+03ab:
Upsilondieresis:
    ......
    .@.@..
    ......
    @...@.
    @...@.
    .@.@..
    ..@...
    ..@...
    ..@...
    ..@...
    ......
    ......

u+03ac:
alphatonos:
    ......
    ......
    ...@..
    ..@...
    ......
    .@@.@.
    @..@..
    @..@..
    @..@..
    .@@.@.
    ......
    ......

u+03ad:
epsilontonos:
    ......
    ......
    ...@..
    ..@...
    ......
    .@@@..
    @...@.
    .@@...
    @...@.
    .@@@..
    ......
    ......

u+03ae:
etatonos:
    ......
    ......
    ...@..
    ..@...
    ......
    @.@@..
    @@..@.
    @...@.
    @...@.
    @...@.
    ....@.
    ....@.

u+03af:
iotatonos:
    ......
    ......
    ..@...
    .@....
    ......
    .@....
    .@....
    .@....
    .@.@..
    ..@...
    ......
    ......

u+03b0:
upsilondieresistonos:
    ...@..
    ..@...
    ......
    .@.@..
    ......
    @..@..
    @...@.
    @...@.
    @...@.
    .@@@..
    ......
    ......

u+03b1:
alpha:
    ......
    ......
    ......
    ......
    ......
    .@@.@.
    @..@..
    @..@..
    @..@..
    .@@.@.
    ......
    ......

u+03b2:
beta:
    ......
    ......
    ......
    .@@...
    @..@..
    @..@..
    @.@@..
    @...@.
    @...@.
    @@@@..
    @.....
    @.....

u+03b3:
gamma:
    ......
    ......
    ......
    ......
    ......
    @...@.
    @...@.
    .@.@..
    .@.@..
    ..@...
    ..@...
    ..@...

u+03b4:
delta:
    ......
    ......
    ......
    .@@@..
    @.....
    .@@@..
    @...@.
    @...@.
    @...@.
    .@@@..
    ......
    ......

u+03b5:
epsilon:
    ......
    ......
    ......
    ......
    ......
    .@@@..
    @...@.
    .@@...
    @...@.
    .@@@..
    ......
    ......

u+03b6:
zeta:
    ......
    ......
    ......
    @@@@@.
    ..@...
    .@....
    .@....
    .@....
    ..@@..
    ....@.
    ..@@..
    ......

u+03b7:
eta:
    ......
    ......
    ......
    ......
    ......
    @.@@..
    @@..@.
    @...@.
    @...@.
    @...@.
    ....@.
    ....@.

u+03b8:
theta:
    ......
    ......
    ......
    ..@@..
    .@..@.
    .@..@.
    .@@@@.
    .@..@.
    .@..@.
    ..@@..
    ......
    ......

u+03b9:
iota:
    ......
    ......
    ......
    ......
    ......
    ..@...
    ..@...
    ..@...
    ..@.@.
    ...@..
    ......
    ......

u+03ba:
kappa:
    ......
    ......
    ......
    ......
    ......
    .@..@.
    .@.@..
    .@@...
    .@.@..
    .@..@.
    ......
    ......

u+03bb:
lambda:
    ......
    @.....
    .@....
    .@....
    ..@...
    ..@...
    .@.@..
    .@.@..
    @...@.
    @...@.
    ......
    ......

u+03bc:
mu:
    ......
    ......
    ......
    ......
    ......
    @...@.
    @...@.
    @...@.
    @..@@.
    @@@.@.
    @.....
    @.....

u+03bd:
nu:
    ......
    ......
    ......
    ......
    ......
    @...@.
    @...@.
    .@.@..
    .@.@..
    ..@...
    ......
    ......

u+03be:
xi:
    ......
    ......
    ......
    @@@@@.
    ..@...
    .@....
    .@@@..
    @.....
    @.....
    .@@@..
    ....@.
    ...@..

u+03bf:
omicron:
    ......
    ......
    ......
    ......
    ......
    .@@@..
    @...@.
    @...@.
    @...@.
    .@@@..
    ......
    ......

u+03c0:
pi:
    ......
    ......
    ......
    ......
    ......
    @@@@@.
    .@.@..
    .@.@..
    .@.@.@
    .@..@.
    ......
    ......

u+03c1:
rho:
    ......
    ......
    ......
    ......
    ......
    .@@@..
    @...@.
    @...@.
    @@..@.
    @.@@..
    @.....
    @.....

u+03c2:
sigma1:
    ......
    ......
    ......
    ......
    ......
    .@@@..
    @...@.
    @.....
    @.....
    .@@@..
    ....@.
    ..@@..

u+03c3:
sigma:
    ......
    ......
    ......
    ......
    ......
    .@@@@.
    @..@..
    @...@.
    @...@.
    .@@@..
    ......
    ......

u+03c4:
tau:
    ......
    ......
    ......
    ......
    ......
    @@@@@.
    ..@...
    ..@...
    ..@.@.
    ...@..
    ......
    ......

u+03c5:
upsilon:
    ......
    ......
    ......
    ......
    ......
    @..@..
    @...@.
    @...@.
    @...@.
    .@@@..
    ......
    ......

u+03c6:
phi:
    ......
    ......
    ......
    ......
    ......
    ...@..
    @.@.@.
    @.@.@.
    @.@.@.
    .@@@..
    ..@...
    ..@...

u+03c7:
chi:
    ......
    ......
    ......
    ......
    ......
    @...@.
    @...@.
    .@.@..
    ..@...
    .@.@..
    @...@.
    @...@.

u+03c8:
psi:
    ......
    ......
    ......
    ......
    ......
    @.@.@.
    @.@.@.
    @.@.@.
    @.@.@.
    .@@@..
    ..@...
    ..@...

u+03c9:
omega:
    ......
    ......
    ......
    ......
    ......
    .@.@..
    @...@.
    @.@.@.
    @.@.@.
    .@.@..
    ......
    ......

u+03ca:
iotadieresis:
    ......
    ......
    ......
    .@.@..
    ......
    ..@...
    ..@...
    ..@...
    ..@.@.
    ...@..
    ......
    ......

u+03cb:
upsilondieresis:
    ......
    ......
    ......
    .@.@..
    ......
    @..@..
    @...@.
    @...@.
    @...@.
    .@@@..
    ......
    ......

u+03cc:
omicrontonos:
    ......
    ......
    ...@..
    ..@...
    ......
    .@@@..
    @...@.
    @...@.
    @...@.
    .@@@..
    ......
    ......

u+03cd:
upsilontonos:
    ......
    ......
    ...@..
    ..@...
    ......
    @..@..
    @...@.
    @...@.
    @...@.
    .@@@..
    ......
    ......

u+03ce:
omegatonos:
    ......
    ......
    ...@..
    ..@...
    ......
    .@.@..
    @...@.
    @.@.@.
    @.@.@.
    .@.@..
    ......
    ......

u+03cf:
uni03CF:
    ......
    ......
    ......
    @...@.
    @..@..
    @.@...
    @@....
    @.@...
    @..@..
    @...@.
    ..@@..
    ...@..

u+03d0:
uni03D0:
    ......
    ......
    ......
    .@@...
    @..@..
    @..@..
    @.@@..
    @@..@.
    @...@.
    .@@@..
    ......
    ......

u+03d1:
theta1:
    ......
    ......
    ......
    ..@@..
    .@..@.
    ..@@@@
    ....@.
    @@..@.
    .@..@.
    ..@@..
    ......
    ......

u+03d2:
Upsilon1:
    ......
    ......
    ......
    @...@.
    .@.@.@
    ..@...
    ..@...
    ..@...
    ..@...
    ..@...
    ......
    ......

u+03d3:
uni03D3:
    .@....
    @.....
    ......
    @...@.
    .@.@.@
    ..@...
    ..@...
    ..@...
    ..@...
    ..@...
    ......
    ......

u+03d4:
uni03D4:
    ......
    @@.@@.
    ......
    @...@.
    .@.@.@
    ..@...
    ..@...
    ..@...
    ..@...
    ..@...
    ......
    ......

u+03d5:
phi1:
    ......
    ......
    ......
    ..@...
    ..@...
    .@@@..
    @.@.@.
    @.@.@.
    @.@.@.
    .@@@..
    ..@...
    ..@...

u+03d6:
omega1:
    ......
    ......
    ......
    ......
    ......
    @@@@@.
    @...@.
    @.@.@.
    @.@.@.
    .@.@..
    ......
    ......

u+03d7:
uni03D7:
    ......
    ......
    ......
    ......
    ......
    @...@.
    .@..@.
    .@@@..
    .@.@..
    @...@.
    ....@.
    ..@@..

u+03d8:
uni03D8:
    ......
    ......
    ......
    .@@@..
    @...@.
    @...@.
    @...@.
    @...@.
    @...@.
    .@@@..
    ..@...
    ..@...

u+03d9:
uni03D9:
    ......
    ......
    ......
    ......
    ......
    .@@@..
    @...@.
    @...@.
    @...@.
    .@@@..
    ..@...
    ..@...

u+03da:
uni03DA:
    ......
    ......
    ......
    .@@@..
    @...@.
    @...@.
    @.....
    @.....
    .@@@..
    ...@..
    ......
    ......

u+03db:
uni03DB:
    ......
    ......
    ......
    ......
    ....@.
    .@@@..
    @.....
    @.....
    @.....
    .@@@..
    ....@.
    ..@@..

u+03dc:
uni03DC:
    ......
    ......
    ......
    @@@@@.
    @.....
    @.....
    @@@...
    @.....
    @.....
    @.....
    ......
    ......

u+03dd:
uni03DD:
    ......
    ......
    ......
    ......
    ......
    .@@@@.
    .@....
    .@....
    .@@@..
    .@....
    .@....
    .@....

u+03de:
uni03DE:
    ......
    ......
    ......
    .@....
    .@....
    @.....
    @@@@@.
    ....@.
    ...@..
    ...@..
    ......
    ......

u+03df:
uni03DF:
    ......
    ......
    ......
    ......
    @.....
    .@....
    .@..@.
    .@.@@.
    .@@.@.
    .@..@.
    ....@.
    .....@

u+03e0:
uni03E0:
    ......
    ......
    ......
    @@@...
    ..@@..
    .@..@.
    ...@@.
    ..@.@.
    ....@.
    ...@..
    ......
    ......

u+03e1:
uni03E1:
    ......
    ......
    ......
    @@....
    ..@...
    ...@..
    ..@@..
    .@..@.
    ...@@.
    ..@.@.
    ....@.
    ....@.

u+03e2:
uni03E2:
    ......
    ......
    ......
    @.@.@.
    @.@.@.
    @.@.@.
    @.@.@.
    @.@.@.
    .@.@@.
    ....@.
    @@@@..
    ......

u+03e3:
uni03E3:
    ......
    ......
    ......
    ......
    ......
    @.@.@.
    @.@.@.
    @.@.@.
    .@.@@.
    ....@.
    @@@@..
    ......

u+03e4:
uni03E4:
    ......
    ......
    ......
    .@..@.
    @...@.
    @...@.
    @...@.
    @...@.
    @..@@.
    .@@.@.
    ....@.
    ....@.

u+03e5:
uni03E5:
    ......
    ......
    ......
    ......
    ......
    .@..@.
    @...@.
    @...@.
    @...@.
    .@@@@.
    ....@.
    ....@.

u+03e6:
uni03E6:
    ......
    ......
    ......
    @.....
    @.....
    @.@@..
    @@..@.
    @...@.
    @...@.
    ....@.
    .@@@..
    ......

u+03e7:
uni03E7:
    ......
    ......
    ......
    ......
    .@@.@@
    @..@..
    .@@.@.
    ....@.
    @@..@.
    @.@@..
    ......
    ......

u+03e8:
uni03E8:
    ......
    ......
    ......
    .@@@..
    @...@.
    @...@.
    ...@..
    ..@...
    .@....
    @...@.
    .@@@..
    ......

u+03e9:
uni03E9:
    ......
    ......
    ......
    ......
    .@@@..
    @...@.
    @...@.
    ...@..
    .@@...
    @.....
    .@@@@.
    ......

u+03ea:
uni03EA:
    ......
    ......
    ......
    @...@.
    .@.@..
    ..@...
    .@.@..
    .@.@..
    @...@.
    @@@@@.
    ......
    ......

u+03eb:
uni03EB:
    ......
    ......
    ......
    ......
    @...@.
    .@.@..
    ..@...
    .@.@..
    @...@.
    @@@@@.
    ......
    ......

u+03ec:
uni03EC:
    ......
    ......
    ......
    ..@@@.
    .@....
    @.....
    @@@...
    @..@..
    @...@.
    @@@@..
    ......
    ......

u+03ed:
uni03ED:
    ......
    ......
    ......
    ......
    ..@@..
    .@....
    @.....
    @@@...
    @..@..
    @@@...
    ......
    ......

u+03ee:
uni03EE:
    ......
    ......
    ......
    ..@...
    ..@...
    @@@@@.
    @.@.@.
    ..@...
    ..@...
    ..@@..
    ......
    ......

u+03ef:
uni03EF:
    ......
    ......
    ......
    ..@...
    ..@...
    @@@@@.
    @.@...
    ..@...
    ..@...
    ..@...
    ..@...
    ..@...

u+03f0:
uni03F0:
    ......
    ......
    ......
    ......
    ......
    @...@.
    .@..@.
    .@@@..
    .@.@..
    @...@.
    ......
    ......

u+03f1:
uni03F1:
    ......
    ......
    ......
    ......
    ......
    .@@@..
    @...@.
    @...@.
    @...@.
    @@@@..
    @.....
    .@@@@.

u+03f2:
uni03F2:
    ......
    ......
    ......
    ......
    ......
    .@@@..
    @...@.
    @.....
    @...@.
    .@@@..
    ......
    ......

u+03f3:
uni03F3:
    ......
    ......
    ......
    ...@..
    ......
    ..@@..
    ...@..
    ...@..
    ...@..
    ...@..
    .@.@..
    ..@...

u+03f4:
uni03F4:
    ......
    ......
    ......
    .@@@..
    @...@.
    @...@.
    @@@@@.
    @...@.
    @...@.
    .@@@..
    ......
    ......

u+03f5:
uni03F5:
    ......
    ......
    ......
    ......
    ......
    ..@@@.
    .@....
    .@@@..
    .@....
    ..@@@.
    ......
    ......

u+03f6:
uni03F6:
    ......
    ......
    ......
    ......
    ......
    .@@@..
    ....@.
    ..@@@.
    ....@.
    .@@@..
    ......
    ......

u+03f7:
uni03F7:
    ......
    ......
    @@@...
    .@....
    .@@@..
    .@..@.
    .@..@.
    .@@@..
    .@....
    @@@...
    ......
    ......

u+03f8:
uni03F8:
    ......
    ......
    @.....
    @.@@..
    @@..@.
    @...@.
    @...@.
    @@..@.
    @.@@..
    @.....
    ......
    ......

u+03f9:
uni03F9:
    ......
    ......
    ......
    .@@@..
    @...@.
    @.....
    @.....
    @.....
    @...@.
    .@@@..
    ......
    ......

u+03fa:
uni03FA:
    ......
    ......
    ......
    @...@.
    @@.@@.
    @.@.@.
    @...@.
    @...@.
    @...@.
    @...@.
    ......
    ......

u+03fb:
uni03FB:
    ......
    ......
    ......
    ......
    ......
    @...@.
    @@.@@.
    @.@.@.
    @...@.
    @...@.
    @.....
    @.....

u+03fc:
uni03FC:
    ......
    ......
    ......
    ......
    ......
    ..@@..
    .@..@.
    .@..@.
    .@@@..
    .@....
    @@@@..
    .@....

u+03fd:
uni03FD:
    ......
    ......
    ......
    .@@@..
    @...@.
    ....@.
    ....@.
    ....@.
    @...@.
    .@@@..
    ......
    ......

u+03fe:
uni03FE:
    ......
    ......
    ......
    .@@@..
    @...@.
    @.....
    @.@...
    @.....
    @...@.
    .@@@..
    ......
    ......

u+03ff:
uni03FF:
    ......
    ......
    ......
    .@@@..
    @...@.
    ....@.
    ..@.@.
    ....@.
    @...@.
    .@@@..
    ......
    ......

u+0400:
uni0400:
    .@....
    ..@...
    ......
    @@@@@.
    @.....
    @.....
    @@@@..
    @.....
    @.....
    @@@@@.
    ......
    ......

u+0401:
afii10023:
    ......
    .@.@..
    ......
    @@@@@.
    @.....
    @.....
    @@@@..
    @.....
    @.....
    @@@@@.
    ......
    ......

u+0402:
afii10051:
    ......
    ......
    ......
    @@@...
    .@....
    .@....
    .@@@..
    .@..@.
    .@..@.
    .@..@.
    ....@.
    ..@@..

u+0403:
afii10052:
    ...@..
    ..@...
    ......
    @@@@@.
    @.....
    @.....
    @.....
    @.....
    @.....
    @.....
    ......
    ......

u+0404:
afii10053:
    ......
    ......
    ......
    .@@@..
    @...@.
    @.....
    @@@@..
    @.....
    @...@.
    .@@@..
    ......
    ......

u+0405:
afii10054:
    ......
    ......
    ......
    .@@@..
    @...@.
    @.....
    .@@@..
    ....@.
    @...@.
    .@@@..
    ......
    ......

u+0406:
afii10055:
    ......
    ......
    ......
    .@@@..
    ..@...
    ..@...
    ..@...
    ..@...
    ..@...
    .@@@..
    ......
    ......

u+0407:
afii10056:
    ......
    .@.@..
    ......
    .@@@..
    ..@...
    ..@...
    ..@...
    ..@...
    ..@...
    .@@@..
    ......
    ......

u+0408:
afii10057:
    ......
    ......
    ......
    ..@@@.
    ...@..
    ...@..
    ...@..
    ...@..
    @..@..
    .@@...
    ......
    ......

u+0409:
afii10058:
    ......
    ......
    ......
    .@@...
    @.@...
    @.@...
    @.@@..
    @.@.@.
    @.@.@.
    @.@@..
    ......
    ......

u+040a:
afii10059:
    ......
    ......
    ......
    @.@...
    @.@...
    @.@...
    @@@@..
    @.@.@.
    @.@.@.
    @.@@..
    ......
    ......

u+040b:
afii10060:
    ......
    ......
    ......
    @@@...
    .@....
    .@....
    .@@@..
    .@..@.
    .@..@.
    .@..@.
    ......
    ......

u+040c:
afii10061:
    ...@..
    ..@...
    ......
    @...@.
    @..@..
    @.@...
    @@....
    @.@...
    @..@..
    @...@.
    ......
    ......

u+040d:
uni040D:
    .@....
    ..@...
    ......
    @...@.
    @...@.
    @..@@.
    @.@.@.
    @@..@.
    @...@.
    @...@.
    ......
    ......

u+040e:
afii10062:
    @...@.
    .@@@..
    ......
    @...@.
    @...@.
    @...@.
    @...@.
    .@@@@.
    ....@.
    .@@@..
    ......
    ......

u+040f:
afii10145:
    ......
    ......
    ......
    @...@.
    @...@.
    @...@.
    @...@.
    @...@.
    @...@.
    @@@@@.
    ..@...
    ..@...

u+0410:
afii10017:
    ......
    ......
    ......
    .@@@..
    @...@.
    @...@.
    @@@@@.
    @...@.
    @...@.
    @...@.
    ......
    ......

u+0411:
afii10018:
    ......
    ......
    ......
    @@@@..
    @.....
    @.....
    @@@@..
    @...@.
    @...@.
    @@@@..
    ......
    ......

u+0412:
afii10019:
    ......
    ......
    ......
    @@@@..
    @...@.
    @...@.
    @@@@..
    @...@.
    @...@.
    @@@@..
    ......
    ......

u+0413:
afii10020:
    ......
    ......
    ......
    @@@@@.
    @.....
    @.....
    @.....
    @.....
    @.....
    @.....
    ......
    ......

u+0414:
afii10021:
    ......
    ......
    ......
    ..@@..
    .@.@..
    .@.@..
    .@.@..
    .@.@..
    .@.@..
    @@@@@.
    @...@.
    ......

u+0415:
afii10022:
    ......
    ......
    ......
    @@@@@.
    @.....
    @.....
    @@@@..
    @.....
    @.....
    @@@@@.
    ......
    ......

u+0416:
afii10024:
    ......
    ......
    ......
    @.@.@.
    @.@.@.
    .@@@..
    ..@...
    .@@@..
    @.@.@.
    @.@.@.
    ......
    ......

u+0417:
afii10025:
    ......
    ......
    ......
    .@@@..
    @...@.
    ....@.
    .@@@..
    ....@.
    @...@.
    .@@@..
    ......
    ......

u+0418:
afii10026:
    ......
    ......
    ......
    @...@.
    @...@.
    @..@@.
    @.@.@.
    @@..@.
    @...@.
    @...@.
    ......
    ......

u+0419:
afii10027:
    @...@.
    .@@@..
    ......
    @...@.
    @...@.
    @..@@.
    @.@.@.
    @@..@.
    @...@.
    @...@.
    ......
    ......

u+041a:
afii10028:
    ......
    ......
    ......
    @...@.
    @..@..
    @.@...
    @@....
    @.@...
    @..@..
    @...@.
    ......
    ......

u+041b:
afii10029:
    ......
    ......
    ......
    ..@@@.
    .@..@.
    .@..@.
    .@..@.
    .@..@.
    .@..@.
    @...@.
    ......
    ......

u+041c:
afii10030:
    ......
    ......
    ......
    @...@.
    @@.@@.
    @.@.@.
    @...@.
    @...@.
    @...@.
    @...@.
    ......
    ......

u+041d:
afii10031:
    ......
    ......
    ......
    @...@.
    @...@.
    @...@.
    @@@@@.
    @...@.
    @...@.
    @...@.
    ......
    ......

u+041e:
afii10032:
    ......
    ......
    ......
    .@@@..
    @...@.
    @...@.
    @...@.
    @...@.
    @...@.
    .@@@..
    ......
    ......

u+041f:
afii10033:
    ......
    ......
    ......
    @@@@@.
    @...@.
    @...@.
    @...@.
    @...@.
    @...@.
    @...@.
    ......
    ......

u+0420:
afii10034:
    ......
    ......
    ......
    @@@@..
    @...@.
    @...@.
    @@@@..
    @.....
    @.....
    @.....
    ......
    ......

u+0421:
afii10035:
    ......
    ......
    ......
    .@@@..
    @...@.
    @.....
    @.....
    @.....
    @...@.
    .@@@..
    ......
    ......

u+0422:
afii10036:
    ......
    ......
    ......
    @@@@@.
    ..@...
    ..@...
    ..@...
    ..@...
    ..@...
    ..@...
    ......
    ......

u+0423:
afii10037:
    ......
    ......
    ......
    @...@.
    @...@.
    @...@.
    @...@.
    .@@@@.
    ....@.
    .@@@..
    ......
    ......

u+0424:
afii10038:
    ......
    ......
    ......
    ..@...
    .@@@..
    @.@.@.
    @.@.@.
    @.@.@.
    .@@@..
    ..@...
    ......
    ......

u+0425:
afii10039:
    ......
    ......
    ......
    @...@.
    @...@.
    .@.@..
    ..@...
    .@.@..
    @...@.
    @...@.
    ......
    ......

u+0426:
afii10040:
    ......
    ......
    ......
    @..@..
    @..@..
    @..@..
    @..@..
    @..@..
    @..@..
    @@@@@.
    ....@.
    ....@.

u+0427:
afii10041:
    ......
    ......
    ......
    @...@.
    @...@.
    @...@.
    .@@@@.
    ....@.
    ....@.
    ....@.
    ......
    ......

u+0428:
afii10042:
    ......
    ......
    ......
    @.@.@.
    @.@.@.
    @.@.@.
    @.@.@.
    @.@.@.
    @.@.@.
    @@@@@.
    ......
    ......

u+0429:
afii10043:
    ......
    ......
    ......
    @.@.@.
    @.@.@.
    @.@.@.
    @.@.@.
    @.@.@.
    @.@.@.
    @@@@@.
    ....@.
    ....@.

u+042a:
afii10044:
    ......
    ......
    ......
    @@....
    .@....
    .@....
    .@@@..
    .@..@.
    .@..@.
    .@@@..
    ......
    ......

u+042b:
afii10045:
    ......
    ......
    ......
    @...@.
    @...@.
    @...@.
    @@..@.
    @.@.@.
    @.@.@.
    @@..@.
    ......
    ......

u+042c:
afii10046:
    ......
    ......
    ......
    .@....
    .@....
    .@....
    .@@@..
    .@..@.
    .@..@.
    .@@@..
    ......
    ......

u+042d:
afii10047:
    ......
    ......
    ......
    .@@@..
    @...@.
    ....@.
    .@@@@.
    ....@.
    @...@.
    .@@@..
    ......
    ......

u+042e:
afii10048:
    ......
    ......
    ......
    @..@..
    @.@.@.
    @.@.@.
    @@@.@.
    @.@.@.
    @.@.@.
    @..@..
    ......
    ......

u+042f:
afii10049:
    ......
    ......
    ......
    .@@@@.
    @...@.
    @...@.
    .@@@@.
    ..@.@.
    .@..@.
    @...@.
    ......
    ......

u+0430:
afii10065:
    ......
    ......
    ......
    ......
    ......
    .@@@..
    ....@.
    .@@@@.
    @...@.
    .@@@@.
    ......
    ......

u+0431:
afii10066:
    ......
    ......
    ......
    .@@@..
    @.....
    @@@@..
    @...@.
    @...@.
    @...@.
    .@@@..
    ......
    ......

u+0432:
afii10067:
    ......
    ......
    ......
    ......
    ......
    @@@@..
    @...@.
    @@@@..
    @...@.
    @@@@..
    ......
    ......

u+0433:
afii10068:
    ......
    ......
    ......
    ......
    ......
    @@@@@.
    @.....
    @.....
    @.....
    @.....
    ......
    ......

u+0434:
afii10069:
    ......
    ......
    ......
    ......
    ......
    ..@@..
    .@.@..
    .@.@..
    .@.@..
    @@@@@.
    @...@.
    ......

u+0435:
afii10070:
    ......
    ......
    ......
    ......
    ......
    .@@@..
    @...@.
    @@@@..
    @.....
    .@@@..
    ......
    ......

u+0436:
afii10072:
    ......
    ......
    ......
    ......
    ......
    @.@.@.
    .@@@..
    ..@...
    .@@@..
    @.@.@.
    ......
    ......

u+0437:
afii10073:
    ......
    ......
    ......
    ......
    ......
    .@@@..
    @...@.
    ..@@..
    @...@.
    .@@@..
    ......
    ......

u+0438:
afii10074:
    ......
    ......
    ......
    ......
    ......
    @...@.
    @..@@.
    @.@.@.
    @@..@.
    @...@.
    ......
    ......

u+0439:
afii10075:
    ......
    ......
    @...@.
    .@@@..
    ......
    @...@.
    @..@@.
    @.@.@.
    @@..@.
    @...@.
    ......
    ......

u+043a:
afii10076:
    ......
    ......
    ......
    ......
    ......
    .@..@.
    .@.@..
    .@@...
    .@.@..
    .@..@.
    ......
    ......

u+043b:
afii10077:
    ......
    ......
    ......
    ......
    ......
    ..@@@.
    .@..@.
    .@..@.
    .@..@.
    @...@.
    ......
    ......

u+043c:
afii10078:
    ......
    ......
    ......
    ......
    ......
    @...@.
    @@.@@.
    @.@.@.
    @...@.
    @...@.
    ......
    ......

u+043d:
afii10079:
    ......
    ......
    ......
    ......
    ......
    @...@.
    @...@.
    @@@@@.
    @...@.
    @...@.
    ......
    ......

u+043e:
afii10080:
    ......
    ......
    ......
    ......
    ......
    .@@@..
    @...@.
    @...@.
    @...@.
    .@@@..
    ......
    ......

u+043f:
afii10081:
    ......
    ......
    ......
    ......
    ......
    @@@@@.
    @...@.
    @...@.
    @...@.
    @...@.
    ......
    ......

u+0440:
afii10082:
    ......
    ......
    ......
    ......
    ......
    @@@@..
    @...@.
    @...@.
    @...@.
    @@@@..
    @.....
    @.....

u+0441:
afii10083:
    ......
    ......
    ......
    ......
    ......
    .@@@..
    @...@.
    @.....
    @...@.
    .@@@..
    ......
    ......

u+0442:
afii10084:
    ......
    ......
    ......
    ......
    ......
    @@@@@.
    ..@...
    ..@...
    ..@...
    ..@...
    ......
    ......

u+0443:
afii10085:
    ......
    ......
    ......
    ......
    ......
    @...@.
    @...@.
    @...@.
    @...@.
    .@@@@.
    ....@.
    .@@@..

u+0444:
afii10086:
    ......
    ......
    ......
    ..@...
    ..@...
    .@@@..
    @.@.@.
    @.@.@.
    @.@.@.
    .@@@..
    ..@...
    ..@...

u+0445:
afii10087:
    ......
    ......
    ......
    ......
    ......
    @...@.
    .@.@..
    ..@...
    .@.@..
    @...@.
    ......
    ......

u+0446:
afii10088:
    ......
    ......
    ......
    ......
    ......
    @..@..
    @..@..
    @..@..
    @..@..
    @@@@@.
    ....@.
    ....@.

u+0447:
afii10089:
    ......
    ......
    ......
    ......
    ......
    @...@.
    @...@.
    .@@@@.
    ....@.
    ....@.
    ......
    ......

u+0448:
afii10090:
    ......
    ......
    ......
    ......
    ......
    @.@.@.
    @.@.@.
    @.@.@.
    @.@.@.
    @@@@@.
    ......
    ......

u+0449:
afii10091:
    ......
    ......
    ......
    ......
    ......
    @.@.@.
    @.@.@.
    @.@.@.
    @.@.@.
    @@@@@.
    ....@.
    ....@.

u+044a:
afii10092:
    ......
    ......
    ......
    ......
    ......
    @@....
    .@....
    .@@@..
    .@..@.
    .@@@..
    ......
    ......

u+044b:
afii10093:
    ......
    ......
    ......
    ......
    ......
    @...@.
    @...@.
    @@..@.
    @.@.@.
    @@..@.
    ......
    ......

u+044c:
afii10094:
    ......
    ......
    ......
    ......
    ......
    .@....
    .@....
    .@@@..
    .@..@.
    .@@@..
    ......
    ......

u+044d:
afii10095:
    ......
    ......
    ......
    ......
    ......
    .@@@..
    ....@.
    ..@@@.
    ....@.
    .@@@..
    ......
    ......

u+044e:
afii10096:
    ......
    ......
    ......
    ......
    ......
    @..@..
    @.@.@.
    @@@.@.
    @.@.@.
    @..@..
    ......
    ......

u+044f:
afii10097:
    ......
    ......
    ......
    ......
    ......
    ..@@@.
    .@..@.
    ..@@@.
    ..@.@.
    .@..@.
    ......
    ......

u+0450:
uni0450:
    ......
    ......
    .@....
    ..@...
    ......
    .@@@..
    @...@.
    @@@@..
    @.....
    .@@@..
    ......
    ......

u+0451:
afii10071:
    ......
    ......
    ......
    .@.@..
    ......
    .@@@..
    @...@.
    @@@@..
    @.....
    .@@@..
    ......
    ......

u+0452:
afii10099:
    ......
    ......
    ......
    .@....
    @@@...
    .@....
    .@@@..
    .@..@.
    .@..@.
    .@..@.
    ....@.
    ...@..

u+0453:
afii10100:
    ......
    ......
    ...@..
    ..@...
    ......
    @@@@@.
    @.....
    @.....
    @.....
    @.....
    ......
    ......

u+0454:
afii10101:
    ......
    ......
    ......
    ......
    ......
    ..@@@.
    .@....
    .@@@..
    .@....
    ..@@@.
    ......
    ......

u+0455:
afii10102:
    ......
    ......
    ......
    ......
    ......
    .@@@@.
    @.....
    .@@@..
    ....@.
    @@@@..
    ......
    ......

u+0456:
afii10103:
    ......
    ......
    ......
    ......
    ..@...
    ......
    .@@...
    ..@...
    ..@...
    .@@@..
    ......
    ......

u+0457:
afii10104:
    ......
    ......
    ......
    ......
    .@.@..
    ......
    .@@...
    ..@...
    ..@...
    .@@@..
    ......
    ......

u+0458:
afii10105:
    ......
    ......
    ......
    ......
    ....@.
    ......
    ...@@.
    ....@.
    ....@.
    ....@.
    .@..@.
    ..@@..

u+0459:
afii10106:
    ......
    ......
    ......
    ......
    ......
    .@@...
    @.@...
    @.@@..
    @.@.@.
    @.@@..
    ......
    ......

u+045a:
afii10107:
    ......
    ......
    ......
    ......
    ......
    @.@...
    @.@...
    @@@@..
    @.@.@.
    @.@@..
    ......
    ......

u+045b:
afii10108:
    ......
    ......
    ......
    .@....
    @@@...
    .@....
    .@@@..
    .@..@.
    .@..@.
    .@..@.
    ......
    ......

u+045c:
afii10109:
    ......
    ......
    ...@..
    ..@...
    ......
    .@..@.
    .@.@..
    .@@...
    .@.@..
    .@..@.
    ......
    ......

u+045d:
uni045D:
    ......
    ......
    .@....
    ..@...
    ......
    @...@.
    @..@@.
    @.@.@.
    @@..@.
    @...@.
    ......
    ......

u+045e:
afii10110:
    ......
    ......
    @...@.
    .@@@..
    ......
    @...@.
    @...@.
    @...@.
    @...@.
    .@@@@.
    ....@.
    .@@@..

u+045f:
afii10193:
    ......
    ......
    ......
    ......
    ......
    @...@.
    @...@.
    @...@.
    @...@.
    @@@@@.
    ..@...
    ..@...

u+0460:
uni0460:
    ......
    ......
    ......
    .@.@..
    @...@.
    @...@.
    @.@.@.
    @.@.@.
    @.@.@.
    .@.@..
    ......
    ......

u+0461:
uni0461:
    ......
    ......
    ......
    ......
    ......
    .@.@..
    @...@.
    @.@.@.
    @.@.@.
    .@.@..
    ......
    ......

u+0462:
afii10146:
    ......
    ......
    ......
    .@....
    @@@@..
    .@....
    .@@@..
    .@..@.
    .@..@.
    .@@@..
    ......
    ......

u+0463:
afii10194:
    ......
    ......
    ......
    .@....
    .@....
    @@@@..
    .@....
    .@@@..
    .@..@.
    .@@@..
    ......
    ......

u+0464:
uni0464:
    ......
    ......
    ......
    @..@@.
    @.@...
    @.@...
    @@@@@.
    @.@...
    @.@...
    @..@@.
    ......
    ......

u+0465:
uni0465:
    ......
    ......
    ......
    ......
    ......
    @..@@.
    @.@...
    @@@@@.
    @.@...
    @..@@.
    ......
    ......

u+0466:
uni0466:
    ......
    ......
    ......
    ..@...
    .@.@..
    .@.@..
    @...@.
    @@@@@.
    @.@.@.
    @.@.@.
    ......
    ......

u+0467:
uni0467:
    ......
    ......
    ......
    ......
    ..@...
    .@.@..
    .@.@..
    @...@.
    @@@@@.
    @.@.@.
    ......
    ......

u+0468:
uni0468:
    ......
    ......
    ......
    @..@..
    @..@..
    @.@@@.
    @@@@@.
    @.@@@.
    @.@@@.
    @.@@@.
    ......
    ......

u+0469:
uni0469:
    ......
    ......
    ......
    ......
    ......
    @..@..
    @..@..
    @@@@@.
    @.@@@.
    @.@@@.
    ......
    ......

u+046a:
uni046A:
    ......
    ......
    @@@@@.
    @...@.
    .@.@..
    .@.@..
    .@@@..
    @.@.@.
    @.@.@.
    @.@.@.
    ......
    ......

u+046b:
uni046B:
    ......
    ......
    ......
    ......
    @@@@@.
    @...@.
    .@.@..
    .@@@..
    @.@.@.
    @.@.@.
    ......
    ......

u+046c:
uni046C:
    ......
    ......
    @@@@@@
    @@...@
    @.@.@.
    @..@..
    @@@@@.
    @.@@@.
    @.@@@.
    @.@.@.
    ......
    ......

u+046d:
uni046D:
    ......
    ......
    ......
    ......
    @@@@@@
    @.@.@.
    @..@..
    @@@@@.
    @.@@@.
    @.@.@.
    ......
    ......

u+046e:
uni046E:
    .@.@..
    ..@...
    ......
    .@@@..
    @...@.
    ....@.
    ..@@..
    ....@.
    ....@.
    .@@@..
    @.....
    .@@@..

u+046f:
uni046F:
    ......
    ......
    .@.@..
    ..@...
    ......
    .@@@..
    @...@.
    ..@@..
    ....@.
    .@@@..
    @.....
    .@@@..

u+0470:
uni0470:
    ......
    ......
    ......
    @.@.@.
    @.@.@.
    @.@.@.
    .@@@..
    ..@...
    ..@...
    ..@...
    ......
    ......

u+0471:
uni0471:
    ......
    ......
    ......
    ......
    ......
    @.@.@.
    @.@.@.
    .@@@..
    ..@...
    ..@...
    ......
    ......

u+0472:
afii10147:
    ......
    ......
    ......
    .@@@..
    @...@.
    @...@.
    @@@@@.
    @...@.
    @...@.
    .@@@..
    ......
    ......

u+0473:
afii10195:
    ......
    ......
    ......
    ......
    ......
    .@@@..
    @...@.
    @@@@@.
    @...@.
    .@@@..
    ......
    ......

u+0474:
afii10148:
    ......
    ......
    ......
    @...@.
    @..@..
    @..@..
    .@.@..
    .@.@..
    .@.@..
    ..@...
    ......
    ......

u+0475:
afii10196:
    ......
    ......
    ......
    ......
    ......
    @...@.
    @..@..
    .@.@..
    .@.@..
    ..@...
    ......
    ......

u+0476:
uni0476:
    @..@..
    .@..@.
    ......
    @...@.
    @..@..
    @..@..
    .@.@..
    .@.@..
    .@.@..
    ..@...
    ......
    ......

u+0477:
uni0477:
    ......
    ......
    @..@..
    .@..@.
    ......
    @...@.
    @..@..
    .@.@..
    .@.@..
    ..@...
    ......
    ......

u+0478:
uni0478:
    ......
    ......
    ......
    .@....
    @.@...
    @.@...
    @.@@@.
    @.@@@.
    @.@@@.
    .@.@@.
    ....@.
    ...@..

u+0479:
uni0479:
    ......
    ......
    ......
    ......
    ......
    .@.@@.
    @.@@@.
    @.@@@.
    @.@@@.
    .@.@@.
    ....@.
    ...@..

u+047a:
uni047A:
    ......
    ..@...
    .@@@..
    @.@.@.
    @...@.
    @...@.
    @...@.
    @...@.
    @.@.@.
    .@@@..
    ..@...
    ......

u+047b:
uni047B:
    ......
    ......
    ......
    ..@...
    .@@@..
    @.@.@.
    @...@.
    @...@.
    @.@.@.
    .@@@..
    ..@...
    ......

u+047c:
uni047C:
    ......
    .@@@..
    ......
    ..@...
    ..@...
    @...@.
    @...@.
    @...@.
    @.@.@.
    .@.@..
    ......
    ......

u+047d:
uni047D:
    ......
    ......
    ......
    .@@@..
    ......
    ..@...
    @.@.@.
    @...@.
    @.@.@.
    .@.@..
    ......
    ......

u+047e:
uni047E:
    @@@@@.
    @.@.@.
    ......
    .@.@..
    @...@.
    @...@.
    @.@.@.
    @.@.@.
    @.@.@.
    .@.@..
    ......
    ......

u+047f:
uni047F:
    ......
    ......
    @@@@@.
    @.@.@.
    ......
    .@.@..
    @...@.
    @.@.@.
    @.@.@.
    .@.@..
    ......
    ......

u+0480:
uni0480:
    ......
    ......
    .@@@..
    @...@.
    @...@.
    @.....
    @.....
    @.....
    @.....
    .@@@..
    ...@..
    ...@..

u+0481:
uni0481:
    ......
    ......
    ......
    ......
    .@@@..
    @...@.
    @.....
    @.....
    .@@@..
    ...@..
    ...@..
    ......

u+0482:
uni0482:
    ......
    ......
    ......
    ..@.@.
    ...@..
    @.@@..
    .@..@.
    .@....
    @.@...
    ......
    ......
    ......

u+0483:
uni0483:
    .....@
    @@@@@@
    @.....
    ......
    ......
    ......
    ......
    ......
    ......
    ......
    ......
    ......

u+0484:
uni0484:
    .@@@..
    @...@@
    ......
    ......
    ......
    ......
    ......
    ......
    ......
    ......
    ......
    ......

u+0485:
uni0485:
    .@@@..
    @@..@.
    ......
    ......
    ......
    ......
    ......
    ......
    ......
    ......
    ......
    ......

u+0486:
uni0486:
    .@@@..
    @..@@.
    ......
    ......
    ......
    ......
    ......
    ......
    ......
    ......
    ......
    ......

u+0487:
uni0487:
    .@@...
    @..@@@
    ......
    ......
    ......
    ......
    ......
    ......
    ......
    ......
    ......
    ......

u+0488:
uni0488:
    .@....
    @.@...
    ....@.
    ...@.@
    ......
    ......
    ......
    ......
    .@....
    @.@...
    ....@.
    ...@.@

u+0489:
uni0489:
    .@....
    @....@
    @@..@.
    ....@@
    ......
    ......
    ......
    ......
    .@....
    @....@
    @@..@.
    ....@@

u+048a:
uni048A:
    @...@.
    .@@@..
    ......
    @...@.
    @..@@.
    @..@@.
    @.@.@.
    @@..@.
    @@..@.
    @...@.
    ...@..
    ...@..

u+048b:
uni048B:
    ......
    @...@.
    .@@@..
    ......
    @...@.
    @...@.
    @..@@.
    @.@.@.
    @@..@.
    @...@.
    ...@..
    ...@..

u+048c:
uni048C:
    ......
    ......
    .@....
    .@....
    @@@...
    .@....
    .@@@..
    .@..@.
    .@..@.
    .@@@..
    ......
    ......

u+048d:
uni048D:
    ......
    ......
    ......
    .@....
    @@@...
    .@....
    .@@@..
    .@..@.
    .@..@.
    .@@@..
    ......
    ......

u+048e:
uni048E:
    ......
    ......
    @@@@..
    @...@.
    @...@.
    @.@.@.
    @@@@..
    @...@.
    @.....
    @.....
    ......
    ......

u+048f:
uni048F:
    ......
    ......
    ......
    ......
    @@@@..
    @...@.
    @...@.
    @.@.@.
    @@@@..
    @...@.
    @.....
    @.....

u+0490:
afii10050:
    ......
    ....@.
    ....@.
    @@@@@.
    @.....
    @.....
    @.....
    @.....
    @.....
    @.....
    ......
    ......

u+0491:
afii10098:
    ......
    ......
    ......
    ....@.
    ....@.
    @@@@@.
    @.....
    @.....
    @.....
    @.....
    ......
    ......

u+0492:
uni0492:
    ......
    ......
    ......
    .@@@@.
    .@....
    .@....
    @@@@..
    .@....
    .@....
    .@....
    ......
    ......

u+0493:
uni0493:
    ......
    ......
    ......
    ......
    ......
    .@@@@.
    .@....
    @@@@..
    .@....
    .@....
    ......
    ......

u+0494:
uni0494:
    ......
    ......
    @@@@@.
    @.....
    @.....
    @@@@..
    @...@.
    @...@.
    @...@.
    @...@.
    ...@..
    ......

u+0495:
uni0495:
    ......
    ......
    ......
    ......
    @@@@@.
    @.....
    @@@@..
    @...@.
    @...@.
    @...@.
    ...@..
    ......

u+0496:
uni0496:
    ......
    ......
    ......
    @.@.@.
    @.@.@.
    @.@.@.
    .@@@..
    @.@.@.
    @.@.@.
    @.@.@@
    .....@
    .....@

u+0497:
uni0497:
    ......
    ......
    ......
    ......
    ......
    @.@.@.
    .@@@..
    ..@...
    .@@@..
    @.@.@@
    .....@
    .....@

u+0498:
uni0498:
    ......
    ......
    .@@@..
    @...@.
    ....@.
    ...@..
    ....@.
    ....@.
    @...@.
    .@@@..
    ..@...
    .@....

u+0499:
uni0499:
    ......
    ......
    ......
    ......
    .@@@..
    @...@.
    ...@..
    ....@.
    @...@.
    .@@@..
    ..@...
    .@....

u+049a:
uni049A:
    ......
    ......
    ......
    @...@.
    @..@..
    @.@...
    @@....
    @.@...
    @..@..
    @...@.
    .....@
    .....@

u+049b:
uni049B:
    ......
    ......
    ......
    ......
    ......
    @..@..
    @.@...
    @@....
    @.@...
    @..@..
    ....@.
    ....@.

u+049c:
uni049C:
    ......
    ......
    ......
    @.@.@.
    @.@@..
    @.@...
    @@....
    @.@...
    @.@@..
    @.@.@.
    ......
    ......

u+049d:
uni049D:
    ......
    ......
    ......
    ......
    ......
    @.@.@.
    @.@@..
    @@@...
    @.@@..
    @.@.@.
    ......
    ......

u+049e:
uni049E:
    ......
    ......
    ......
    .@..@.
    @@@.@.
    .@.@..
    .@@...
    .@.@..
    .@..@.
    .@..@.
    ......
    ......

u+049f:
uni049F:
    ......
    ......
    .@....
    .@....
    @@@...
    .@..@.
    .@.@..
    .@@...
    .@.@..
    .@..@.
    ......
    ......

u+04a0:
uni04A0:
    ......
    ......
    @@..@.
    .@..@.
    .@.@..
    .@@...
    .@@...
    .@.@..
    .@..@.
    .@..@.
    ......
    ......

u+04a1:
uni04A1:
    ......
    ......
    ......
    ......
    ......
    @@..@.
    .@.@..
    .@@...
    .@.@..
    .@..@.
    ......
    ......

u+04a2:
uni04A2:
    ......
    ......
    @..@..
    @..@..
    @..@..
    @@@@..
    @..@..
    @..@..
    @..@..
    @..@@.
    ....@.
    ....@.

u+04a3:
uni04A3:
    ......
    ......
    ......
    ......
    ......
    @..@..
    @..@..
    @@@@..
    @..@..
    @..@@.
    ....@.
    ....@.

u+04a4:
uni04A4:
    ......
    ......
    @.@@@.
    @.@...
    @.@...
    @@@...
    @.@...
    @.@...
    @.@...
    @.@...
    ......
    ......

u+04a5:
uni04A5:
    ......
    ......
    ......
    ......
    ......
    @.@@@.
    @.@...
    @@@...
    @.@...
    @.@...
    ......
    ......

u+04a6:
uni04A6:
    ......
    ......
    @@@...
    @.@...
    @.@...
    @.@@..
    @.@.@.
    @.@.@.
    @.@.@.
    @.@.@.
    ....@.
    ...@..

u+04a7:
uni04A7:
    ......
    ......
    ......
    ......
    ......
    @@@...
    @.@...
    @.@@..
    @.@.@.
    @.@.@.
    ....@.
    ...@..

u+04a8:
uni04A8:
    ......
    ......
    .@@@@.
    @.....
    @..@..
    @.@.@.
    @.@.@.
    @.@.@.
    .@@@..
    ..@...
    ...@@.
    ......

u+04a9:
uni04A9:
    ......
    ......
    ......
    ......
    .@@@..
    @.....
    @..@..
    @.@.@.
    .@@@..
    ..@...
    ...@@.
    ......

u+04aa:
uni04AA:
    ......
    ......
    .@@@..
    @...@.
    @.....
    @.....
    @.....
    @.....
    @...@.
    .@@@..
    ..@...
    ...@..

u+04ab:
uni04AB:
    ......
    ......
    ......
    ......
    ......
    .@@@..
    @...@.
    @.....
    @...@.
    .@@@..
    ..@...
    ...@..

u+04ac:
uni04AC:
    ......
    ......
    @@@@@.
    ..@...
    ..@...
    ..@...
    ..@...
    ..@...
    ..@...
    ..@@..
    ...@..
    ...@..

u+04ad:
uni04AD:
    ......
    ......
    ......
    ......
    ......
    @@@@@.
    @.@.@.
    ..@...
    ..@...
    ..@@..
    ...@..
    ...@..

u+04ae:
uni04AE:
    ......
    ......
    ......
    @...@.
    @...@.
    .@.@..
    ..@...
    ..@...
    ..@...
    ..@...
    ......
    ......

u+04af:
uni04AF:
    ......
    ......
    ......
    ......
    ......
    @...@.
    @...@.
    .@.@..
    ..@...
    ..@...
    ..@...
    ..@...

u+04b0:
uni04B0:
    ......
    ......
    ......
    @...@.
    @...@.
    .@.@..
    @@@@@.
    ..@...
    ..@...
    ..@...
    ......
    ......

u+04b1:
uni04B1:
    ......
    ......
    ......
    ......
    ......
    @...@.
    @...@.
    .@.@..
    @@@@@.
    ..@...
    ..@...
    ..@...

u+04b2:
uni04B2:
    ......
    ......
    ......
    @...@.
    @...@.
    .@.@..
    ..@...
    .@.@..
    @...@.
    @...@.
    .....@
    .....@

u+04b3:
uni04B3:
    ......
    ......
    ......
    ......
    ......
    @...@.
    .@.@..
    ..@...
    .@.@..
    @...@.
    .....@
    .....@

u+04b4:
uni04B4:
    ......
    ......
    @@@.@.
    .@..@.
    .@..@.
    .@..@.
    .@..@.
    .@..@.
    .@..@.
    .@@@@.
    ....@.
    ....@.

u+04b5:
uni04B5:
    ......
    ......
    ......
    ......
    @@@.@.
    .@..@.
    .@..@.
    .@..@.
    .@..@.
    .@@@@.
    ....@.
    ....@.

u+04b6:
uni04B6:
    ......
    ......
    @..@..
    @..@..
    @..@..
    @..@..
    @..@..
    .@@@..
    ...@..
    ...@@.
    ....@.
    ....@.

u+04b7:
uni04B7:
    ......
    ......
    ......
    ......
    @..@..
    @..@..
    @..@..
    .@@@..
    ...@..
    ...@@.
    ....@.
    ....@.

u+04b8:
uni04B8:
    ......
    ......
    @...@.
    @...@.
    @.@.@.
    @.@.@.
    .@@@@.
    ..@.@.
    ..@.@.
    ....@.
    ......
    ......

u+04b9:
uni04B9:
    ......
    ......
    ......
    ......
    @...@.
    @...@.
    @.@.@.
    .@@@@.
    ..@.@.
    ....@.
    ......
    ......

u+04ba:
uni04BA:
    ......
    ......
    ......
    @.....
    @.....
    @@@@..
    @...@.
    @...@.
    @...@.
    @...@.
    ......
    ......

u+04bb:
uni04BB:
    ......
    ......
    ......
    .@....
    .@....
    .@....
    .@@@..
    .@..@.
    .@..@.
    .@..@.
    ......
    ......

u+04bc:
uni04BC:
    ......
    ......
    ..@@..
    .@..@.
    .@..@.
    .@..@.
    @@@@@.
    .@....
    .@..@.
    ..@@..
    ......
    ......

u+04bd:
uni04BD:
    ......
    ......
    ......
    ......
    ..@@..
    .@..@.
    @@@@@.
    .@....
    .@..@.
    ..@@..
    ......
    ......

u+04be:
uni04BE:
    ......
    ......
    ..@@..
    .@..@.
    .@..@.
    .@..@.
    @@@@@.
    .@....
    .@..@.
    ..@@..
    ..@...
    ...@..

u+04bf:
uni04BF:
    ......
    ......
    ......
    ......
    ..@@..
    .@..@.
    @@@@@.
    .@....
    .@..@.
    ..@@..
    ..@...
    ...@..

u+04c0:
uni04C0:
    ......
    ......
    .@@@..
    ..@...
    ..@...
    ..@...
    ..@...
    ..@...
    ..@...
    .@@@..
    ......
    ......

u+04c1:
uni04C1:
    @...@.
    .@@@..
    ......
    @.@.@.
    @.@.@.
    @.@.@.
    .@@@..
    @.@.@.
    @.@.@.
    @.@.@.
    ......
    ......

u+04c2:
uni04C2:
    ......
    ......
    @...@.
    .@@@..
    ......
    @.@.@.
    .@@@..
    ..@...
    .@@@..
    @.@.@.
    ......
    ......

u+04c3:
uni04C3:
    ......
    ......
    ......
    @...@.
    @..@..
    @.@...
    @@....
    @.@...
    @..@..
    @...@.
    ....@.
    ..@@..

u+04c4:
uni04C4:
    ......
    ......
    ......
    ......
    ......
    @..@..
    @.@...
    @@....
    @.@...
    @..@..
    ...@..
    .@@...

u+04c5:
uni04C5:
    ......
    ......
    ..@@@.
    .@..@.
    .@..@.
    .@..@.
    .@..@.
    .@..@.
    @...@.
    @...@.
    ...@..
    ...@..

u+04c6:
uni04C6:
    ......
    ......
    ......
    ......
    ......
    ..@@@.
    .@..@.
    .@..@.
    .@..@.
    @...@.
    ...@..
    ...@..

u+04c7:
uni04C7:
    ......
    ......
    @...@.
    @...@.
    @...@.
    @@@@@.
    @...@.
    @...@.
    @...@.
    @...@.
    ....@.
    ..@@..

u+04c8:
uni04C8:
    ......
    ......
    ......
    ......
    ......
    @...@.
    @...@.
    @@@@@.
    @...@.
    @...@.
    ....@.
    ..@@..

u+04c9:
uni04C9:
    ......
    ......
    @...@.
    @...@.
    @...@.
    @@@@@.
    @...@.
    @...@.
    @...@.
    @...@.
    ...@..
    ...@..

u+04ca:
uni04CA:
    ......
    ......
    ......
    ......
    ......
    @...@.
    @...@.
    @@@@@.
    @...@.
    @...@.
    ...@..
    ...@..

u+04cb:
uni04CB:
    ......
    ......
    @...@.
    @...@.
    @...@.
    @...@.
    @...@.
    .@@@@.
    ....@.
    ...@@.
    ...@..
    ...@..

u+04cc:
uni04CC:
    ......
    ......
    ......
    ......
    @...@.
    @...@.
    @...@.
    .@@@@.
    ....@.
    ...@@.
    ...@..
    ...@..

u+04cd:
uni04CD:
    ......
    ......
    @...@.
    @@.@@.
    @@.@@.
    @.@.@.
    @.@.@.
    @...@.
    @...@.
    @...@.
    ...@..
    ...@..

u+04ce:
uni04CE:
    ......
    ......
    ......
    ......
    ......
    @...@.
    @@.@@.
    @.@.@.
    @...@.
    @...@.
    ...@..
    ...@..

u+04cf:
uni04CF:
    ......
    ......
    .@....
    .@....
    .@....
    .@....
    .@....
    .@....
    .@....
    .@....
    ......
    ......

u+04d0:
uni04D0:
    ......
    @...@.
    .@@@..
    ......
    .@@@..
    @...@.
    @...@.
    @@@@@.
    @...@.
    @...@.
    ......
    ......

u+04d1:
uni04D1:
    ......
    ......
    @...@.
    .@@@..
    ......
    .@@@..
    ....@.
    .@@@@.
    @...@.
    .@@@@.
    ......
    ......

u+04d2:
uni04D2:
    ......
    .@.@..
    ......
    .@@@..
    @...@.
    @...@.
    @@@@@.
    @...@.
    @...@.
    @...@.
    ......
    ......

u+04d3:
uni04D3:
    ......
    ......
    ......
    .@.@..
    ......
    .@@@..
    ....@.
    .@@@@.
    @...@.
    .@@@@.
    ......
    ......

u+04d4:
uni04D4:
    ......
    ......
    ......
    .@@@@.
    @.@...
    @.@...
    @@@@..
    @.@...
    @.@...
    @.@@@.
    ......
    ......

u+04d5:
uni04D5:
    ......
    ......
    ......
    ......
    ......
    .@@@..
    ..@.@.
    .@@@..
    @.@.@.
    .@@@..
    ......
    ......

u+04d6:
uni04D6:
    ......
    @...@.
    .@@@..
    ......
    @@@@@.
    @.....
    @@@@..
    @.....
    @.....
    @@@@@.
    ......
    ......

u+04d7:
uni04D7:
    ......
    ......
    @...@.
    .@@@..
    ......
    .@@@..
    @...@.
    @@@@..
    @.....
    .@@@..
    ......
    ......

u+04d8:
uni04D8:
    ......
    ......
    ......
    .@@@..
    @...@.
    ....@.
    @@@@@.
    @...@.
    @...@.
    .@@@..
    ......
    ......

u+04d9:
afii10846:
    ......
    ......
    ......
    ......
    ......
    .@@@..
    ....@.
    @@@@@.
    @...@.
    .@@@..
    ......
    ......

u+04da:
uni04DA:
    ......
    .@.@..
    ......
    .@@@..
    @...@.
    ....@.
    @@@@@.
    @...@.
    @...@.
    .@@@..
    ......
    ......

u+04db:
uni04DB:
    ......
    ......
    ......
    .@.@..
    ......
    .@@@..
    ....@.
    @@@@@.
    @...@.
    .@@@..
    ......
    ......

u+04dc:
uni04DC:
    ......
    .@.@..
    ......
    @.@.@.
    @.@.@.
    @.@.@.
    .@@@..
    @.@.@.
    @.@.@.
    @.@.@.
    ......
    ......

u+04dd:
uni04DD:
    ......
    ......
    ......
    .@.@..
    ......
    @.@.@.
    .@@@..
    ..@...
    .@@@..
    @.@.@.
    ......
    ......

u+04de:
uni04DE:
    ......
    .@.@..
    ......
    .@@@..
    @...@.
    ....@.
    ..@@..
    ....@.
    @...@.
    .@@@..
    ......
    ......

u+04df:
uni04DF:
    ......
    ......
    ......
    .@.@..
    ......
    .@@@..
    @...@.
    ..@@..
    @...@.
    .@@@..
    ......
    ......

u+04e0:
uni04E0:
    ......
    ......
    ......
    @@@@@.
    ...@..
    ..@...
    .@@@..
    ....@.
    @...@.
    .@@@..
    ......
    ......

u+04e1:
uni04E1:
    ......
    ......
    ......
    ......
    ......
    @@@@@.
    ...@..
    ..@...
    .@@@..
    ....@.
    @...@.
    .@@@..

u+04e2:
uni04E2:
    ......
    @@@@@.
    ......
    @...@.
    @...@.
    @..@@.
    @.@.@.
    @@..@.
    @...@.
    @...@.
    ......
    ......

u+04e3:
uni04E3:
    ......
    ......
    ......
    @@@@@.
    ......
    @...@.
    @..@@.
    @.@.@.
    @@..@.
    @...@.
    ......
    ......

u+04e4:
uni04E4:
    ......
    .@.@..
    ......
    @...@.
    @...@.
    @..@@.
    @.@.@.
    @@..@.
    @...@.
    @...@.
    ......
    ......

u+04e5:
uni04E5:
    ......
    ......
    ......
    .@.@..
    ......
    @...@.
    @..@@.
    @.@.@.
    @@..@.
    @...@.
    ......
    ......

u+04e6:
uni04E6:
    ......
    .@.@..
    ......
    .@@@..
    @...@.
    @...@.
    @...@.
    @...@.
    @...@.
    .@@@..
    ......
    ......

u+04e7:
uni04E7:
    ......
    ......
    ......
    .@.@..
    ......
    .@@@..
    @...@.
    @...@.
    @...@.
    .@@@..
    ......
    ......

u+04e8:
uni04E8:
    ......
    ......
    ......
    .@@@..
    @...@.
    @...@.
    @@@@@.
    @...@.
    @...@.
    .@@@..
    ......
    ......

u+04e9:
uni04E9:
    ......
    ......
    ......
    ......
    ......
    .@@@..
    @...@.
    @@@@@.
    @...@.
    .@@@..
    ......
    ......

u+04ea:
uni04EA:
    ......
    .@.@..
    ......
    .@@@..
    @...@.
    @...@.
    @@@@@.
    @...@.
    @...@.
    .@@@..
    ......
    ......

u+04eb:
uni04EB:
    ......
    ......
    ......
    .@.@..
    ......
    .@@@..
    @...@.
    @@@@@.
    @...@.
    .@@@..
    ......
    ......

u+04ec:
uni04EC:
    ......
    .@.@..
    ......
    @@@...
    ...@..
    ....@.
    .@@@@.
    ....@.
    ...@..
    @@@...
    ......
    ......

u+04ed:
uni04ED:
    ......
    ......
    ......
    .@.@..
    ......
    .@@@..
    ....@.
    ..@@@.
    ....@.
    .@@@..
    ......
    ......

u+04ee:
uni04EE:
    ......
    @@@@@.
    ......
    @...@.
    @...@.
    @..@@.
    .@@.@.
    ....@.
    @...@.
    .@@@..
    ......
    ......

u+04ef:
uni04EF:
    ......
    ......
    ......
    @@@@@.
    ......
    @...@.
    @...@.
    @...@.
    .@@@@.
    ....@.
    @...@.
    .@@@..

u+04f0:
uni04F0:
    ......
    .@.@..
    ......
    @...@.
    @...@.
    @..@@.
    .@@.@.
    ....@.
    @...@.
    .@@@..
    ......
    ......

u+04f1:
uni04F1:
    ......
    ......
    ......
    .@.@..
    ......
    @...@.
    @...@.
    @...@.
    .@@@@.
    ....@.
    @...@.
    .@@@..

u+04f2:
uni04F2:
    .@..@.
    @..@..
    ......
    @...@.
    @...@.
    @..@@.
    .@@.@.
    ....@.
    @...@.
    .@@@..
    ......
    ......

u+04f3:
uni04F3:
    ......
    ......
    .@..@.
    @..@..
    ......
    @...@.
    @...@.
    @...@.
    .@@@@.
    ....@.
    @...@.
    .@@@..

u+04f4:
uni04F4:
    ......
    .@.@..
    ......
    @...@.
    @...@.
    @...@.
    .@@@@.
    ....@.
    ....@.
    ....@.
    ......
    ......

u+04f5:
uni04F5:
    ......
    ......
    ......
    .@.@..
    ......
    @...@.
    @...@.
    .@@@@.
    ....@.
    ....@.
    ......
    ......

u+04f6:
uni04F6:
    ......
    ......
    ......
    @@@@@.
    @.....
    @.....
    @.....
    @.....
    @.....
    @@....
    .@....
    ......

u+04f7:
uni04F7:
    ......
    ......
    ......
    ......
    ......
    .@@@@.
    .@....
    .@....
    .@....
    .@@...
    ..@...
    ......

u+04f8:
uni04F8:
    ......
    .@.@..
    ......
    @...@.
    @...@.
    @...@.
    @@..@.
    @.@.@.
    @.@.@.
    @@..@.
    ......
    ......

u+04f9:
uni04F9:
    ......
    ......
    ......
    .@.@..
    ......
    @...@.
    @...@.
    @@..@.
    @.@.@.
    @@..@.
    ......
    ......

u+04fa:
uni04FA:
    ......
    ......
    ......
    .@@@@.
    .@....
    .@....
    @@@...
    .@....
    .@....
    .@@...
    ..@...
    .@....

u+04fb:
uni04FB:
    ......
    ......
    ......
    ......
    ......
    .@@@@.
    .@....
    @@@...
    .@....
    .@@...
    ..@...
    .@....

u+04fc:
uni04FC:
    ......
    ......
    ......
    @...@.
    @...@.
    .@.@..
    ..@...
    .@.@..
    @...@.
    @...@.
    ....@.
    ...@..

u+04fd:
uni04FD:
    ......
    ......
    ......
    ......
    ......
    @...@.
    .@.@..
    ..@...
    .@.@..
    @...@.
    ....@.
    ...@..

u+04fe:
uni04FE:
    ......
    ......
    ......
    @...@.
    @...@.
    .@.@..
    @@@@@.
    .@.@..
    @...@.
    @...@.
    ......
    ......

u+04ff:
uni04FF:
    ......
    ......
    ......
    ......
    ......
    @...@.
    .@.@..
    @@@@@.
    .@.@..
    @...@.
    ......
    ......

u+0500:
uni0500:
    ......
    ......
    ......
    ....@.
    ....@.
    .@@@@.
    @...@.
    @...@.
    @...@.
    .@@@@.
    ......
    ......

u+0501:
uni0501:
    ......
    ......
    ......
    ....@.
    ....@.
    ..@@@.
    .@..@.
    .@..@.
    .@..@.
    ..@@@.
    ......
    ......

u+0502:
uni0502:
    ......
    ......
    ......
    ..@...
    ..@...
    .@@...
    @.@.@.
    @.@.@.
    @.@.@.
    .@@@..
    ......
    ......

u+0503:
uni0503:
    ......
    ......
    ......
    ..@...
    ..@...
    ..@...
    .@@...
    @.@.@.
    @.@.@.
    .@@@..
    ......
    ......

u+0504:
uni0504:
    ......
    ......
    ......
    @@....
    ..@...
    ..@...
    @@....
    ..@.@.
    ..@.@.
    ...@..
    ......
    ......

u+0505:
uni0505:
    ......
    ......
    ......
    ......
    @@....
    ..@...
    ..@...
    .@..@.
    ..@.@.
    ...@..
    ......
    ......

u+0506:
uni0506:
    ......
    ......
    ......
    @@....
    ..@...
    ..@...
    @@....
    ..@...
    ..@...
    ..@@..
    ...@..
    ...@..

u+0507:
uni0507:
    ......
    ......
    ......
    ......
    @@....
    ..@...
    ..@...
    .@....
    ..@...
    ..@@..
    ...@..
    ...@..

u+0508:
uni0508:
    ......
    ......
    ......
    @@@@@.
    @.@...
    @.@...
    @.@.@.
    @.@.@.
    @.@.@.
    @..@..
    ......
    ......

u+0509:
uni0509:
    ......
    ......
    ......
    ......
    ......
    @@@@@.
    @.@...
    @.@...
    @.@.@.
    @..@..
    ......
    ......

u+050a:
uni050A:
    ......
    ......
    ......
    @.@...
    @.@...
    @.@...
    @@@.@.
    @.@.@.
    @.@.@.
    @..@..
    ......
    ......

u+050b:
uni050B:
    ......
    ......
    ......
    ......
    ......
    @.@...
    @.@...
    @@@.@.
    @.@.@.
    @..@..
    ......
    ......

u+050c:
uni050C:
    ......
    ......
    ......
    .@@@..
    @...@.
    @.....
    @..@@.
    @...@.
    @...@.
    .@@@..
    ......
    ......

u+050d:
uni050D:
    ......
    ......
    ......
    ......
    ......
    .@@@@.
    @.....
    @..@@.
    @...@.
    .@@@..
    ......
    ......

u+050e:
uni050E:
    ......
    ......
    ......
    @@@@@.
    ..@...
    ..@...
    ..@.@.
    ..@.@.
    ..@.@.
    ...@..
    ......
    ......

u+050f:
uni050F:
    ......
    ......
    ......
    ......
    ......
    @@@@@.
    ..@...
    ..@...
    ..@.@.
    ...@..
    ......
    ......

u+0510:
uni0510:
    ......
    ......
    ......
    .@@@@.
    @...@.
    @.....
    .@@...
    @.....
    @...@.
    .@@@..
    ......
    ......

u+0511:
uni0511:
    ......
    ......
    ......
    ......
    ......
    .@@@@.
    @...@.
    .@@...
    @...@.
    .@@@..
    ......
    ......

u+0512:
uni0512:
    ......
    ......
    ......
    @@@@@@
    .@..@.
    .@..@.
    .@..@.
    .@..@.
    @.@.@.
    ...@..
    ......
    ......

u+0513:
uni0513:
    ......
    ......
    ......
    ......
    ......
    @@@@@@
    .@..@.
    .@..@.
    .@..@.
    @...@.
    ...@..
    ......

u+0514:
uni0514:
    ......
    ......
    ......
    @@.@.@
    .@.@.@
    .@.@.@
    .@..@.
    .@.@.@
    .@.@.@
    @..@.@
    ......
    ......

u+0515:
uni0515:
    ......
    ......
    ......
    ......
    ......
    @@.@.@
    .@.@.@
    .@..@.
    .@.@.@
    @..@.@
    ......
    ......

u+0516:
uni0516:
    ......
    ......
    ......
    @@..@.
    @.@.@.
    @.@@..
    @@.@..
    @...@.
    @...@.
    @...@.
    ......
    ......

u+0517:
uni0517:
    ......
    ......
    ......
    ......
    ......
    @@..@.
    @.@@..
    @.@...
    @@.@..
    @...@.
    @.....
    ......

u+0518:
uni0518:
    ......
    ......
    ......
    .@@@@.
    @.@...
    @.@...
    .@@@..
    @.@...
    @.@...
    @.@@@.
    ......
    ......

u+0519:
uni0519:
    ......
    ......
    ......
    ......
    ......
    .@@@..
    @.@.@.
    .@@@..
    @.@...
    @..@@.
    ......
    ......

u+051a:
uni051A:
    ......
    ......
    ......
    .@@@..
    @...@.
    @...@.
    @...@.
    @.@.@.
    @..@..
    .@@.@.
    ......
    ......

u+051b:
uni051B:
    ......
    ......
    ......
    ......
    ......
    .@@@@.
    @...@.
    @...@.
    @...@.
    .@@@@.
    ....@.
    ....@.

u+051c:
uni051C:
    ......
    ......
    ......
    @...@.
    @...@.
    @...@.
    @...@.
    @.@.@.
    @.@.@.
    .@.@..
    ......
    ......

u+051d:
uni051D:
    ......
    ......
    ......
    ......
    ......
    @...@.
    @...@.
    @.@.@.
    @.@.@.
    .@.@..
    ......
    ......

u+051e:
uni051E:
    ......
    ......
    ......
    @.@.@.
    @..@..
    @.@.@.
    @@....
    @.@...
    @..@..
    @...@.
    ......
    ......

u+051f:
uni051F:
    ......
    ......
    ......
    ......
    ......
    @.@.@.
    @..@..
    @@@.@.
    @..@..
    @...@.
    ......
    ......

u+0520:
uni0520:
    ......
    ......
    ......
    @@.@..
    .@.@..
    .@.@..
    .@.@@.
    .@.@.@
    .@.@.@
    @..@.@
    .....@
    ....@.

u+0521:
uni0521:
    ......
    ......
    ......
    ......
    ......
    @@.@..
    .@.@..
    .@.@@.
    .@.@.@
    @..@.@
    .....@
    ......

u+0522:
uni0522:
    ......
    ......
    ......
    @.@...
    @.@...
    @.@...
    @@@@..
    @.@.@.
    @.@.@.
    @.@.@.
    ....@.
    ...@..

u+0523:
uni0523:
    ......
    ......
    ......
    ......
    ......
    @.@...
    @.@...
    @@@@..
    @.@.@.
    @.@.@.
    ....@.
    ...@..

u+0531:
uni0531:
    ......
    ......
    @.@...
    @.@...
    @.@...
    @.@...
    @.@...
    @.@...
    @.@@..
    .@..@.
    ......
    ......

u+0532:
uni0532:
    ......
    ......
    .@@@..
    @...@.
    @...@.
    @.....
    @.....
    @@@@..
    @...@.
    @.....
    ......
    ......

u+0533:
uni0533:
    ......
    ......
    .@....
    @.@...
    @.@...
    @.@...
    .@@@..
    ..@.@.
    ..@...
    ..@...
    ......
    ......

u+0534:
uni0534:
    ......
    ......
    .@....
    @.@...
    @.@...
    ..@...
    ..@@..
    ..@.@.
    ..@...
    ..@...
    ......
    ......

u+0535:
uni0535:
    ......
    ......
    @.....
    @.....
    @@@@..
    @...@.
    @.....
    @...@.
    @...@.
    .@@@..
    ......
    ......

u+0536:
uni0536:
    ......
    ......
    .@@...
    @..@..
    @..@..
    .@@@..
    ...@..
    @.@...
    @@@@..
    @...@.
    ......
    ......

u+0537:
uni0537:
    ......
    ......
    @.....
    @.....
    @@@@..
    @...@.
    @.....
    @.....
    @.....
    .@@@..
    ....@.
    ...@..

u+0538:
uni0538:
    ......
    ......
    .@@...
    @..@..
    @..@..
    @.....
    @.....
    @.....
    @.....
    @@@@..
    ....@.
    ......

u+0539:
uni0539:
    ......
    ......
    .@@...
    @..@..
    @.@@@.
    @@.@..
    @@.@..
    @.@...
    @.....
    @.....
    ......
    ......

u+053a:
uni053A:
    ......
    ......
    ...@..
    ...@..
    ...@..
    .@@@@.
    @..@..
    @..@..
    @..@..
    .@@...
    ......
    ......

u+053b:
uni053B:
    ......
    ......
    @.....
    @.....
    @.....
    @@@@..
    @...@.
    @...@.
    @.....
    @.....
    ......
    ......

u+053c:
uni053C:
    ......
    ......
    @.....
    @.....
    @.....
    @.....
    @.....
    @.....
    @.....
    .@@@..
    ....@.
    ...@..

u+053d:
uni053D:
    ......
    ......
    @.....
    @.....
    @@@.@.
    @.@.@.
    @.@.@.
    @..@..
    @.....
    @.....
    ......
    ......

u+053e:
uni053E:
    ......
    ......
    @@@@@.
    .@@@..
    @...@.
    @...@.
    @...@.
    @...@.
    @...@.
    .@@@..
    ......
    ......

u+053f:
uni053F:
    ......
    ......
    @.....
    @...@.
    @...@.
    @...@.
    @...@.
    .@@@@.
    ....@.
    ....@.
    ......
    ......

u+0540:
uni0540:
    ......
    ......
    ...@..
    ..@...
    ...@..
    ..@...
    .@....
    @.....
    @@....
    ..@@..
    ....@.
    ......

u+0541:
uni0541:
    ......
    ......
    ..@@..
    .@..@.
    .@..@.
    ..@@@.
    ....@.
    .@@@..
    @..@..
    .@@.@.
    ......
    ......

u+0542:
uni0542:
    ......
    ......
    .@....
    @.@...
    @.@...
    ..@...
    ..@...
    ..@...
    ..@...
    ..@@..
    ....@.
    ......

u+0543:
uni0543:
    ......
    ......
    ...@..
    .@.@..
    ..@...
    .@.@..
    .@.@..
    @...@.
    @...@.
    @@@@@.
    ......
    ......

u+0544:
uni0544:
    ......
    ......
    @.@@@.
    @.@.@.
    @.@...
    @.@...
    @.@...
    @.@...
    @.@...
    .@....
    ......
    ......

u+0545:
uni0545:
    ......
    ......
    .@@@..
    @...@.
    @.@.@.
    ..@@..
    ..@.@.
    @...@.
    @...@.
    .@@@..
    ......
    ......

u+0546:
uni0546:
    ......
    ......
    .@....
    @.....
    @@....
    .@....
    .@....
    .@....
    .@..@.
    ..@@..
    ......
    ......

u+0547:
uni0547:
    ......
    ......
    ....@.
    @@@@..
    .@....
    @.....
    @...@.
    @...@.
    @...@.
    .@@@..
    ......
    ......

u+0548:
uni0548:
    ......
    ......
    .@@@..
    @...@.
    @...@.
    @...@.
    @...@.
    @...@.
    @...@.
    @...@.
    ......
    ......

u+0549:
uni0549:
    ......
    ......
    .@@@..
    @...@.
    @...@.
    @...@.
    .@@@@.
    ...@..
    ..@...
    @@@@@.
    ......
    ......

u+054a:
uni054A:
    ......
    ......
    .@@@..
    @.@.@.
    @.@.@.
    @.@.@.
    ..@.@.
    ..@.@.
    ....@.
    ....@.
    ......
    ......

u+054b:
uni054B:
    ......
    ......
    .@@...
    @..@..
    @..@..
    .@.@..
    ..@@..
    @.@...
    @@@@..
    @...@.
    ......
    ......

u+054c:
uni054C:
    ......
    ......
    .@....
    @.@...
    @.@...
    @.@@..
    @.@.@.
    @.@.@.
    @.@...
    @.@...
    ......
    ......

u+054d:
uni054D:
    ......
    ......
    @...@.
    @...@.
    @...@.
    @...@.
    @...@.
    @...@.
    @...@.
    .@@@..
    ......
    ......

u+054e:
uni054E:
    ......
    ......
    ..@...
    @.@...
    @.@...
    @.@...
    @.@...
    .@@...
    ..@...
    ..@@..
    ....@.
    ......

u+054f:
uni054F:
    ......
    ......
    .@@@..
    @...@.
    @.....
    .@@@..
    ....@.
    ....@.
    @...@.
    .@@@..
    ......
    ......

u+0550:
uni0550:
    ......
    ......
    .@@@..
    @...@.
    @...@.
    @.....
    @.....
    @.....
    @.....
    @.....
    ......
    ......

u+0551:
uni0551:
    ......
    ......
    .@@@..
    @...@.
    @...@.
    .@@@..
    @...@.
    ....@.
    @...@.
    .@@@..
    ......
    ......

u+0552:
uni0552:
    ......
    ......
    @.....
    @.....
    @.....
    @@@...
    @..@..
    @..@..
    @...@.
    @.....
    ......
    ......

u+0553:
uni0553:
    ......
    ......
    ..@...
    .@@@..
    @.@.@.
    @.@.@.
    @.@.@.
    .@@@..
    ..@...
    ......
    ......
    ......

u+0554:
uni0554:
    ......
    ......
    ...@..
    ..@.@.
    ..@.@.
    ..@@..
    @.@...
    .@@@..
    ..@.@.
    ..@...
    ......
    ......

u+0555:
uni0555:
    ......
    ......
    .@@@..
    @...@.
    @...@.
    @...@.
    @...@.
    @...@.
    @...@.
    .@@@..
    ......
    ......

u+0556:
uni0556:
    ......
    ......
    .@....
    @.@...
    @.@...
    .@@@..
    ..@.@.
    @.@.@.
    @.@.@.
    .@@@..
    ......
    ......

u+0559:
uni0559:
    ..@...
    .@....
    .@....
    ..@...
    ......
    ......
    ......
    ......
    ......
    ......
    ......
    ......

u+055a:
uni055A:
    ......
    ..@@..
    ...@..
    ..@...
    ......
    ......
    ......
    ......
    ......
    ......
    ......
    ......

u+055b:
uni055B:
    ......
    ...@..
    ..@...
    ......
    ......
    ......
    ......
    ......
    ......
    ......
    ......
    ......

u+055c:
uni055C:
    ....@.
    .@@@..
    @.....
    ......
    ......
    ......
    ......
    ......
    ......
    ......
    ......
    ......

u+055d:
uni055D:
    ......
    ..@...
    ...@..
    ......
    ......
    ......
    ......
    ......
    ......
    ......
    ......
    ......

u+055e:
uni055E:
    ......
    .@@@..
    @...@.
    @.@.@.
    @.@.@.
    ...@..
    ......
    ......
    ......
    ......
    ......
    ......

u+055f:
uni055F:
    ......
    @@....
    @...@.
    .@@@..
    ......
    ......
    ......
    ......
    ......
    ......
    ......
    ......

u+0561:
uni0561:
    ......
    ......
    ......
    ......
    ......
    ......
    @...@.
    @.@.@.
    @.@.@.
    .@.@@.
    ......
    ......

u+0562:
uni0562:
    ......
    ......
    ......
    ......
    ......
    @@@@..
    @...@.
    @...@.
    @.....
    @@@@@.
    @.....
    @.....

u+0563:
uni0563:
    ......
    ......
    ......
    ......
    ......
    .@@@..
    @..@..
    @..@..
    @..@..
    .@@@@.
    ...@..
    ...@..

u+0564:
uni0564:
    ......
    ......
    ......
    ......
    ......
    @.@...
    @@.@..
    @..@..
    @..@..
    @..@@.
    ...@..
    ...@..

u+0565:
uni0565:
    ......
    ......
    @.....
    @.....
    @.....
    @@@@@.
    @.....
    @...@.
    @@..@.
    @.@@..
    ......
    ......

u+0566:
uni0566:
    ......
    ......
    ......
    ......
    ......
    .@@@..
    @..@..
    @..@..
    @..@..
    .@@@..
    ...@..
    ...@@.

u+0567:
uni0567:
    ......
    ......
    @.....
    @.....
    @.....
    @@@@@.
    @.....
    @.....
    @.....
    .@@@..
    ....@.
    ......

u+0568:
uni0568:
    ......
    ......
    ......
    ......
    ......
    @.@@..
    @@..@.
    @...@.
    @...@.
    @...@.
    @.....
    @@@@@.

u+0569:
uni0569:
    ......
    ......
    ......
    ......
    ......
    @.@...
    @@.@..
    @..@..
    @.@@@.
    @@.@..
    @.@...
    @.....

u+056a:
uni056A:
    ......
    ......
    ...@..
    ...@..
    ...@..
    .@@@@.
    @..@..
    @..@..
    @..@..
    .@@...
    ......
    ......

u+056b:
uni056B:
    ......
    ......
    @.....
    @.....
    @.....
    @.@...
    @@.@..
    @..@..
    @..@..
    @..@..
    @.....
    @.....

u+056c:
uni056C:
    ......
    ......
    ......
    ......
    ......
    @@....
    .@....
    .@....
    .@....
    .@....
    .@....
    ..@@..

u+056d:
uni056D:
    ......
    ......
    ......
    @.....
    @.....
    @@@.@.
    @.@.@.
    @.@.@.
    @.@.@.
    @..@..
    @.....
    @.....

u+056e:
uni056E:
    ......
    ......
    @.....
    .@....
    ..@...
    .@@@@.
    @..@..
    @..@..
    @..@..
    .@@...
    ......
    ......

u+056f:
uni056F:
    ......
    ......
    @.....
    @.....
    @.....
    @...@.
    @...@.
    @...@.
    @...@.
    .@@@@.
    ....@.
    ....@.

u+0570:
uni0570:
    ......
    ......
    @.....
    @.....
    @.....
    @.@@..
    @@..@.
    @...@.
    @...@.
    @...@.
    ......
    ......

u+0571:
uni0571:
    ......
    ......
    ..@...
    .@....
    ..@...
    .@@@@.
    @...@.
    @...@.
    @...@.
    .@@@@.
    ......
    ......

u+0572:
uni0572:
    ......
    ......
    ......
    ......
    ......
    @.@...
    @@.@..
    @..@..
    @..@..
    @..@..
    ...@..
    ...@@.

u+0573:
uni0573:
    ......
    ......
    ..@@..
    .@..@.
    .@....
    @@@@@.
    .@..@.
    .@..@.
    .@.@@.
    ..@.@.
    ......
    ......

u+0574:
uni0574:
    ......
    ......
    ....@.
    ...@..
    ...@..
    @..@..
    @..@..
    @..@..
    @.@@..
    .@.@..
    ......
    ......

u+0575:
uni0575:
    ......
    ......
    ......
    ......
    ......
    ...@@.
    ....@.
    ....@.
    ....@.
    @...@.
    @...@.
    .@@@..

u+0576:
uni0576:
    ......
    ......
    .@@@..
    @...@.
    @.....
    @..@@.
    @...@.
    @...@.
    @..@@.
    .@@.@.
    ......
    ......

u+0577:
uni0577:
    ......
    ......
    ......
    ......
    ..@@..
    .@..@.
    ....@.
    ....@.
    ...@..
    ..@...
    .@....
    ..@@@.

u+0578:
uni0578:
    ......
    ......
    ......
    ......
    ......
    @.@@..
    @@..@.
    @...@.
    @...@.
    @...@.
    ......
    ......

u+0579:
uni0579:
    ......
    ......
    ..@...
    .@....
    ..@...
    ..@...
    .@....
    .@....
    @.....
    @@@@@.
    ......
    ......

u+057a:
uni057A:
    ......
    ......
    ......
    ......
    ......
    @...@.
    @.@.@.
    @.@.@.
    @.@.@.
    .@.@@.
    ....@.
    ....@.

u+057b:
uni057B:
    ......
    ......
    ......
    ......
    ......
    .@@@..
    @...@.
    @...@.
    .@.@..
    ..@...
    .@....
    ..@@@.

u+057c:
uni057C:
    ......
    ......
    ......
    ......
    ......
    @.@...
    @@.@..
    @..@..
    @..@..
    @..@@.
    ......
    ......

u+057d:
uni057D:
    ......
    ......
    ......
    ......
    ......
    @...@.
    @...@.
    @...@.
    @..@@.
    .@@.@.
    ......
    ......

u+057e:
uni057E:
    ......
    ......
    ......
    ...@..
    ...@..
    @..@..
    @..@..
    @..@..
    @..@..
    .@@@..
    ...@..
    ...@@.

u+057f:
uni057F:
    ......
    ......
    ......
    ......
    ......
    @.@@..
    @.@.@.
    @.@.@.
    @.@.@.
    .@@.@.
    ......
    ......

u+0580:
uni0580:
    ......
    ......
    ......
    ......
    ......
    @.@@..
    @@..@.
    @...@.
    @...@.
    @...@.
    @.....
    @.....

u+0581:
uni0581:
    ......
    ......
    ......
    ......
    ......
    .@@@..
    @...@.
    @...@.
    .@@@@.
    ....@.
    @...@.
    .@@@..

u+0582:
uni0582:
    ......
    ......
    ......
    ......
    ......
    .@....
    .@....
    .@....
    .@....
    ..@@@.
    ......
    ......

u+0583:
uni0583:
    ......
    ......
    ..@...
    ..@...
    ..@...
    @.@@..
    @.@.@.
    @.@.@.
    @.@.@.
    .@@.@.
    ..@...
    ..@...

u+0584:
uni0584:
    ......
    ......
    ......
    ......
    ......
    ..@@..
    .@..@.
    .@..@.
    .@@@..
    .@....
    @@@@@.
    .@....

u+0585:
uni0585:
    ......
    ......
    ......
    ......
    ......
    .@@@..
    @...@.
    @...@.
    @...@.
    .@@@..
    ......
    ......

u+0586:
uni0586:
    ......
    ......
    .@@...
    @.@...
    @.@...
    .@@@..
    ..@.@.
    ..@.@.
    @.@.@.
    .@@@..
    ..@...
    ..@...

u+0587:
uni0587:
    ......
    ......
    ......
    @.....
    @.....
    @..@..
    @..@..
    @..@..
    @..@..
    .@@.@.
    ......
    ......

u+0589:
uni0589:
    ......
    ......
    ......
    ......
    ..@@..
    ..@@..
    ......
    ..@@..
    ..@@..
    ......
    ......
    ......

u+058a:
uni058A:
    ......
    ......
    ......
    ......
    ......
    .@....
    ..@@@.
    ......
    ......
    ......
    ......
    ......

u+0591:
uni0591:
    ......
    ......
    ......
    ......
    ......
    ......
    ......
    ......
    ......
    ......
    ..@...
    .@.@..

